<svg width="32" height="33" viewBox="0 0 32 33" fill="none" xmlns="http://www.w3.org/2000/svg">
<path d="M10.2744 2.78223H4.56013C3.29777 2.78223 2.27441 3.80559 2.27441 5.06794V27.9251C2.27441 29.1875 3.29777 30.2108 4.56013 30.2108H10.2744C11.5368 30.2108 12.5601 29.1875 12.5601 27.9251V5.06794C12.5601 3.80559 11.5368 2.78223 10.2744 2.78223Z" fill="#BC244A"/>
<path fill-rule="evenodd" clip-rule="evenodd" d="M3.69821 5.06292C3.69821 4.58952 4.08196 4.20577 4.55535 4.20577H10.2696C10.743 4.20577 11.1268 4.58952 11.1268 5.06292V27.92C11.1268 28.3934 10.743 28.7772 10.2696 28.7772H4.55535C4.08196 28.7772 3.69821 28.3934 3.69821 27.92V5.06292ZM4.55535 1.34863C2.50401 1.34863 0.841064 3.01158 0.841064 5.06292V27.92C0.841064 29.9715 2.50401 31.6343 4.55535 31.6343H10.2696C12.321 31.6343 13.9839 29.9715 13.9839 27.92V5.06292C13.9839 3.01158 12.321 1.34863 10.2696 1.34863H4.55535ZM20.8411 5.06292C20.8411 4.58952 21.2248 4.20577 21.6982 4.20577H27.4125C27.8859 4.20577 28.2696 4.58952 28.2696 5.06292V27.92C28.2696 28.3934 27.8859 28.7772 27.4125 28.7772H21.6982C21.2248 28.7772 20.8411 28.3934 20.8411 27.92V5.06292ZM21.6982 1.34863C19.6469 1.34863 17.9839 3.01158 17.9839 5.06292V27.92C17.9839 29.9715 19.6469 31.6343 21.6982 31.6343H27.4125C29.4639 31.6343 31.1268 29.9715 31.1268 27.92V5.06292C31.1268 3.01158 29.4639 1.34863 27.4125 1.34863H21.6982Z" fill="#BC244A"/>
</svg>
