<svg width="33" height="33" viewBox="0 0 33 33" fill="none" xmlns="http://www.w3.org/2000/svg">
<g clip-path="url(#clip0_647_238)">
<path d="M23.2831 9.20353C24.9905 7.71576 27.4913 7.98248 28.8363 9.80454C29.0376 10.0774 29.2804 10.3963 29.5947 10.7895C31.5892 13.2845 31.5892 16.8972 29.5837 19.3833C28.103 21.2186 26.5508 23.0705 24.8155 24.8058C23.0801 26.5411 21.2282 28.0933 19.3929 29.574C16.9068 31.5795 13.2941 31.5795 10.7992 29.585C10.3572 29.2316 10.0102 28.9701 9.71747 28.7564C7.95153 27.4664 7.65205 25.0502 9.08225 23.3955C9.73333 22.6424 10.4235 21.912 11.104 21.1955C12.044 20.2059 13.6576 20.0958 14.6873 20.9916C14.8681 21.1489 15.0979 21.3566 15.4157 21.6546C18.2696 19.9587 19.9993 18.208 21.6642 15.4061C21.3609 15.0825 21.1507 14.8499 20.9921 14.6673C20.098 13.638 20.2074 12.0293 21.2034 11.0984C21.8849 10.4614 22.5759 9.81969 23.2831 9.20353Z" fill="#8E8E93"/>
<path fill-rule="evenodd" clip-rule="evenodd" d="M5.70962 3.92348C8.59122 1.55243 12.0987 0.438191 15.558 0.518311C16.5045 0.540233 17.2541 1.32531 17.2322 2.27183C17.2102 3.21834 16.4252 3.96789 15.4786 3.94595C12.8099 3.88415 10.1112 4.74177 7.88806 6.571C5.75103 8.3294 4.41076 10.6915 3.90731 13.208C3.72157 14.1363 2.81842 14.7384 1.89004 14.5527C0.961658 14.3669 0.359626 13.4638 0.54536 12.5354C1.19819 9.27226 2.9402 6.2022 5.70962 3.92348ZM10.2659 9.34284C11.7261 8.14135 13.5055 7.57617 15.2585 7.61676C16.205 7.63868 16.9546 8.42375 16.9326 9.37029C16.9107 10.3168 16.1256 11.0663 15.1791 11.0444C14.2167 11.0221 13.2461 11.3307 12.4443 11.9904C11.6735 12.6246 11.1915 13.4742 11.01 14.3814C10.8242 15.3097 9.92109 15.9117 8.99273 15.726C8.06434 15.5403 7.4623 14.6371 7.64804 13.7088C7.9789 12.0549 8.86267 10.4974 10.2659 9.34284ZM29.9795 8.96206C28.1359 6.46469 24.6714 6.09969 22.3384 8.13242C21.6106 8.76659 20.9034 9.4235 20.2217 10.0606C18.6954 11.4872 18.4952 13.9417 19.8742 15.5714C18.6811 17.38 17.4048 18.6648 15.5685 19.8768C13.9362 18.5042 11.4905 18.7137 10.062 20.2177C9.38287 20.9327 8.67108 21.6855 7.99529 22.4673C6.00786 24.7665 6.44214 28.1434 8.86857 29.916C9.14594 30.1185 9.47641 30.3674 9.90093 30.7069C12.9168 33.1178 17.2735 33.1201 20.2837 30.6918C22.1297 29.2026 24.0291 27.6122 25.8193 25.8218C27.6097 24.0317 29.2001 22.1322 30.6893 20.2862C33.1176 17.276 33.1153 12.9194 30.7043 9.90348C30.4019 9.52528 30.1704 9.22087 29.9795 8.96206ZM24.2154 10.2866C25.2975 9.34375 26.8342 9.51217 27.6808 10.659C27.8925 10.9457 28.1462 11.2793 28.4726 11.6875C30.0506 13.6616 30.0483 16.5302 28.4655 18.4923C26.9937 20.3169 25.4794 22.1212 23.799 23.8017C22.1187 25.4819 20.3143 26.9962 18.4898 28.468C16.5277 30.0508 13.659 30.0531 11.685 28.4751C11.2256 28.1078 10.862 27.8337 10.554 27.6088C9.44847 26.8013 9.28383 25.3457 10.1568 24.3359C10.7832 23.6111 11.4517 22.9033 12.1336 22.1853C12.5703 21.7256 13.3159 21.7034 13.7435 22.0754C13.9069 22.2175 14.123 22.4126 14.4324 22.7027C14.8965 23.1378 15.5924 23.2136 16.1393 22.8886C19.2005 21.0696 21.1006 19.1466 22.8861 16.1418C23.2111 15.5949 23.1353 14.8991 22.7002 14.435C22.4048 14.1199 22.2076 13.9013 22.0643 13.7364C21.6915 13.3072 21.719 12.572 22.1727 12.148C22.854 11.5112 23.5288 10.8847 24.2154 10.2866Z" fill="#8E8E93"/>
</g>
<defs>
<clipPath id="clip0_647_238">
<rect width="32" height="32" fill="white" transform="translate(0.5 0.5)"/>
</clipPath>
</defs>
</svg>
