<svg width="56" height="56" viewBox="0 0 56 56" fill="none" xmlns="http://www.w3.org/2000/svg">
<path fill-rule="evenodd" clip-rule="evenodd" d="M27.9679 2.31934C29.2566 2.31934 30.3013 3.364 30.3013 4.65267V10.3776C32.9274 10.5862 35.4541 11.144 37.8307 12.0039L40.7688 6.92374C41.414 5.8082 42.8421 5.42553 43.9587 6.069C45.0752 6.71248 45.4573 8.13843 44.8122 9.25396L42.0929 13.9557C44.1372 15.104 46.0202 16.4946 47.6998 18.0878L51.3681 14.4236C52.2798 13.5129 53.7585 13.5124 54.6708 14.4226C55.5831 15.3327 55.5835 16.8087 54.6719 17.7194L50.8089 21.5781C52.746 24.1626 54.2294 27.0913 55.1439 30.2564C55.4653 31.3685 55.4658 32.5492 55.1453 33.6616C51.811 45.2356 40.8707 53.6526 27.9661 53.6526C15.0688 53.6526 4.13387 45.2453 0.792628 33.6818C0.471274 32.5696 0.470808 31.3889 0.791286 30.2765C1.70327 27.1109 3.18424 24.1814 5.11876 21.5958L1.25846 17.7182C0.349279 16.8049 0.353881 15.3288 1.26873 14.4213C2.18359 13.5136 3.66226 13.5183 4.57144 14.4315L8.22587 18.1023C9.90363 16.5083 11.7849 15.1168 13.8275 13.9672L11.12 9.24527C10.479 8.12734 10.8665 6.70283 11.9854 6.06352C13.1043 5.42422 14.531 5.81223 15.1719 6.93016L18.0862 12.0127C20.4683 11.1483 23.0013 10.5876 25.6346 10.378V4.65267C25.6346 3.364 26.6792 2.31934 27.9679 2.31934ZM27.9679 14.9537C27.9401 14.9537 27.9123 14.9533 27.8848 14.9523C24.4571 14.964 21.2079 15.6805 18.2809 16.9563C18.2685 16.9637 18.256 16.9709 18.2434 16.9781C18.096 17.0624 17.9431 17.1288 17.7875 17.178C14.8194 18.5527 12.1995 20.5086 10.0835 22.8885C10.0367 22.9473 9.98652 23.0043 9.93314 23.0594C7.79485 25.5127 6.18691 28.4049 5.27557 31.5684C5.19862 31.8355 5.19872 32.1193 5.2759 32.3863C8.03027 41.9189 17.1113 48.986 27.9661 48.986C38.8272 48.986 47.9123 41.9106 50.661 32.3697C50.738 32.1026 50.7379 31.8188 50.6607 31.5518C49.7582 28.4287 48.1768 25.5703 46.0764 23.1383C46.0537 23.1174 46.0314 23.096 46.0095 23.0741C45.9151 22.9799 45.8304 22.8797 45.7556 22.7747C43.6268 20.412 40.9981 18.4745 38.0245 17.1187C37.9274 17.0828 37.8316 17.0401 37.7378 16.9903C34.7892 15.6926 31.5112 14.9635 28.0516 14.9522C28.0238 14.9533 27.9959 14.9537 27.9679 14.9537ZM15.3966 31.9675C15.3966 25.0348 21.0259 19.4182 27.9657 19.4182C34.9055 19.4182 40.5349 25.0348 40.5349 31.9675C40.5349 38.9 34.9055 44.5166 27.9657 44.5166C21.0259 44.5166 15.3966 38.9 15.3966 31.9675Z" fill="#F7F7F7"/>
</svg>
