<svg width="33" height="33" viewBox="0 0 33 33" fill="none" xmlns="http://www.w3.org/2000/svg">
<path fill-rule="evenodd" clip-rule="evenodd" d="M4.11563 1.36625C5.85537 1.28675 9.55422 1.17346 16.5104 1.17346C23.4666 1.17346 27.1655 1.28675 28.9052 1.36625C29.9428 1.41366 30.992 2.05192 31.1199 3.28571C31.1548 3.62156 31.1771 4.02473 31.1771 4.50679C31.1771 4.98885 31.1548 5.39203 31.1199 5.72788C31.0032 6.85376 30.1192 7.48373 29.1771 7.62133V14.8396C29.1771 18.5817 29.0848 21.3193 28.9992 23.0524C29.4313 23.3436 29.7549 23.7987 29.8127 24.4376C29.8322 24.6529 29.8438 24.8971 29.8438 25.1735C29.8438 25.4499 29.8322 25.694 29.8127 25.9093C29.7042 27.1085 28.6595 27.6601 27.7183 27.6957C26.2587 27.7509 23.2782 27.8279 17.8438 27.8388V30.5068C17.8438 31.2432 17.2468 31.8401 16.5104 31.8401C15.774 31.8401 15.1771 31.2432 15.1771 30.5068V27.8388C9.74268 27.8279 6.7621 27.7509 5.30254 27.6957C4.36138 27.6601 3.31661 27.1085 3.20808 25.9093C3.1886 25.694 3.17708 25.4499 3.17708 25.1735C3.17708 24.8971 3.1886 24.6529 3.20808 24.4376C3.26591 23.7987 3.58952 23.3436 4.02164 23.0524C3.9361 21.3193 3.84375 18.5817 3.84375 14.8396V7.62133C2.90158 7.48373 2.01771 6.85375 1.90093 5.72787C1.8661 5.39202 1.84375 4.98885 1.84375 4.50679C1.84375 4.02473 1.8661 3.62157 1.90093 3.28571C2.0289 2.05193 3.07806 1.41366 4.11563 1.36625ZM16.5104 7.84013C21.1815 7.84013 24.3838 7.78906 26.5104 7.73139V14.8396C26.5104 18.3172 26.4298 20.9065 26.3508 22.6078C24.4647 22.5573 21.3642 22.5068 16.5104 22.5068C11.6566 22.5068 8.55615 22.5573 6.67008 22.6078C6.59112 20.9065 6.51042 18.3172 6.51042 14.8396V7.73139C8.63702 7.78906 11.8394 7.84013 16.5104 7.84013Z" fill="#0AA88C"/>
</svg>
