<svg width="32" height="33" viewBox="0 0 32 33" fill="none" xmlns="http://www.w3.org/2000/svg">
<g clip-path="url(#clip0_592_22640)">
<path fill-rule="evenodd" clip-rule="evenodd" d="M16.0078 0.498383C11.7643 0.498383 7.69469 2.18409 4.69411 5.18467C1.69352 8.18526 0.0078125 12.2549 0.0078125 16.4984C0.0078125 20.7418 1.69352 24.8114 4.69411 27.8121C7.69469 30.8126 11.7643 32.4984 16.0078 32.4984C20.2513 32.4984 24.3209 30.8126 27.3215 27.8121C30.3221 24.8114 32.0078 20.7418 32.0078 16.4984C32.0078 12.2549 30.3221 8.18526 27.3215 5.18467C24.3209 2.18409 20.2513 0.498383 16.0078 0.498383ZM7.05113 7.5417C9.42659 5.16623 12.6484 3.83171 16.0078 3.83171C19.3673 3.83171 22.589 5.16623 24.9645 7.5417C27.3399 9.91715 28.6745 13.139 28.6745 16.4984C28.6745 19.0058 27.931 21.4368 26.5661 23.4962C25.2523 23.0086 23.5093 22.5833 21.3409 22.5097V27.9877C20.6965 28.2868 20.0275 28.5314 19.341 28.7186V22.8374L18.8754 22.4384L18.0077 23.4508C18.8754 22.4384 18.8759 22.4388 18.8754 22.4384L18.8733 22.4366L18.871 22.4346L18.8655 22.43L18.8517 22.4184C18.841 22.4096 18.8277 22.3986 18.8115 22.3857C18.7795 22.36 18.7365 22.3262 18.6826 22.2858C18.575 22.205 18.4237 22.0974 18.2286 21.972C17.8387 21.7213 17.2735 21.3998 16.5329 21.0824C15.0483 20.4461 12.8703 19.8317 10.0077 19.8317C7.521 19.8317 5.55205 20.2953 4.10596 20.8332C3.60467 19.4569 3.34115 17.9912 3.34115 16.4984C3.34115 13.139 4.67567 9.91715 7.05113 7.5417ZM6.00781 13.165C6.00781 10.5877 8.09715 8.49838 10.6745 8.49838C13.2518 8.49838 15.3411 10.5877 15.3411 13.165C15.3411 15.7424 13.2518 17.8317 10.6745 17.8317C8.09715 17.8317 6.00781 15.7424 6.00781 13.165ZM21.3411 11.165C18.7638 11.165 16.6745 13.2544 16.6745 15.8317C16.6745 18.409 18.7638 20.4984 21.3411 20.4984C23.9185 20.4984 26.0078 18.409 26.0078 15.8317C26.0078 13.2544 23.9185 11.165 21.3411 11.165Z" fill="#FD3567"/>
</g>
<defs>
<clipPath id="clip0_592_22640">
<rect width="32" height="32" fill="white" transform="translate(0 0.5)"/>
</clipPath>
</defs>
</svg>
