<svg width="32" height="33" viewBox="0 0 32 33" fill="none" xmlns="http://www.w3.org/2000/svg">
<g clip-path="url(#clip0_530_427)">
<path fill-rule="evenodd" clip-rule="evenodd" d="M16.0088 0.498413C11.7653 0.498413 7.69567 2.18412 4.69508 5.1847C1.6945 8.18529 0.00878906 12.2549 0.00878906 16.4984C0.00878906 20.7419 1.6945 24.8115 4.69508 27.8121C7.69567 30.8127 11.7653 32.4984 16.0088 32.4984C20.2523 32.4984 24.3219 30.8127 27.3225 27.8121C30.3231 24.8115 32.0088 20.7419 32.0088 16.4984C32.0088 12.2549 30.3231 8.18529 27.3225 5.1847C24.3219 2.18412 20.2523 0.498413 16.0088 0.498413ZM7.05211 7.54173C9.42756 5.16626 12.6494 3.83174 16.0088 3.83174C19.3683 3.83174 22.59 5.16626 24.9655 7.54173C27.3409 9.91718 28.6755 13.139 28.6755 16.4984C28.6755 19.0059 27.932 21.4368 26.5671 23.4963C25.2533 23.0087 23.5103 22.5833 21.3419 22.5097V27.9877C20.6975 28.2868 20.0285 28.5315 19.342 28.7187V22.8375L18.8764 22.4384L18.0087 23.4508C18.8764 22.4384 18.8769 22.4388 18.8764 22.4384L18.8743 22.4367L18.872 22.4347L18.8665 22.43L18.8527 22.4184C18.842 22.4096 18.8287 22.3987 18.8125 22.3857C18.7805 22.36 18.7375 22.3263 18.6836 22.2859C18.576 22.2051 18.4247 22.0975 18.2296 21.972C17.8397 21.7213 17.2745 21.3999 16.5339 21.0824C15.0493 20.4461 12.8712 19.8317 10.0086 19.8317C7.52198 19.8317 5.55303 20.2953 4.10694 20.8332C3.60564 19.4569 3.34212 17.9912 3.34212 16.4984C3.34212 13.139 4.67664 9.91718 7.05211 7.54173ZM6.00879 13.1651C6.00879 10.5877 8.09812 8.49841 10.6755 8.49841C13.2528 8.49841 15.3421 10.5877 15.3421 13.1651C15.3421 15.7424 13.2528 17.8317 10.6755 17.8317C8.09812 17.8317 6.00879 15.7424 6.00879 13.1651ZM21.3421 11.1651C18.7648 11.1651 16.6755 13.2544 16.6755 15.8317C16.6755 18.4091 18.7648 20.4984 21.3421 20.4984C23.9195 20.4984 26.0088 18.4091 26.0088 15.8317C26.0088 13.2544 23.9195 11.1651 21.3421 11.1651Z" fill="#750037"/>
</g>
<defs>
<clipPath id="clip0_530_427">
<rect width="32" height="32" fill="white" transform="translate(0 0.5)"/>
</clipPath>
</defs>
</svg>
