<svg width="32" height="33" viewBox="0 0 32 33" fill="none" xmlns="http://www.w3.org/2000/svg">
<g clip-path="url(#clip0_350_54006)">
<path fill-rule="evenodd" clip-rule="evenodd" d="M16.0083 0.498047C11.7648 0.498047 7.69518 2.18375 4.69459 5.18434C1.69401 8.18492 0.00830078 12.2546 0.00830078 16.498C0.00830078 20.7415 1.69401 24.8111 4.69459 27.8118C7.69518 30.8123 11.7648 32.498 16.0083 32.498C20.2518 32.498 24.3214 30.8123 27.322 27.8118C30.3226 24.8111 32.0083 20.7415 32.0083 16.498C32.0083 12.2546 30.3226 8.18492 27.322 5.18434C24.3214 2.18375 20.2518 0.498047 16.0083 0.498047ZM7.05162 7.54136C9.42707 5.1659 12.6489 3.83138 16.0083 3.83138C19.3678 3.83138 22.5895 5.1659 24.965 7.54136C27.3404 9.91682 28.675 13.1386 28.675 16.498C28.675 19.0055 27.9315 21.4364 26.5666 23.4959C25.2528 23.0083 23.5098 22.583 21.3414 22.5094V27.9874C20.697 28.2864 20.028 28.5311 19.3415 28.7183V22.8371L18.8759 22.438L18.0082 23.4504C18.8759 22.438 18.8764 22.4384 18.8759 22.438L18.8738 22.4363L18.8715 22.4343L18.866 22.4296L18.8522 22.418C18.8415 22.4092 18.8282 22.3983 18.812 22.3854C18.78 22.3596 18.737 22.3259 18.6831 22.2855C18.5755 22.2047 18.4242 22.0971 18.2291 21.9716C17.8392 21.721 17.274 21.3995 16.5334 21.082C15.0488 20.4458 12.8708 19.8314 10.0082 19.8314C7.52149 19.8314 5.55254 20.295 4.10645 20.8328C3.60515 19.4566 3.34163 17.9908 3.34163 16.498C3.34163 13.1386 4.67615 9.91682 7.05162 7.54136ZM6.0083 13.1647C6.0083 10.5874 8.09763 8.49804 10.675 8.49804C13.2523 8.49804 15.3416 10.5874 15.3416 13.1647C15.3416 15.742 13.2523 17.8314 10.675 17.8314C8.09763 17.8314 6.0083 15.742 6.0083 13.1647ZM21.3416 11.1647C18.7643 11.1647 16.675 13.254 16.675 15.8314C16.675 18.4087 18.7643 20.498 21.3416 20.498C23.919 20.498 26.0083 18.4087 26.0083 15.8314C26.0083 13.254 23.919 11.1647 21.3416 11.1647Z" fill="#BC244A"/>
</g>
<defs>
<clipPath id="clip0_350_54006">
<rect width="32" height="32" fill="white" transform="translate(0 0.5)"/>
</clipPath>
</defs>
</svg>
