<svg width="32" height="33" viewBox="0 0 32 33" fill="none" xmlns="http://www.w3.org/2000/svg">
<g clip-path="url(#clip0_340_824)">
<path fill-rule="evenodd" clip-rule="evenodd" d="M16.0085 0.498535C11.765 0.498535 7.69533 2.18424 4.69475 5.18483C1.69416 8.18541 0.00845337 12.2551 0.00845337 16.4985C0.00845337 20.742 1.69416 24.8116 4.69475 27.8123C7.69533 30.8128 11.765 32.4985 16.0085 32.4985C20.2519 32.4985 24.3215 30.8128 27.3222 27.8123C30.3227 24.8116 32.0085 20.742 32.0085 16.4985C32.0085 12.2551 30.3227 8.18541 27.3222 5.18483C24.3215 2.18424 20.2519 0.498535 16.0085 0.498535ZM7.05177 7.54185C9.42723 5.16639 12.649 3.83187 16.0085 3.83187C19.3679 3.83187 22.5897 5.16639 24.9651 7.54185C27.3406 9.9173 28.6751 13.1391 28.6751 16.4985C28.6751 19.006 27.9317 21.4369 26.5667 23.4964C25.253 23.0088 23.5099 22.5835 21.3415 22.5099V27.9879C20.6971 28.2869 20.0282 28.5316 19.3417 28.7188V22.8376L18.8761 22.4385L18.0083 23.4509C18.8761 22.4385 18.8766 22.4389 18.8761 22.4385L18.8739 22.4368L18.8717 22.4348L18.8662 22.4301L18.8523 22.4185C18.8417 22.4097 18.8283 22.3988 18.8122 22.3859C18.7802 22.3601 18.7371 22.3264 18.6833 22.286C18.5757 22.2052 18.4243 22.0976 18.2293 21.9721C17.8394 21.7215 17.2742 21.4 16.5335 21.0825C15.049 20.4463 12.8709 19.8319 10.0083 19.8319C7.52164 19.8319 5.55269 20.2955 4.1066 20.8333C3.60531 19.4571 3.34179 17.9913 3.34179 16.4985C3.34179 13.1391 4.67631 9.9173 7.05177 7.54185ZM6.00845 13.1652C6.00845 10.5879 8.09779 8.49853 10.6751 8.49853C13.2525 8.49853 15.3418 10.5879 15.3418 13.1652C15.3418 15.7425 13.2525 17.8319 10.6751 17.8319C8.09779 17.8319 6.00845 15.7425 6.00845 13.1652ZM21.3418 11.1652C18.7645 11.1652 16.6751 13.2545 16.6751 15.8319C16.6751 18.4092 18.7645 20.4985 21.3418 20.4985C23.9191 20.4985 26.0085 18.4092 26.0085 15.8319C26.0085 13.2545 23.9191 11.1652 21.3418 11.1652Z" fill="#F7F7F7"/>
</g>
<defs>
<clipPath id="clip0_340_824">
<rect width="32" height="32" fill="white" transform="translate(0 0.5)"/>
</clipPath>
</defs>
</svg>
