<svg width="32" height="33" viewBox="0 0 32 33" fill="none" xmlns="http://www.w3.org/2000/svg">
<g clip-path="url(#clip0_340_832)">
<path d="M22.7838 9.20316C24.4912 7.71539 26.992 7.98211 28.337 9.80417C28.5383 10.077 28.7811 10.396 29.0954 10.7892C31.0899 13.2841 31.0899 16.8968 29.0844 19.3829C27.6037 21.2182 26.0515 23.0701 24.3162 24.8054C22.5808 26.5408 20.7289 28.093 18.8936 29.5737C16.4075 31.5792 12.7948 31.5792 10.2999 29.5846C9.8579 29.2313 9.51088 28.9698 9.21817 28.7561C7.45223 27.466 7.15275 25.0498 8.58295 23.3952C9.23403 22.642 9.92418 21.9117 10.6047 21.1952C11.5447 20.2055 13.1583 20.0954 14.188 20.9912C14.3688 21.1485 14.5986 21.3563 14.9164 21.6542C17.7703 19.9584 19.5 18.2076 21.1649 15.4057C20.8616 15.0822 20.6514 14.8495 20.4928 14.6669C19.5987 13.6377 19.7081 12.0289 20.7041 11.098C21.3856 10.461 22.0766 9.81932 22.7838 9.20316Z" fill="#F7F7F7"/>
<path fill-rule="evenodd" clip-rule="evenodd" d="M5.20962 3.92336C8.09122 1.55231 11.5987 0.438069 15.058 0.518189C16.0045 0.540111 16.7541 1.32519 16.7322 2.27171C16.7102 3.21822 15.9252 3.96777 14.9786 3.94583C12.3099 3.88402 9.61119 4.74165 7.38806 6.57088C5.25103 8.32928 3.91076 10.6913 3.40731 13.2079C3.22157 14.1362 2.31842 14.7383 1.39004 14.5525C0.461658 14.3668 -0.140374 13.4636 0.0453602 12.5353C0.698186 9.27213 2.4402 6.20208 5.20962 3.92336ZM9.76589 9.34272C11.2261 8.14123 13.0055 7.57604 14.7585 7.61664C15.705 7.63856 16.4546 8.42363 16.4326 9.37017C16.4107 10.3167 15.6256 11.0662 14.6791 11.0443C13.7167 11.022 12.7461 11.3306 11.9443 11.9903C11.1735 12.6245 10.6915 13.474 10.51 14.3812C10.3242 15.3096 9.42109 15.9116 8.49273 15.7259C7.56434 15.5402 6.9623 14.637 7.14804 13.7086C7.4789 12.0548 8.36267 10.4973 9.76589 9.34272ZM29.4795 8.96194C27.6359 6.46457 24.1714 6.09956 21.8384 8.13229C21.1106 8.76647 20.4034 9.42338 19.7217 10.0605C18.1954 11.4871 17.9952 13.9416 19.3742 15.5713C18.1811 17.3799 16.9048 18.6647 15.0685 19.8766C13.4362 18.5041 10.9905 18.7135 9.56198 20.2175C8.88287 20.9326 8.17108 21.6854 7.49529 22.4672C5.50786 24.7664 5.94214 28.1433 8.36857 29.9159C8.64594 30.1184 8.97641 30.3673 9.40093 30.7067C12.4168 33.1177 16.7735 33.12 19.7837 30.6916C21.6297 29.2025 23.5291 27.6121 25.3193 25.8217C27.1097 24.0315 28.7001 22.1321 30.1893 20.2861C32.6176 17.2759 32.6153 12.9193 30.2043 9.90336C29.9019 9.52516 29.6704 9.22075 29.4795 8.96194ZM23.7154 10.2864C24.7975 9.34363 26.3342 9.51204 27.1808 10.6588C27.3925 10.9456 27.6462 11.2792 27.9726 11.6874C29.5506 13.6614 29.5483 16.5301 27.9655 18.4922C26.4937 20.3167 24.9794 22.1211 23.299 23.8016C21.6187 25.4818 19.8143 26.9961 17.9898 28.4679C16.0277 30.0507 13.159 30.053 11.185 28.475C10.7256 28.1076 10.362 27.8336 10.054 27.6087C8.94847 26.8011 8.78383 25.3456 9.65679 24.3358C10.2832 23.611 10.9517 22.9032 11.6336 22.1852C12.0703 21.7254 12.8159 21.7033 13.2435 22.0753C13.4069 22.2174 13.623 22.4125 13.9324 22.7026C14.3965 23.1377 15.0924 23.2135 15.6393 22.8885C18.7005 21.0695 20.6006 19.1465 22.3861 16.1417C22.7111 15.5948 22.6353 14.8989 22.2002 14.4349C21.9048 14.1198 21.7076 13.9011 21.5643 13.7363C21.1915 13.3071 21.219 12.5719 21.6727 12.1479C22.354 11.5111 23.0288 10.8846 23.7154 10.2864Z" fill="#F7F7F7"/>
</g>
<defs>
<clipPath id="clip0_340_832">
<rect width="32" height="32" fill="white" transform="translate(0 0.5)"/>
</clipPath>
</defs>
</svg>
