<svg width="32" height="33" viewBox="0 0 32 33" fill="none" xmlns="http://www.w3.org/2000/svg">
<g clip-path="url(#clip0_592_22648)">
<path fill-rule="evenodd" clip-rule="evenodd" d="M5.20962 3.92351C8.09122 1.55246 11.5987 0.438222 15.058 0.518341C16.0045 0.540263 16.7541 1.32534 16.7322 2.27186C16.7102 3.21837 15.9252 3.96792 14.9786 3.94598C12.3099 3.88418 9.61119 4.7418 7.38806 6.57103C5.25103 8.32943 3.91076 10.6915 3.40731 13.208C3.22157 14.1364 2.31842 14.7384 1.39004 14.5527C0.461658 14.367 -0.140374 13.4638 0.0453602 12.5354C0.698186 9.27229 2.4402 6.20223 5.20962 3.92351ZM9.76589 9.34287C11.2261 8.14138 13.0055 7.5762 14.7585 7.61679C15.705 7.63871 16.4546 8.42378 16.4326 9.37032C16.4107 10.3168 15.6256 11.0664 14.6791 11.0444C13.7167 11.0222 12.7461 11.3307 11.9443 11.9904C11.1735 12.6247 10.6915 13.4742 10.51 14.3814C10.3242 15.3097 9.42109 15.9118 8.49273 15.726C7.56434 15.5403 6.9623 14.6372 7.14804 13.7088C7.4789 12.055 8.36267 10.4975 9.76589 9.34287ZM29.4795 8.96209C27.6359 6.46472 24.1714 6.09972 21.8384 8.13245C21.1106 8.76662 20.4034 9.42353 19.7217 10.0607C18.1954 11.4872 17.9952 13.9418 19.3742 15.5714C18.1811 17.38 16.9048 18.6648 15.0685 19.8768C13.4362 18.5043 10.9905 18.7137 9.56198 20.2177C8.88287 20.9327 8.17108 21.6856 7.49529 22.4673C5.50786 24.7665 5.94214 28.1435 8.36857 29.916C8.64594 30.1185 8.97641 30.3675 9.40093 30.7069C12.4168 33.1179 16.7735 33.1201 19.7837 30.6918C21.6297 29.2027 23.5291 27.6123 25.3193 25.8219C27.1097 24.0317 28.7001 22.1323 30.1893 20.2862C32.6176 17.276 32.6153 12.9194 30.2043 9.90351C29.9019 9.52531 29.6704 9.2209 29.4795 8.96209ZM23.7154 10.2866C24.7975 9.34378 26.3342 9.5122 27.1808 10.659C27.3925 10.9458 27.6462 11.2793 27.9726 11.6876C29.5506 13.6616 29.5483 16.5303 27.9655 18.4923C26.4937 20.3169 24.9794 22.1213 23.299 23.8017C21.6187 25.482 19.8143 26.9963 17.9898 28.468C16.0277 30.0509 13.159 30.0532 11.185 28.4751C10.7256 28.1078 10.362 27.8337 10.054 27.6088C8.94847 26.8013 8.78383 25.3457 9.65679 24.3359C10.2832 23.6111 10.9517 22.9033 11.6336 22.1854C12.0703 21.7256 12.8159 21.7034 13.2435 22.0754C13.4069 22.2175 13.623 22.4126 13.9324 22.7027C14.3965 23.1378 15.0924 23.2136 15.6393 22.8887C18.7005 21.0696 20.6006 19.1466 22.3861 16.1418C22.7111 15.595 22.6353 14.8991 22.2002 14.435C21.9048 14.1199 21.7076 13.9013 21.5643 13.7364C21.1915 13.3072 21.219 12.572 21.6727 12.1481C22.354 11.5113 23.0288 10.8848 23.7154 10.2866Z" fill="#FD3567"/>
</g>
<defs>
<clipPath id="clip0_592_22648">
<rect width="32" height="32" fill="white" transform="translate(0 0.5)"/>
</clipPath>
</defs>
</svg>
