<svg width="33" height="33" viewBox="0 0 33 33" fill="none" xmlns="http://www.w3.org/2000/svg">
<g clip-path="url(#clip0_778_1278)">
<path d="M23.2831 9.20316C24.9905 7.71539 27.4913 7.98211 28.8363 9.80417C29.0376 10.077 29.2804 10.396 29.5947 10.7892C31.5892 13.2841 31.5892 16.8968 29.5837 19.3829C28.103 21.2182 26.5508 23.0701 24.8155 24.8054C23.0801 26.5408 21.2282 28.093 19.3929 29.5737C16.9068 31.5792 13.2941 31.5792 10.7992 29.5846C10.3572 29.2313 10.0102 28.9698 9.71747 28.7561C7.95153 27.466 7.65205 25.0498 9.08225 23.3952C9.73333 22.642 10.4235 21.9117 11.104 21.1952C12.044 20.2055 13.6576 20.0954 14.6873 20.9912C14.8681 21.1485 15.0979 21.3563 15.4157 21.6542C18.2696 19.9584 19.9993 18.2076 21.6642 15.4057C21.3609 15.0822 21.1507 14.8495 20.9921 14.6669C20.098 13.6377 20.2074 12.0289 21.2034 11.098C21.8849 10.461 22.5759 9.81932 23.2831 9.20316Z" fill="#044338"/>
<path fill-rule="evenodd" clip-rule="evenodd" d="M5.70962 3.92336C8.59122 1.55231 12.0987 0.438069 15.558 0.518189C16.5045 0.540111 17.2541 1.32519 17.2322 2.27171C17.2102 3.21822 16.4252 3.96777 15.4786 3.94583C12.8099 3.88402 10.1112 4.74165 7.88806 6.57088C5.75103 8.32928 4.41076 10.6913 3.90731 13.2079C3.72157 14.1362 2.81842 14.7383 1.89004 14.5525C0.961658 14.3668 0.359626 13.4636 0.54536 12.5353C1.19819 9.27213 2.9402 6.20208 5.70962 3.92336ZM10.2659 9.34272C11.7261 8.14123 13.5055 7.57604 15.2585 7.61664C16.205 7.63856 16.9546 8.42363 16.9326 9.37017C16.9107 10.3167 16.1256 11.0662 15.1791 11.0443C14.2167 11.022 13.2461 11.3306 12.4443 11.9903C11.6735 12.6245 11.1915 13.474 11.01 14.3812C10.8242 15.3096 9.92109 15.9116 8.99273 15.7259C8.06434 15.5402 7.4623 14.637 7.64804 13.7086C7.9789 12.0548 8.86267 10.4973 10.2659 9.34272ZM29.9795 8.96194C28.1359 6.46457 24.6714 6.09956 22.3384 8.13229C21.6106 8.76647 20.9034 9.42338 20.2217 10.0605C18.6954 11.4871 18.4952 13.9416 19.8742 15.5713C18.6811 17.3799 17.4048 18.6647 15.5685 19.8766C13.9362 18.5041 11.4905 18.7135 10.062 20.2175C9.38287 20.9326 8.67108 21.6854 7.99529 22.4672C6.00786 24.7664 6.44214 28.1433 8.86857 29.9159C9.14594 30.1184 9.47641 30.3673 9.90093 30.7067C12.9168 33.1177 17.2735 33.12 20.2837 30.6916C22.1297 29.2025 24.0291 27.6121 25.8193 25.8217C27.6097 24.0315 29.2001 22.1321 30.6893 20.2861C33.1176 17.2759 33.1153 12.9193 30.7043 9.90336C30.4019 9.52516 30.1704 9.22075 29.9795 8.96194ZM24.2154 10.2864C25.2975 9.34363 26.8342 9.51204 27.6808 10.6588C27.8925 10.9456 28.1462 11.2792 28.4726 11.6874C30.0506 13.6614 30.0483 16.5301 28.4655 18.4922C26.9937 20.3167 25.4794 22.1211 23.799 23.8016C22.1187 25.4818 20.3143 26.9961 18.4898 28.4679C16.5277 30.0507 13.659 30.053 11.685 28.475C11.2256 28.1076 10.862 27.8336 10.554 27.6087C9.44847 26.8011 9.28383 25.3456 10.1568 24.3358C10.7832 23.611 11.4517 22.9032 12.1336 22.1852C12.5703 21.7254 13.3159 21.7033 13.7435 22.0753C13.9069 22.2174 14.123 22.4125 14.4324 22.7026C14.8965 23.1377 15.5924 23.2135 16.1393 22.8885C19.2005 21.0695 21.1006 19.1465 22.8861 16.1417C23.2111 15.5948 23.1353 14.8989 22.7002 14.4349C22.4048 14.1198 22.2076 13.9011 22.0643 13.7363C21.6915 13.3071 21.719 12.5719 22.1727 12.1479C22.854 11.5111 23.5288 10.8846 24.2154 10.2864Z" fill="#044338"/>
</g>
<defs>
<clipPath id="clip0_778_1278">
<rect width="32" height="32" fill="white" transform="translate(0.5 0.5)"/>
</clipPath>
</defs>
</svg>
