<svg width="32" height="33" viewBox="0 0 32 33" fill="none" xmlns="http://www.w3.org/2000/svg">
<g clip-path="url(#clip0_530_435)">
<path d="M22.7841 9.20353C24.4915 7.71576 26.9923 7.98248 28.3372 9.80454C28.5386 10.0774 28.7813 10.3963 29.0956 10.7895C31.0901 13.2845 31.0901 16.8972 29.0847 19.3833C27.604 21.2186 26.0517 23.0705 24.3164 24.8058C22.5811 26.5411 20.7292 28.0933 18.8939 29.574C16.4078 31.5795 12.7951 31.5795 10.3001 29.585C9.85817 29.2316 9.51115 28.9701 9.21844 28.7564C7.4525 27.4664 7.15303 25.0502 8.58322 23.3955C9.23431 22.6424 9.92446 21.912 10.605 21.1955C11.545 20.2059 13.1586 20.0958 14.1883 20.9916C14.3691 21.1489 14.5989 21.3566 14.9167 21.6546C17.7706 19.9587 19.5003 18.208 21.1652 15.4061C20.8618 15.0825 20.6517 14.8499 20.493 14.6673C19.599 13.638 19.7083 12.0293 20.7044 11.0984C21.3859 10.4614 22.0769 9.81969 22.7841 9.20353Z" fill="#750037"/>
<path fill-rule="evenodd" clip-rule="evenodd" d="M5.20962 3.92348C8.09122 1.55243 11.5987 0.438191 15.058 0.518311C16.0045 0.540233 16.7541 1.32531 16.7322 2.27183C16.7102 3.21834 15.9252 3.96789 14.9786 3.94595C12.3099 3.88415 9.61119 4.74177 7.38806 6.571C5.25103 8.3294 3.91076 10.6915 3.40731 13.208C3.22157 14.1363 2.31842 14.7384 1.39004 14.5527C0.461658 14.3669 -0.140374 13.4638 0.0453602 12.5354C0.698186 9.27226 2.4402 6.2022 5.20962 3.92348ZM9.76589 9.34284C11.2261 8.14135 13.0055 7.57617 14.7585 7.61676C15.705 7.63868 16.4546 8.42375 16.4326 9.37029C16.4107 10.3168 15.6256 11.0663 14.6791 11.0444C13.7167 11.0221 12.7461 11.3307 11.9443 11.9904C11.1735 12.6246 10.6915 13.4742 10.51 14.3814C10.3242 15.3097 9.42109 15.9117 8.49273 15.726C7.56434 15.5403 6.9623 14.6371 7.14804 13.7088C7.4789 12.0549 8.36267 10.4974 9.76589 9.34284ZM29.4795 8.96206C27.6359 6.46469 24.1714 6.09969 21.8384 8.13242C21.1106 8.76659 20.4034 9.4235 19.7217 10.0606C18.1954 11.4872 17.9952 13.9417 19.3742 15.5714C18.1811 17.38 16.9048 18.6648 15.0685 19.8768C13.4362 18.5043 10.9905 18.7137 9.56198 20.2177C8.88287 20.9327 8.17108 21.6855 7.49529 22.4673C5.50786 24.7665 5.94214 28.1434 8.36857 29.916C8.64594 30.1185 8.97641 30.3674 9.40093 30.7069C12.4168 33.1178 16.7735 33.1201 19.7837 30.6918C21.6297 29.2026 23.5291 27.6122 25.3193 25.8218C27.1097 24.0317 28.7001 22.1322 30.1893 20.2862C32.6176 17.276 32.6153 12.9194 30.2043 9.90348C29.9019 9.52528 29.6704 9.22087 29.4795 8.96206ZM23.7154 10.2866C24.7975 9.34375 26.3342 9.51216 27.1808 10.659C27.3925 10.9457 27.6462 11.2793 27.9726 11.6875C29.5506 13.6616 29.5483 16.5302 27.9655 18.4923C26.4937 20.3169 24.9794 22.1212 23.299 23.8017C21.6187 25.4819 19.8143 26.9962 17.9898 28.468C16.0277 30.0508 13.159 30.0531 11.185 28.4751C10.7256 28.1078 10.362 27.8337 10.054 27.6088C8.94847 26.8013 8.78383 25.3457 9.65679 24.3359C10.2832 23.6111 10.9517 22.9033 11.6336 22.1853C12.0703 21.7256 12.8159 21.7034 13.2435 22.0754C13.4069 22.2175 13.623 22.4126 13.9324 22.7027C14.3965 23.1378 15.0924 23.2136 15.6393 22.8886C18.7005 21.0696 20.6006 19.1466 22.3861 16.1418C22.7111 15.5949 22.6353 14.8991 22.2002 14.435C21.9048 14.1199 21.7076 13.9013 21.5643 13.7364C21.1915 13.3072 21.219 12.572 21.6727 12.148C22.354 11.5112 23.0288 10.8847 23.7154 10.2866Z" fill="#750037"/>
</g>
<defs>
<clipPath id="clip0_530_435">
<rect width="32" height="32" fill="white" transform="translate(0 0.5)"/>
</clipPath>
</defs>
</svg>
