<svg width="32" height="33" viewBox="0 0 32 33" fill="none" xmlns="http://www.w3.org/2000/svg">
<g clip-path="url(#clip0_350_54014)">
<path d="M22.7836 9.20414C24.491 7.71637 26.9918 7.98309 28.3367 9.80515C28.5381 10.078 28.7809 10.3969 29.0951 10.7902C31.0897 13.2851 31.0897 16.8978 29.0842 19.3839C27.6035 21.2192 26.0513 23.0711 24.3159 24.8064C22.5806 26.5417 20.7287 28.094 18.8934 29.5746C16.4073 31.5801 12.7946 31.5801 10.2996 29.5856C9.85768 29.2322 9.51067 28.9708 9.21796 28.757C7.45201 27.467 7.15254 25.0508 8.58273 23.3961C9.23382 22.643 9.92397 21.9126 10.6045 21.1962C11.5445 20.2065 13.1581 20.0964 14.1878 20.9922C14.3686 21.1495 14.5984 21.3572 14.9162 21.6552C17.7701 19.9593 19.4998 18.2086 21.1647 15.4067C20.8613 15.0831 20.6512 14.8505 20.4926 14.6679C19.5985 13.6387 19.7079 12.0299 20.7039 11.099C21.3854 10.462 22.0764 9.8203 22.7836 9.20414Z" fill="#BC244A"/>
<path fill-rule="evenodd" clip-rule="evenodd" d="M5.20962 3.92385C8.09122 1.5528 11.5987 0.438557 15.058 0.518677C16.0045 0.540599 16.7541 1.32568 16.7322 2.27219C16.7102 3.21871 15.9252 3.96826 14.9786 3.94632C12.3099 3.88451 9.61119 4.74213 7.38806 6.57137C5.25103 8.32977 3.91076 10.6918 3.40731 13.2083C3.22157 14.1367 2.31842 14.7387 1.39004 14.553C0.461658 14.3673 -0.140374 13.4641 0.0453602 12.5358C0.698186 9.27262 2.4402 6.20257 5.20962 3.92385ZM9.76589 9.34321C11.2261 8.14172 13.0055 7.57653 14.7585 7.61713C15.705 7.63905 16.4546 8.42412 16.4326 9.37066C16.4107 10.3172 15.6256 11.0667 14.6791 11.0448C13.7167 11.0225 12.7461 11.331 11.9443 11.9907C11.1735 12.625 10.6915 13.4745 10.51 14.3817C10.3242 15.3101 9.42109 15.9121 8.49273 15.7264C7.56434 15.5407 6.9623 14.6375 7.14804 13.7091C7.4789 12.0553 8.36267 10.4978 9.76589 9.34321ZM29.4795 8.96243C27.6359 6.46506 24.1714 6.10005 21.8384 8.13278C21.1106 8.76695 20.4034 9.42387 19.7217 10.061C18.1954 11.4875 17.9952 13.9421 19.3742 15.5718C18.1811 17.3804 16.9048 18.6651 15.0685 19.8771C13.4362 18.5046 10.9905 18.714 9.56198 20.218C8.88287 20.933 8.17108 21.6859 7.49529 22.4677C5.50786 24.7669 5.94214 28.1438 8.36857 29.9164C8.64594 30.1189 8.97641 30.3678 9.40093 30.7072C12.4168 33.1182 16.7735 33.1205 19.7837 30.6921C21.6297 29.203 23.5291 27.6126 25.3193 25.8222C27.1097 24.032 28.7001 22.1326 30.1893 20.2866C32.6176 17.2764 32.6153 12.9198 30.2043 9.90384C29.9019 9.52565 29.6704 9.22124 29.4795 8.96243ZM23.7154 10.2869C24.7975 9.34412 26.3342 9.51253 27.1808 10.6593C27.3925 10.9461 27.6462 11.2797 27.9726 11.6879C29.5506 13.6619 29.5483 16.5306 27.9655 18.4926C26.4937 20.3172 24.9794 22.1216 23.299 23.8021C21.6187 25.4823 19.8143 26.9966 17.9898 28.4684C16.0277 30.0512 13.159 30.0535 11.185 28.4754C10.7256 28.1081 10.362 27.8341 10.054 27.6092C8.94847 26.8016 8.78383 25.3461 9.65679 24.3362C10.2832 23.6114 10.9517 22.9037 11.6336 22.1857C12.0703 21.7259 12.8159 21.7038 13.2435 22.0757C13.4069 22.2179 13.623 22.413 13.9324 22.7031C14.3965 23.1382 15.0924 23.214 15.6393 22.889C18.7005 21.0699 20.6006 19.1469 22.3861 16.1422C22.7111 15.5953 22.6353 14.8994 22.2002 14.4354C21.9048 14.1203 21.7076 13.9016 21.5643 13.7368C21.1915 13.3075 21.219 12.5723 21.6727 12.1484C22.354 11.5116 23.0288 10.8851 23.7154 10.2869Z" fill="#BC244A"/>
</g>
<defs>
<clipPath id="clip0_350_54014">
<rect width="32" height="32" fill="white" transform="translate(0 0.5)"/>
</clipPath>
</defs>
</svg>
