<svg width="32" height="33" viewBox="0 0 32 33" fill="none" xmlns="http://www.w3.org/2000/svg">
<path fill-rule="evenodd" clip-rule="evenodd" d="M15.9831 1.8252C16.7195 1.8252 17.3164 2.42215 17.3164 3.15853V6.42994C18.8171 6.5491 20.2609 6.86785 21.6189 7.35926L23.2979 4.45628C23.6665 3.81883 24.4826 3.60016 25.1207 3.96786C25.7587 4.33556 25.977 5.15039 25.6083 5.78784L24.0545 8.47453C25.2227 9.13073 26.2987 9.92533 27.2584 10.8357L29.3546 8.74193C29.8755 8.22153 30.7205 8.22126 31.2419 8.74133C31.7631 9.26139 31.7634 10.1049 31.2425 10.6253L29.0351 12.8302C30.1419 14.3071 30.9896 15.9806 31.5122 17.7893C31.6959 18.4247 31.6961 19.0994 31.513 19.7351C29.6077 26.3488 23.3561 31.1585 15.982 31.1585C8.61214 31.1585 2.36361 26.3543 0.454325 19.7466C0.270694 19.1111 0.270428 18.4364 0.453558 17.8007C0.974693 15.9918 1.82096 14.3178 2.9264 12.8403L0.720513 10.6245C0.200983 10.1027 0.203613 9.25919 0.726386 8.74059C1.24916 8.22193 2.09411 8.22459 2.61365 8.74646L4.70189 10.8441C5.66061 9.93319 6.73561 9.13806 7.90281 8.48113L6.35569 5.78287C5.98941 5.14405 6.21081 4.33005 6.85021 3.96473C7.48954 3.59941 8.30481 3.82113 8.67107 4.45995L10.3363 7.36426C11.6975 6.87033 13.145 6.54993 14.6497 6.43017V3.15853C14.6497 2.42215 15.2467 1.8252 15.9831 1.8252ZM15.9831 9.04486C15.9671 9.04486 15.9513 9.04459 15.9355 9.04406C13.9769 9.05073 12.1202 9.46013 10.4476 10.1892C10.4405 10.1934 10.4334 10.1975 10.4262 10.2017C10.3419 10.2498 10.2546 10.2877 10.1657 10.3159C8.46961 11.1014 6.97254 12.2191 5.76342 13.579C5.73663 13.6126 5.70798 13.6452 5.67747 13.6767C4.45559 15.0785 3.53677 16.7313 3.01601 18.5389C2.97203 18.6916 2.97209 18.8537 3.01619 19.0063C4.59012 24.4535 9.77927 28.4919 15.982 28.4919C22.1883 28.4919 27.3799 24.4488 28.9505 18.9969C28.9945 18.8442 28.9945 18.6821 28.9503 18.5295C28.4347 16.7449 27.531 15.1115 26.3307 13.7217C26.3178 13.7098 26.3051 13.6976 26.2925 13.6851C26.2386 13.6313 26.1902 13.574 26.1475 13.514C24.931 12.1639 23.4289 11.0567 21.7297 10.282C21.6742 10.2615 21.6195 10.2371 21.5659 10.2086C19.8809 9.46706 18.0078 9.05046 16.0309 9.04399C16.015 9.04459 15.9991 9.04486 15.9831 9.04486ZM8.79947 18.767C8.79947 14.8055 12.0162 11.596 15.9818 11.596C19.9474 11.596 23.1642 14.8055 23.1642 18.767C23.1642 22.7285 19.9474 25.9379 15.9818 25.9379C12.0162 25.9379 8.79947 22.7285 8.79947 18.767Z" fill="#F7F7F7"/>
</svg>
