<svg width="64" height="65" viewBox="0 0 64 65" fill="none" xmlns="http://www.w3.org/2000/svg">
<mask id="mask0_624_202065" style="mask-type:alpha" maskUnits="userSpaceOnUse" x="0" y="0" width="64" height="65">
<circle cx="32" cy="32.5" r="32" fill="#D9D9D9"/>
</mask>
<g mask="url(#mask0_624_202065)">
<path d="M-3.53333 15.66C-5.00889 15.66 -6.18667 15.34 -7.06667 14.7C-7.93778 14.0511 -8.41333 13.1489 -8.49333 11.9933H-5.93333C-5.83556 12.5533 -5.57778 12.9711 -5.16 13.2467C-4.74222 13.5222 -4.16889 13.66 -3.44 13.66C-2.78222 13.66 -2.29333 13.5622 -1.97333 13.3667C-1.64444 13.1622 -1.48 12.86 -1.48 12.46C-1.48 12.1489 -1.58222 11.9089 -1.78667 11.74C-1.98222 11.5622 -2.31111 11.4244 -2.77333 11.3267L-5.05333 10.8467C-6.08444 10.6244 -6.84889 10.2644 -7.34667 9.76667C-7.84444 9.26889 -8.09333 8.61556 -8.09333 7.80667C-8.09333 6.78444 -7.70667 5.98444 -6.93333 5.40667C-6.15111 4.82889 -5.08889 4.54 -3.74667 4.54C-2.39556 4.54 -1.30667 4.84222 -0.48 5.44667C0.346667 6.05111 0.804445 6.89556 0.893333 7.98H-1.66667C-1.91556 6.96667 -2.65778 6.46 -3.89333 6.46C-4.43556 6.46 -4.86222 6.55778 -5.17333 6.75333C-5.48444 6.94 -5.64 7.21111 -5.64 7.56667C-5.64 8.1 -5.25778 8.44667 -4.49333 8.60667L-2.10667 9.1C-1.03111 9.32222 -0.248889 9.68667 0.24 10.1933C0.728889 10.7 0.973333 11.3889 0.973333 12.26C0.973333 13.3356 0.582222 14.1711 -0.2 14.7667C-0.973333 15.3622 -2.08444 15.66 -3.53333 15.66ZM6.01958 15.66C5.18403 15.66 4.44625 15.4911 3.80625 15.1533C3.17514 14.8067 2.67736 14.3222 2.31292 13.7C1.95736 13.0778 1.77958 12.3444 1.77958 11.5C1.77958 10.6556 1.95736 9.92222 2.31292 9.3C2.66847 8.67778 3.16625 8.19778 3.80625 7.86C4.44625 7.51333 5.18403 7.34 6.01958 7.34C7.10403 7.34 7.99292 7.61556 8.68625 8.16667C9.38847 8.71778 9.81958 9.46444 9.97958 10.4067H7.52625C7.41958 10.1133 7.23736 9.88667 6.97958 9.72667C6.73069 9.55778 6.41069 9.47333 6.01958 9.47333C5.49514 9.47333 5.06403 9.65111 4.72625 10.0067C4.39736 10.3533 4.23292 10.8511 4.23292 11.5C4.23292 12.1489 4.40181 12.6511 4.73958 13.0067C5.07736 13.3533 5.50403 13.5267 6.01958 13.5267C6.86403 13.5267 7.37958 13.1756 7.56625 12.4733H10.0196C9.87736 13.46 9.45958 14.2378 8.76625 14.8067C8.07292 15.3756 7.15736 15.66 6.01958 15.66ZM11.6515 15.5V9.9H10.4515V7.5H12.9048V9.1H13.4648C13.6692 8.52222 14.0026 8.09556 14.4648 7.82C14.927 7.53556 15.4426 7.39333 16.0115 7.39333H16.6915V9.52667H15.9048C15.247 9.52667 14.7715 9.70889 14.4781 10.0733C14.1937 10.4378 14.0515 10.9133 14.0515 11.5V15.5H11.6515ZM21.356 15.66C20.476 15.66 19.7072 15.4911 19.0494 15.1533C18.3916 14.8067 17.8805 14.3222 17.516 13.7C17.1605 13.0689 16.9827 12.3311 16.9827 11.4867C16.9827 10.6422 17.1605 9.90889 17.516 9.28667C17.8805 8.66444 18.3916 8.18444 19.0494 7.84667C19.7072 7.50889 20.4805 7.34 21.3694 7.34C22.2583 7.34 23.0227 7.50889 23.6627 7.84667C24.3116 8.18444 24.8138 8.66444 25.1694 9.28667C25.5249 9.90889 25.7027 10.6467 25.7027 11.5C25.7027 12.3444 25.5249 13.0822 25.1694 13.7133C24.8138 14.3356 24.3116 14.8156 23.6627 15.1533C23.0138 15.4911 22.2449 15.66 21.356 15.66ZM21.356 13.5267C21.9694 13.5267 22.436 13.3444 22.756 12.98C23.0849 12.6067 23.2494 12.1089 23.2494 11.4867C23.2494 10.8644 23.0849 10.3756 22.756 10.02C22.436 9.65556 21.9694 9.47333 21.356 9.47333C20.7338 9.47333 20.2583 9.65556 19.9294 10.02C19.6005 10.3756 19.436 10.8644 19.436 11.4867C19.436 12.1089 19.6005 12.6067 19.9294 12.98C20.2583 13.3444 20.7338 13.5267 21.356 13.5267ZM26.9181 15.5V4.3H29.3715V15.5H26.9181ZM31.0588 15.5V4.3H33.5121V15.5H31.0588ZM39.5604 15.5V9.9H38.3604V7.5H40.8138V8.83333H41.3737C41.676 8.36222 42.0538 7.99778 42.5071 7.74C42.9693 7.48222 43.5426 7.35333 44.2271 7.35333C44.876 7.35333 45.4271 7.46444 45.8804 7.68667C46.3426 7.9 46.716 8.21556 47.0004 8.63333H47.0538C47.6849 7.78 48.5915 7.35333 49.7738 7.35333C50.8315 7.35333 51.6671 7.66 52.2804 8.27333C52.9026 8.88667 53.2138 9.70889 53.2138 10.74V15.5H50.7604V11.22C50.7604 10.1 50.236 9.54 49.1871 9.54C48.1382 9.54 47.6138 10.1 47.6138 11.22V15.5H45.1604V11.22C45.1604 10.1 44.6271 9.54 43.5604 9.54C43.0449 9.54 42.6582 9.67778 42.4004 9.95333C42.1426 10.2289 42.0138 10.6511 42.0138 11.22V15.5H39.5604ZM58.6998 15.66C57.8198 15.66 57.0509 15.4911 56.3931 15.1533C55.7353 14.8067 55.2242 14.3222 54.8598 13.7C54.5042 13.0689 54.3265 12.3311 54.3265 11.4867C54.3265 10.6422 54.5042 9.90889 54.8598 9.28667C55.2242 8.66444 55.7353 8.18444 56.3931 7.84667C57.0509 7.50889 57.8242 7.34 58.7131 7.34C59.602 7.34 60.3665 7.50889 61.0065 7.84667C61.6553 8.18444 62.1576 8.66444 62.5131 9.28667C62.8687 9.90889 63.0465 10.6467 63.0465 11.5C63.0465 12.3444 62.8687 13.0822 62.5131 13.7133C62.1576 14.3356 61.6553 14.8156 61.0065 15.1533C60.3576 15.4911 59.5887 15.66 58.6998 15.66ZM58.6998 13.5267C59.3131 13.5267 59.7798 13.3444 60.0998 12.98C60.4287 12.6067 60.5931 12.1089 60.5931 11.4867C60.5931 10.8644 60.4287 10.3756 60.0998 10.02C59.7798 9.65556 59.3131 9.47333 58.6998 9.47333C58.0776 9.47333 57.602 9.65556 57.2731 10.02C56.9442 10.3756 56.7798 10.8644 56.7798 11.4867C56.7798 12.1089 56.9442 12.6067 57.2731 12.98C57.602 13.3444 58.0776 13.5267 58.6998 13.5267ZM64.9952 15.5V9.9H63.7952V7.5H66.2485V9.1H66.8085C67.013 8.52222 67.3463 8.09556 67.8085 7.82C68.2708 7.53556 68.7863 7.39333 69.3552 7.39333H70.0352V9.52667H69.2485C68.5908 9.52667 68.1152 9.70889 67.8219 10.0733C67.5374 10.4378 67.3952 10.9133 67.3952 11.5V15.5H64.9952ZM74.6465 15.66C73.7665 15.66 73.002 15.4911 72.3531 15.1533C71.7042 14.8067 71.202 14.3222 70.8465 13.7C70.4998 13.0689 70.3265 12.3267 70.3265 11.4733C70.3265 10.62 70.4953 9.88667 70.8331 9.27333C71.1798 8.65111 71.6687 8.17556 72.2998 7.84667C72.9398 7.50889 73.6909 7.34 74.5531 7.34C75.4065 7.34 76.1398 7.50444 76.7531 7.83333C77.3665 8.15333 77.8331 8.61556 78.1531 9.22C78.482 9.82444 78.6465 10.5489 78.6465 11.3933V12.18H72.6865C72.7842 12.6956 72.9976 13.0867 73.3265 13.3533C73.6553 13.6111 74.0909 13.74 74.6331 13.74C75.0687 13.74 75.4065 13.6733 75.6465 13.54C75.8953 13.3978 76.0731 13.1756 76.1798 12.8733H78.6331C78.4642 13.7444 78.0287 14.4289 77.3265 14.9267C76.6242 15.4156 75.7309 15.66 74.6465 15.66ZM72.7265 10.58H76.2998C76.2198 10.1356 76.0331 9.80667 75.7398 9.59333C75.4553 9.37111 75.0642 9.26 74.5665 9.26C74.0776 9.26 73.6776 9.37111 73.3665 9.59333C73.0553 9.81556 72.842 10.1444 72.7265 10.58Z" fill="#FD3567"/>
<mask id="path-3-outside-1_624_202065" maskUnits="userSpaceOnUse" x="3" y="20.5" width="62" height="12" fill="black">
<rect fill="white" x="3" y="20.5" width="62" height="12"/>
<path d="M4 31.5V21.375H8.9125C10.0542 21.375 10.9458 21.6667 11.5875 22.25C12.2292 22.825 12.55 23.6208 12.55 24.6375C12.55 25.6458 12.2292 26.4417 11.5875 27.025C10.9458 27.6083 10.0542 27.9 8.9125 27.9H6.35V31.5H4ZM6.35 25.85H8.7625C9.22917 25.85 9.58333 25.7458 9.825 25.5375C10.075 25.3208 10.2 25.0208 10.2 24.6375C10.2 24.2458 10.075 23.9458 9.825 23.7375C9.58333 23.5292 9.22917 23.425 8.7625 23.425H6.35V25.85ZM13.6605 31.5V24H15.9605V31.5H13.6605ZM14.8105 23.3625C14.4689 23.3625 14.1772 23.2417 13.9355 23C13.6939 22.7583 13.573 22.4667 13.573 22.125C13.573 21.7833 13.6939 21.4917 13.9355 21.25C14.1772 21.0083 14.4689 20.8875 14.8105 20.8875C15.1522 20.8875 15.4439 21.0083 15.6855 21.25C15.9272 21.4917 16.048 21.7833 16.048 22.125C16.048 22.4667 15.9272 22.7583 15.6855 23C15.4439 23.2417 15.1522 23.3625 14.8105 23.3625ZM21.0799 31.65C20.2965 31.65 19.6049 31.4917 19.0049 31.175C18.4132 30.85 17.9465 30.3958 17.6049 29.8125C17.2715 29.2292 17.1049 28.5417 17.1049 27.75C17.1049 26.9583 17.2715 26.2708 17.6049 25.6875C17.9382 25.1042 18.4049 24.6542 19.0049 24.3375C19.6049 24.0125 20.2965 23.85 21.0799 23.85C22.0965 23.85 22.9299 24.1083 23.5799 24.625C24.2382 25.1417 24.6424 25.8417 24.7924 26.725H22.4924C22.3924 26.45 22.2215 26.2375 21.9799 26.0875C21.7465 25.9292 21.4465 25.85 21.0799 25.85C20.5882 25.85 20.184 26.0167 19.8674 26.35C19.559 26.675 19.4049 27.1417 19.4049 27.75C19.4049 28.3583 19.5632 28.8292 19.8799 29.1625C20.1965 29.4875 20.5965 29.65 21.0799 29.65C21.8715 29.65 22.3549 29.3208 22.5299 28.6625H24.8299C24.6965 29.5875 24.3049 30.3167 23.6549 30.85C23.0049 31.3833 22.1465 31.65 21.0799 31.65ZM25.6348 31.5V21H27.9348V26.4625H27.9848L30.7098 24H33.4348L30.3348 26.8L33.6598 31.5H30.9848L28.7098 28.2L27.9348 28.825V31.5H25.6348ZM41.7127 31.65C40.8877 31.65 40.1669 31.4917 39.5502 31.175C38.9335 30.85 38.4544 30.3958 38.1127 29.8125C37.7794 29.2208 37.6127 28.5292 37.6127 27.7375C37.6127 26.9458 37.7794 26.2583 38.1127 25.675C38.4544 25.0917 38.9335 24.6417 39.5502 24.325C40.1669 24.0083 40.8919 23.85 41.7252 23.85C42.5585 23.85 43.2752 24.0083 43.8752 24.325C44.4835 24.6417 44.9544 25.0917 45.2877 25.675C45.621 26.2583 45.7877 26.95 45.7877 27.75C45.7877 28.5417 45.621 29.2333 45.2877 29.825C44.9544 30.4083 44.4835 30.8583 43.8752 31.175C43.2669 31.4917 42.546 31.65 41.7127 31.65ZM41.7127 29.65C42.2877 29.65 42.7252 29.4792 43.0252 29.1375C43.3335 28.7875 43.4877 28.3208 43.4877 27.7375C43.4877 27.1542 43.3335 26.6958 43.0252 26.3625C42.7252 26.0208 42.2877 25.85 41.7127 25.85C41.1294 25.85 40.6835 26.0208 40.3752 26.3625C40.0669 26.6958 39.9127 27.1542 39.9127 27.7375C39.9127 28.3208 40.0669 28.7875 40.3752 29.1375C40.6835 29.4792 41.1294 29.65 41.7127 29.65ZM47.5146 31.5V26.25H46.3896V24H48.6896V25.25H49.2146C49.5146 24.8167 49.8813 24.4792 50.3146 24.2375C50.7563 23.9875 51.3188 23.8625 52.0021 23.8625C53.0688 23.8625 53.8855 24.15 54.4521 24.725C55.0271 25.3 55.3146 26.0708 55.3146 27.0375V31.5H53.0146V27.4875C53.0146 26.9708 52.8771 26.5792 52.6021 26.3125C52.3355 26.0458 51.9396 25.9125 51.4146 25.9125C50.8896 25.9125 50.4896 26.0458 50.2146 26.3125C49.948 26.5792 49.8146 26.9708 49.8146 27.4875V31.5H47.5146ZM60.4127 31.65C59.5877 31.65 58.871 31.4917 58.2627 31.175C57.6544 30.85 57.1835 30.3958 56.8502 29.8125C56.5252 29.2208 56.3627 28.525 56.3627 27.725C56.3627 26.925 56.521 26.2375 56.8377 25.6625C57.1627 25.0792 57.621 24.6333 58.2127 24.325C58.8127 24.0083 59.5169 23.85 60.3252 23.85C61.1252 23.85 61.8127 24.0042 62.3877 24.3125C62.9627 24.6125 63.4002 25.0458 63.7002 25.6125C64.0085 26.1792 64.1627 26.8583 64.1627 27.65V28.3875H58.5752C58.6669 28.8708 58.8669 29.2375 59.1752 29.4875C59.4835 29.7292 59.8919 29.85 60.4002 29.85C60.8085 29.85 61.1252 29.7875 61.3502 29.6625C61.5835 29.5292 61.7502 29.3208 61.8502 29.0375H64.1502C63.9919 29.8542 63.5835 30.4958 62.9252 30.9625C62.2669 31.4208 61.4294 31.65 60.4127 31.65ZM58.6127 26.8875H61.9627C61.8877 26.4708 61.7127 26.1625 61.4377 25.9625C61.171 25.7542 60.8044 25.65 60.3377 25.65C59.8794 25.65 59.5044 25.7542 59.2127 25.9625C58.921 26.1708 58.721 26.4792 58.6127 26.8875Z"/>
</mask>
<path d="M4 31.5H3.68627V31.8137H4V31.5ZM4 21.375V21.0613H3.68627V21.375H4ZM11.5875 22.25L11.3765 22.4821L11.3781 22.4836L11.5875 22.25ZM6.35 27.9V27.5863H6.03627V27.9H6.35ZM6.35 31.5V31.8137H6.66373V31.5H6.35ZM6.35 25.85H6.03627V26.1637H6.35V25.85ZM9.825 25.5375L10.0298 25.7751L10.0305 25.7746L9.825 25.5375ZM9.825 23.7375L9.62013 23.9752L9.62416 23.9785L9.825 23.7375ZM6.35 23.425V23.1113H6.03627V23.425H6.35ZM4.31373 31.5V21.375H3.68627V31.5H4.31373ZM4 21.6887H8.9125V21.0613H4V21.6887ZM8.9125 21.6887C10.0014 21.6887 10.8089 21.9661 11.3765 22.4821L11.7985 22.0179C11.0828 21.3672 10.1069 21.0613 8.9125 21.0613V21.6887ZM11.3781 22.4836C11.9413 22.9883 12.2363 23.6924 12.2363 24.6375H12.8637C12.8637 23.5492 12.517 22.6617 11.7969 22.0164L11.3781 22.4836ZM12.2363 24.6375C12.2363 25.5732 11.9419 26.2788 11.3765 26.7929L11.7985 27.2571C12.5164 26.6045 12.8637 25.7184 12.8637 24.6375H12.2363ZM11.3765 26.7929C10.8089 27.3089 10.0014 27.5863 8.9125 27.5863V28.2137C10.1069 28.2137 11.0828 27.9078 11.7985 27.2571L11.3765 26.7929ZM8.9125 27.5863H6.35V28.2137H8.9125V27.5863ZM6.03627 27.9V31.5H6.66373V27.9H6.03627ZM6.35 31.1863H4V31.8137H6.35V31.1863ZM6.35 26.1637H8.7625V25.5363H6.35V26.1637ZM8.7625 26.1637C9.27038 26.1637 9.7099 26.0509 10.0298 25.7751L9.62016 25.2999C9.45677 25.4407 9.18795 25.5363 8.7625 25.5363V26.1637ZM10.0305 25.7746C10.3605 25.4886 10.5137 25.0958 10.5137 24.6375H9.88627C9.88627 24.9458 9.78954 25.1531 9.61953 25.3004L10.0305 25.7746ZM10.5137 24.6375C10.5137 24.1736 10.362 23.7766 10.0258 23.4965L9.62416 23.9785C9.788 24.115 9.88627 24.3181 9.88627 24.6375H10.5137ZM10.0298 23.4999C9.7099 23.2241 9.27038 23.1113 8.7625 23.1113V23.7387C9.18795 23.7387 9.45677 23.8343 9.62016 23.9751L10.0298 23.4999ZM8.7625 23.1113H6.35V23.7387H8.7625V23.1113ZM6.03627 23.425V25.85H6.66373V23.425H6.03627ZM13.6605 31.5H13.3468V31.8137H13.6605V31.5ZM13.6605 24V23.6863H13.3468V24H13.6605ZM15.9605 24H16.2743V23.6863H15.9605V24ZM15.9605 31.5V31.8137H16.2743V31.5H15.9605ZM13.9355 23L13.7137 23.2218L13.7137 23.2218L13.9355 23ZM13.9355 21.25L14.1574 21.4718L14.1574 21.4718L13.9355 21.25ZM15.6855 21.25L15.4637 21.4718L15.4637 21.4718L15.6855 21.25ZM15.6855 23L15.9074 23.2218L15.9074 23.2218L15.6855 23ZM13.9743 31.5V24H13.3468V31.5H13.9743ZM13.6605 24.3137H15.9605V23.6863H13.6605V24.3137ZM15.6468 24V31.5H16.2743V24H15.6468ZM15.9605 31.1863H13.6605V31.8137H15.9605V31.1863ZM14.8105 23.0488C14.5521 23.0488 14.3402 22.961 14.1574 22.7782L13.7137 23.2218C14.0142 23.5223 14.3856 23.6762 14.8105 23.6762V23.0488ZM14.1574 22.7782C13.9745 22.5953 13.8868 22.3834 13.8868 22.125H13.2593C13.2593 22.5499 13.4132 22.9214 13.7137 23.2218L14.1574 22.7782ZM13.8868 22.125C13.8868 21.8666 13.9745 21.6547 14.1574 21.4718L13.7137 21.0282C13.4132 21.3286 13.2593 21.7001 13.2593 22.125H13.8868ZM14.1574 21.4718C14.3402 21.289 14.5521 21.2012 14.8105 21.2012V20.5738C14.3856 20.5738 14.0142 20.7277 13.7137 21.0282L14.1574 21.4718ZM14.8105 21.2012C15.069 21.2012 15.2809 21.289 15.4637 21.4718L15.9074 21.0282C15.6069 20.7277 15.2354 20.5738 14.8105 20.5738V21.2012ZM15.4637 21.4718C15.6466 21.6547 15.7343 21.8666 15.7343 22.125H16.3618C16.3618 21.7001 16.2079 21.3286 15.9074 21.0282L15.4637 21.4718ZM15.7343 22.125C15.7343 22.3834 15.6466 22.5953 15.4637 22.7782L15.9074 23.2218C16.2079 22.9214 16.3618 22.5499 16.3618 22.125H15.7343ZM15.4637 22.7782C15.2809 22.961 15.069 23.0488 14.8105 23.0488V23.6762C15.2354 23.6762 15.6069 23.5223 15.9074 23.2218L15.4637 22.7782ZM19.0049 31.175L18.8538 31.45L18.8584 31.4525L19.0049 31.175ZM17.6049 29.8125L17.3325 29.9682L17.3342 29.9711L17.6049 29.8125ZM19.0049 24.3375L19.1513 24.615L19.1543 24.6134L19.0049 24.3375ZM23.5799 24.625L23.3847 24.8706L23.3862 24.8718L23.5799 24.625ZM24.7924 26.725V27.0387H25.1639L25.1017 26.6725L24.7924 26.725ZM22.4924 26.725L22.1975 26.8322L22.2726 27.0387H22.4924V26.725ZM21.9799 26.0875L21.8036 26.3473L21.8144 26.3541L21.9799 26.0875ZM19.8674 26.35L19.6399 26.1339L19.6398 26.1341L19.8674 26.35ZM19.8799 29.1625L19.6524 29.3786L19.6552 29.3814L19.8799 29.1625ZM22.5299 28.6625V28.3488H22.2887L22.2267 28.5819L22.5299 28.6625ZM24.8299 28.6625L25.1404 28.7073L25.1921 28.3488H24.8299V28.6625ZM23.6549 30.85L23.4559 30.6075L23.4559 30.6075L23.6549 30.85ZM21.0799 31.3363C20.3397 31.3363 19.6997 31.1869 19.1513 30.8975L18.8584 31.4525C19.5101 31.7964 20.2534 31.9637 21.0799 31.9637V31.3363ZM19.1559 30.9C18.614 30.6024 18.1887 30.1884 17.8756 29.6539L17.3342 29.9711C17.7044 30.6032 18.2124 31.0976 18.8538 31.45L19.1559 30.9ZM17.8773 29.6568C17.5755 29.1288 17.4186 28.4969 17.4186 27.75H16.7912C16.7912 28.5865 16.9676 29.3296 17.3325 29.9682L17.8773 29.6568ZM17.4186 27.75C17.4186 27.0031 17.5755 26.3712 17.8773 25.8432L17.3325 25.5318C16.9676 26.1704 16.7912 26.9135 16.7912 27.75H17.4186ZM17.8773 25.8432C18.1807 25.3121 18.6035 24.9041 19.1513 24.615L18.8584 24.06C18.2063 24.4042 17.6957 24.8962 17.3325 25.5318L17.8773 25.8432ZM19.1543 24.6134C19.702 24.3167 20.3409 24.1637 21.0799 24.1637V23.5363C20.2522 23.5363 19.5077 23.7083 18.8555 24.0616L19.1543 24.6134ZM21.0799 24.1637C22.042 24.1637 22.8018 24.4073 23.3847 24.8706L23.7751 24.3794C23.058 23.8094 22.1511 23.5363 21.0799 23.5363V24.1637ZM23.3862 24.8718C23.9786 25.3367 24.3451 25.9651 24.4831 26.7775L25.1017 26.6725C24.9396 25.7182 24.4978 24.9466 23.7736 24.3782L23.3862 24.8718ZM24.7924 26.4113H22.4924V27.0387H24.7924V26.4113ZM22.7872 26.6178C22.6639 26.2787 22.4486 26.0092 22.1453 25.8209L21.8144 26.3541C21.9945 26.4658 22.1208 26.6213 22.1975 26.8322L22.7872 26.6178ZM22.156 25.8279C21.8572 25.6251 21.4907 25.5363 21.0799 25.5363V26.1637C21.4024 26.1637 21.6359 26.2332 21.8037 26.3471L22.156 25.8279ZM21.0799 25.5363C20.5089 25.5363 20.0203 25.7336 19.6399 26.1339L20.0948 26.5661C20.3478 26.2998 20.6676 26.1637 21.0799 26.1637V25.5363ZM19.6398 26.1341C19.2588 26.5356 19.0912 27.0906 19.0912 27.75H19.7186C19.7186 27.1927 19.8593 26.8144 20.095 26.5659L19.6398 26.1341ZM19.0912 27.75C19.0912 28.412 19.2644 28.9701 19.6524 29.3786L20.1073 28.9464C19.8621 28.6882 19.7186 28.3046 19.7186 27.75H19.0912ZM19.6552 29.3814C20.0351 29.7713 20.5181 29.9637 21.0799 29.9637V29.3363C20.675 29.3363 20.358 29.2037 20.1046 28.9436L19.6552 29.3814ZM21.0799 29.9637C21.5169 29.9637 21.9035 29.873 22.2127 29.6624C22.5268 29.4486 22.7296 29.1324 22.8331 28.7431L22.2267 28.5819C22.1552 28.8509 22.0288 29.0285 21.8595 29.1438C21.6854 29.2624 21.4345 29.3363 21.0799 29.3363V29.9637ZM22.5299 28.9762H24.8299V28.3488H22.5299V28.9762ZM24.5194 28.6177C24.3959 29.4745 24.0384 30.1295 23.4559 30.6075L23.8539 31.0925C24.5714 30.5038 24.9972 29.7005 25.1404 28.7073L24.5194 28.6177ZM23.4559 30.6075C22.8757 31.0835 22.0939 31.3363 21.0799 31.3363V31.9637C22.1992 31.9637 23.1341 31.6831 23.8539 31.0925L23.4559 30.6075ZM25.6348 31.5H25.321V31.8137H25.6348V31.5ZM25.6348 21V20.6863H25.321V21H25.6348ZM27.9348 21H28.2485V20.6863H27.9348V21ZM27.9348 26.4625H27.621V26.7762H27.9348V26.4625ZM27.9848 26.4625V26.7762H28.1055L28.1951 26.6953L27.9848 26.4625ZM30.7098 24V23.6863H30.589L30.4994 23.7672L30.7098 24ZM33.4348 24L33.6451 24.2328L34.2502 23.6863H33.4348V24ZM30.3348 26.8L30.1245 26.5672L29.9178 26.7538L30.0787 26.9812L30.3348 26.8ZM33.6598 31.5V31.8137H34.266L33.9159 31.3188L33.6598 31.5ZM30.9848 31.5L30.7265 31.6781L30.82 31.8137H30.9848V31.5ZM28.7098 28.2L28.9681 28.0219L28.7761 27.7435L28.5128 27.9558L28.7098 28.2ZM27.9348 28.825L27.7378 28.5808L27.621 28.675V28.825H27.9348ZM27.9348 31.5V31.8137H28.2485V31.5H27.9348ZM25.9485 31.5V21H25.321V31.5H25.9485ZM25.6348 21.3137H27.9348V20.6863H25.6348V21.3137ZM27.621 21V26.4625H28.2485V21H27.621ZM27.9348 26.7762H27.9848V26.1488H27.9348V26.7762ZM28.1951 26.6953L30.9201 24.2328L30.4994 23.7672L27.7744 26.2297L28.1951 26.6953ZM30.7098 24.3137H33.4348V23.6863H30.7098V24.3137ZM33.2245 23.7672L30.1245 26.5672L30.5451 27.0328L33.6451 24.2328L33.2245 23.7672ZM30.0787 26.9812L33.4037 31.6812L33.9159 31.3188L30.5909 26.6188L30.0787 26.9812ZM33.6598 31.1863H30.9848V31.8137H33.6598V31.1863ZM31.2431 31.3219L28.9681 28.0219L28.4515 28.3781L30.7265 31.6781L31.2431 31.3219ZM28.5128 27.9558L27.7378 28.5808L28.1317 29.0692L28.9067 28.4442L28.5128 27.9558ZM27.621 28.825V31.5H28.2485V28.825H27.621ZM27.9348 31.1863H25.6348V31.8137H27.9348V31.1863ZM39.5502 31.175L39.4039 31.4526L39.4069 31.4541L39.5502 31.175ZM38.1127 29.8125L37.8393 29.9665L37.842 29.9711L38.1127 29.8125ZM38.1127 25.675L37.842 25.5164L37.8403 25.5193L38.1127 25.675ZM39.5502 24.325L39.4069 24.0459L39.4069 24.0459L39.5502 24.325ZM43.8752 24.325L43.7288 24.6025L43.7303 24.6033L43.8752 24.325ZM45.2877 25.675L45.5601 25.5193L45.5601 25.5193L45.2877 25.675ZM45.2877 29.825L45.5601 29.9807L45.561 29.979L45.2877 29.825ZM43.8752 31.175L44.0201 31.4533L44.0201 31.4533L43.8752 31.175ZM43.0252 29.1375L42.7898 28.9301L42.7894 28.9305L43.0252 29.1375ZM43.0252 26.3625L42.7894 26.5696L42.7949 26.5755L43.0252 26.3625ZM40.3752 26.3625L40.6055 26.5755L40.6081 26.5727L40.3752 26.3625ZM40.3752 29.1375L40.1398 29.3449L40.1423 29.3477L40.3752 29.1375ZM41.7127 31.3363C40.9281 31.3363 40.2582 31.1859 39.6935 30.8959L39.4069 31.4541C40.0756 31.7975 40.8473 31.9637 41.7127 31.9637V31.3363ZM39.6965 30.8975C39.1299 30.5988 38.6945 30.1852 38.3834 29.6539L37.842 29.9711C38.2142 30.6065 38.7372 31.1012 39.4039 31.4525L39.6965 30.8975ZM38.386 29.6585C38.0833 29.1211 37.9264 28.4842 37.9264 27.7375H37.299C37.299 28.5741 37.4755 29.3205 37.8394 29.9665L38.386 29.6585ZM37.9264 27.7375C37.9264 26.9906 38.0833 26.3587 38.3851 25.8307L37.8403 25.5193C37.4754 26.1579 37.299 26.901 37.299 27.7375H37.9264ZM38.3834 25.8336C38.6941 25.3031 39.1285 24.8942 39.6935 24.6041L39.4069 24.0459C38.7386 24.3891 38.2146 24.8803 37.842 25.5164L38.3834 25.8336ZM39.6935 24.6041C40.2577 24.3143 40.9317 24.1637 41.7252 24.1637V23.5363C40.852 23.5363 40.076 23.7023 39.4069 24.0459L39.6935 24.6041ZM41.7252 24.1637C42.519 24.1637 43.1831 24.3145 43.7288 24.6025L44.0216 24.0475C43.3673 23.7022 42.5981 23.5363 41.7252 23.5363V24.1637ZM43.7303 24.6033C44.2865 24.8928 44.7125 25.3007 45.0153 25.8307L45.5601 25.5193C45.1962 24.8826 44.6806 24.3906 44.0201 24.0467L43.7303 24.6033ZM45.0153 25.8307C45.3168 26.3583 45.474 26.9942 45.474 27.75H46.1014C46.1014 26.9058 45.9253 26.1584 45.5601 25.5193L45.0153 25.8307ZM45.474 27.75C45.474 28.4967 45.3171 29.1336 45.0144 29.671L45.561 29.979C45.9249 29.333 46.1014 28.5866 46.1014 27.75H45.474ZM45.0153 29.6693C44.7125 30.1993 44.2865 30.6072 43.7303 30.8967L44.0201 31.4533C44.6806 31.1094 45.1962 30.6174 45.5601 29.9807L45.0153 29.6693ZM43.7303 30.8967C43.1754 31.1856 42.5063 31.3363 41.7127 31.3363V31.9637C42.5857 31.9637 43.3584 31.7977 44.0201 31.4533L43.7303 30.8967ZM41.7127 29.9637C42.3523 29.9637 42.8863 29.7712 43.2609 29.3445L42.7894 28.9305C42.5641 29.1872 42.2231 29.3363 41.7127 29.3363V29.9637ZM43.2606 29.3449C43.6311 28.9243 43.8014 28.3774 43.8014 27.7375H43.174C43.174 28.2643 43.0359 28.6507 42.7898 28.9301L43.2606 29.3449ZM43.8014 27.7375C43.8014 27.0984 43.6314 26.5559 43.2555 26.1495L42.7949 26.5755C43.0357 26.8358 43.174 27.2099 43.174 27.7375H43.8014ZM43.2609 26.1555C42.8863 25.7288 42.3523 25.5363 41.7127 25.5363V26.1637C42.2231 26.1637 42.5641 26.3128 42.7894 26.5695L43.2609 26.1555ZM41.7127 25.5363C41.066 25.5363 40.5252 25.728 40.1423 26.1523L40.6081 26.5727C40.8418 26.3137 41.1928 26.1637 41.7127 26.1637V25.5363ZM40.1449 26.1495C39.769 26.5559 39.599 27.0984 39.599 27.7375H40.2264C40.2264 27.2099 40.3647 26.8358 40.6055 26.5755L40.1449 26.1495ZM39.599 27.7375C39.599 28.3774 39.7693 28.9243 40.1398 29.3449L40.6106 28.9301C40.3645 28.6507 40.2264 28.2643 40.2264 27.7375H39.599ZM40.1423 29.3477C40.5252 29.772 41.066 29.9637 41.7127 29.9637V29.3363C41.1928 29.3363 40.8418 29.1863 40.6081 28.9273L40.1423 29.3477ZM47.5146 31.5H47.2009V31.8137H47.5146V31.5ZM47.5146 26.25H47.8284V25.9363H47.5146V26.25ZM46.3896 26.25H46.0759V26.5637H46.3896V26.25ZM46.3896 24V23.6863H46.0759V24H46.3896ZM48.6896 24H49.0034V23.6863H48.6896V24ZM48.6896 25.25H48.3759V25.5637H48.6896V25.25ZM49.2146 25.25V25.5637H49.379L49.4726 25.4286L49.2146 25.25ZM50.3146 24.2375L50.4675 24.5115L50.4692 24.5105L50.3146 24.2375ZM54.4521 24.725L54.2287 24.9452L54.2303 24.9468L54.4521 24.725ZM55.3146 31.5V31.8137H55.6284V31.5H55.3146ZM53.0146 31.5H52.7009V31.8137H53.0146V31.5ZM52.6021 26.3125L52.3803 26.5344L52.3837 26.5377L52.6021 26.3125ZM50.2146 26.3125L49.9962 26.0872L49.9928 26.0907L50.2146 26.3125ZM49.8146 31.5V31.8137H50.1284V31.5H49.8146ZM47.8284 31.5V26.25H47.2009V31.5H47.8284ZM47.5146 25.9363H46.3896V26.5637H47.5146V25.9363ZM46.7034 26.25V24H46.0759V26.25H46.7034ZM46.3896 24.3137H48.6896V23.6863H46.3896V24.3137ZM48.3759 24V25.25H49.0034V24H48.3759ZM48.6896 25.5637H49.2146V24.9363H48.6896V25.5637ZM49.4726 25.4286C49.747 25.0322 50.0786 24.7284 50.4675 24.5115L50.1618 23.9635C49.684 24.23 49.2823 24.6012 48.9567 25.0714L49.4726 25.4286ZM50.4692 24.5105C50.8502 24.2949 51.3549 24.1762 52.0021 24.1762V23.5488C51.2827 23.5488 50.6625 23.6801 50.1601 23.9645L50.4692 24.5105ZM52.0021 24.1762C53.0129 24.1762 53.7381 24.4474 54.2287 24.9452L54.6756 24.5048C54.0328 23.8526 53.1248 23.5488 52.0021 23.5488V24.1762ZM54.2303 24.9468C54.7355 25.4521 55.0009 26.1372 55.0009 27.0375H55.6284C55.6284 26.0045 55.3188 25.1479 54.674 24.5032L54.2303 24.9468ZM55.0009 27.0375V31.5H55.6284V27.0375H55.0009ZM55.3146 31.1863H53.0146V31.8137H55.3146V31.1863ZM53.3284 31.5V27.4875H52.7009V31.5H53.3284ZM53.3284 27.4875C53.3284 26.9166 53.1754 26.4314 52.8205 26.0873L52.3837 26.5377C52.5789 26.7269 52.7009 27.0251 52.7009 27.4875H53.3284ZM52.824 26.0907C52.4786 25.7452 51.9897 25.5988 51.4146 25.5988V26.2262C51.8896 26.2262 52.1924 26.3464 52.3803 26.5343L52.824 26.0907ZM51.4146 25.5988C50.8389 25.5988 50.3487 25.7455 49.9962 26.0873L50.433 26.5377C50.6306 26.3461 50.9404 26.2262 51.4146 26.2262V25.5988ZM49.9928 26.0907C49.6483 26.4352 49.5009 26.9191 49.5009 27.4875H50.1284C50.1284 27.0225 50.2477 26.7231 50.4365 26.5343L49.9928 26.0907ZM49.5009 27.4875V31.5H50.1284V27.4875H49.5009ZM49.8146 31.1863H47.5146V31.8137H49.8146V31.1863ZM58.2627 31.175L58.1149 31.4517L58.1178 31.4533L58.2627 31.175ZM56.8502 29.8125L56.5752 29.9636L56.5778 29.9682L56.8502 29.8125ZM56.8377 25.6625L56.5636 25.5098L56.5629 25.5112L56.8377 25.6625ZM58.2127 24.325L58.3577 24.6032L58.3591 24.6025L58.2127 24.325ZM62.3877 24.3125L62.2394 24.589L62.2426 24.5906L62.3877 24.3125ZM63.7002 25.6125L63.4229 25.7593L63.4246 25.7624L63.7002 25.6125ZM64.1627 28.3875V28.7012H64.4764V28.3875H64.1627ZM58.5752 28.3875V28.0738H58.1964L58.267 28.446L58.5752 28.3875ZM59.1752 29.4875L58.9776 29.7312L58.9817 29.7344L59.1752 29.4875ZM61.3502 29.6625L61.5026 29.9368L61.5058 29.9349L61.3502 29.6625ZM61.8502 29.0375V28.7238H61.6282L61.5544 28.9331L61.8502 29.0375ZM64.1502 29.0375L64.4582 29.0972L64.5306 28.7238H64.1502V29.0375ZM62.9252 30.9625L63.1045 31.22L63.1066 31.2184L62.9252 30.9625ZM58.6127 26.8875L58.3095 26.807L58.2049 27.2012H58.6127V26.8875ZM61.9627 26.8875V27.2012H62.3379L62.2715 26.8319L61.9627 26.8875ZM61.4377 25.9625L61.2444 26.2099L61.2532 26.2162L61.4377 25.9625ZM60.4127 31.3363C59.628 31.3363 58.9629 31.1858 58.4076 30.8967L58.1178 31.4533C58.7791 31.7975 59.5474 31.9637 60.4127 31.9637V31.3363ZM58.4105 30.8983C57.8528 30.6003 57.4258 30.1875 57.1226 29.6568L56.5778 29.9682C56.9412 30.6042 57.4559 31.0997 58.1149 31.4517L58.4105 30.8983ZM57.1252 29.6615C56.8299 29.124 56.6764 28.482 56.6764 27.725H56.049C56.049 28.568 56.2205 29.3177 56.5752 29.9635L57.1252 29.6615ZM56.6764 27.725C56.6764 26.9664 56.8264 26.3334 57.1125 25.8138L56.5629 25.5112C56.2157 26.1416 56.049 26.8836 56.049 27.725H56.6764ZM57.1118 25.8152C57.4069 25.2854 57.8204 24.8832 58.3577 24.6032L58.0677 24.0468C57.4216 24.3835 56.9184 24.873 56.5636 25.5098L57.1118 25.8152ZM58.3591 24.6025C58.9061 24.3138 59.5582 24.1637 60.3252 24.1637V23.5363C59.4756 23.5363 58.7193 23.7029 58.0663 24.0475L58.3591 24.6025ZM60.3252 24.1637C61.085 24.1637 61.7192 24.31 62.2394 24.589L62.536 24.036C61.9062 23.6983 61.1654 23.5363 60.3252 23.5363V24.1637ZM62.2426 24.5906C62.7619 24.8616 63.153 25.2495 63.4229 25.7593L63.9775 25.4657C63.6474 24.8422 63.1635 24.3634 62.5328 24.0344L62.2426 24.5906ZM63.4246 25.7624C63.7028 26.2738 63.849 26.8989 63.849 27.65H64.4764C64.4764 26.8177 64.3142 26.0846 63.9758 25.4626L63.4246 25.7624ZM63.849 27.65V28.3875H64.4764V27.65H63.849ZM64.1627 28.0738H58.5752V28.7012H64.1627V28.0738ZM58.267 28.446C58.369 28.9841 58.5988 29.4241 58.9776 29.7312L59.3728 29.2438C59.1349 29.0509 58.9647 28.7575 58.8834 28.329L58.267 28.446ZM58.9817 29.7344C59.3598 30.0308 59.8427 30.1637 60.4002 30.1637V29.5363C59.941 29.5363 59.6073 29.4276 59.3687 29.2406L58.9817 29.7344ZM60.4002 30.1637C60.8336 30.1637 61.2113 30.0986 61.5026 29.9367L61.1978 29.3883C61.0391 29.4764 60.7834 29.5363 60.4002 29.5363V30.1637ZM61.5058 29.9349C61.8124 29.7597 62.0241 29.4873 62.146 29.1419L61.5544 28.9331C61.4762 29.1544 61.3547 29.2986 61.1945 29.3901L61.5058 29.9349ZM61.8502 29.3512H64.1502V28.7238H61.8502V29.3512ZM63.8422 28.9778C63.6987 29.7179 63.334 30.2882 62.7438 30.7066L63.1066 31.2184C63.833 30.7035 64.285 29.9904 64.4582 29.0972L63.8422 28.9778ZM62.7459 30.705C62.1527 31.118 61.3824 31.3363 60.4127 31.3363V31.9637C61.4763 31.9637 62.381 31.7236 63.1044 31.22L62.7459 30.705ZM58.6127 27.2012H61.9627V26.5738H58.6127V27.2012ZM62.2715 26.8319C62.1858 26.3562 61.9777 25.9673 61.6222 25.7088L61.2532 26.2162C61.4477 26.3577 61.5896 26.5855 61.6539 26.9431L62.2715 26.8319ZM61.6308 25.7153C61.2914 25.4501 60.8482 25.3363 60.3377 25.3363V25.9637C60.7605 25.9637 61.0506 26.0582 61.2446 26.2097L61.6308 25.7153ZM60.3377 25.3363C59.8322 25.3363 59.3884 25.4515 59.0303 25.7072L59.395 26.2178C59.6204 26.0568 59.9265 25.9637 60.3377 25.9637V25.3363ZM59.0303 25.7072C58.669 25.9653 58.433 26.3413 58.3095 26.807L58.9159 26.968C59.009 26.617 59.173 26.3764 59.395 26.2178L59.0303 25.7072Z" fill="#FD3567" mask="url(#path-3-outside-1_624_202065)"/>
<path d="M-3.53333 48.66C-5.00889 48.66 -6.18667 48.34 -7.06667 47.7C-7.93778 47.0511 -8.41333 46.1489 -8.49333 44.9933H-5.93333C-5.83556 45.5533 -5.57778 45.9711 -5.16 46.2467C-4.74222 46.5222 -4.16889 46.66 -3.44 46.66C-2.78222 46.66 -2.29333 46.5622 -1.97333 46.3667C-1.64444 46.1622 -1.48 45.86 -1.48 45.46C-1.48 45.1489 -1.58222 44.9089 -1.78667 44.74C-1.98222 44.5622 -2.31111 44.4244 -2.77333 44.3267L-5.05333 43.8467C-6.08444 43.6244 -6.84889 43.2644 -7.34667 42.7667C-7.84444 42.2689 -8.09333 41.6156 -8.09333 40.8067C-8.09333 39.7844 -7.70667 38.9844 -6.93333 38.4067C-6.15111 37.8289 -5.08889 37.54 -3.74667 37.54C-2.39556 37.54 -1.30667 37.8422 -0.48 38.4467C0.346667 39.0511 0.804445 39.8956 0.893333 40.98H-1.66667C-1.91556 39.9667 -2.65778 39.46 -3.89333 39.46C-4.43556 39.46 -4.86222 39.5578 -5.17333 39.7533C-5.48444 39.94 -5.64 40.2111 -5.64 40.5667C-5.64 41.1 -5.25778 41.4467 -4.49333 41.6067L-2.10667 42.1C-1.03111 42.3222 -0.248889 42.6867 0.24 43.1933C0.728889 43.7 0.973333 44.3889 0.973333 45.26C0.973333 46.3356 0.582222 47.1711 -0.2 47.7667C-0.973333 48.3622 -2.08444 48.66 -3.53333 48.66ZM6.01958 48.66C5.18403 48.66 4.44625 48.4911 3.80625 48.1533C3.17514 47.8067 2.67736 47.3222 2.31292 46.7C1.95736 46.0778 1.77958 45.3444 1.77958 44.5C1.77958 43.6556 1.95736 42.9222 2.31292 42.3C2.66847 41.6778 3.16625 41.1978 3.80625 40.86C4.44625 40.5133 5.18403 40.34 6.01958 40.34C7.10403 40.34 7.99292 40.6156 8.68625 41.1667C9.38847 41.7178 9.81958 42.4644 9.97958 43.4067H7.52625C7.41958 43.1133 7.23736 42.8867 6.97958 42.7267C6.73069 42.5578 6.41069 42.4733 6.01958 42.4733C5.49514 42.4733 5.06403 42.6511 4.72625 43.0067C4.39736 43.3533 4.23292 43.8511 4.23292 44.5C4.23292 45.1489 4.40181 45.6511 4.73958 46.0067C5.07736 46.3533 5.50403 46.5267 6.01958 46.5267C6.86403 46.5267 7.37958 46.1756 7.56625 45.4733H10.0196C9.87736 46.46 9.45958 47.2378 8.76625 47.8067C8.07292 48.3756 7.15736 48.66 6.01958 48.66ZM11.6515 48.5V42.9H10.4515V40.5H12.9048V42.1H13.4648C13.6692 41.5222 14.0026 41.0956 14.4648 40.82C14.927 40.5356 15.4426 40.3933 16.0115 40.3933H16.6915V42.5267H15.9048C15.247 42.5267 14.7715 42.7089 14.4781 43.0733C14.1937 43.4378 14.0515 43.9133 14.0515 44.5V48.5H11.6515ZM21.356 48.66C20.476 48.66 19.7072 48.4911 19.0494 48.1533C18.3916 47.8067 17.8805 47.3222 17.516 46.7C17.1605 46.0689 16.9827 45.3311 16.9827 44.4867C16.9827 43.6422 17.1605 42.9089 17.516 42.2867C17.8805 41.6644 18.3916 41.1844 19.0494 40.8467C19.7072 40.5089 20.4805 40.34 21.3694 40.34C22.2583 40.34 23.0227 40.5089 23.6627 40.8467C24.3116 41.1844 24.8138 41.6644 25.1694 42.2867C25.5249 42.9089 25.7027 43.6467 25.7027 44.5C25.7027 45.3444 25.5249 46.0822 25.1694 46.7133C24.8138 47.3356 24.3116 47.8156 23.6627 48.1533C23.0138 48.4911 22.2449 48.66 21.356 48.66ZM21.356 46.5267C21.9694 46.5267 22.436 46.3444 22.756 45.98C23.0849 45.6067 23.2494 45.1089 23.2494 44.4867C23.2494 43.8644 23.0849 43.3756 22.756 43.02C22.436 42.6556 21.9694 42.4733 21.356 42.4733C20.7338 42.4733 20.2583 42.6556 19.9294 43.02C19.6005 43.3756 19.436 43.8644 19.436 44.4867C19.436 45.1089 19.6005 45.6067 19.9294 45.98C20.2583 46.3444 20.7338 46.5267 21.356 46.5267ZM26.9181 48.5V37.3H29.3715V48.5H26.9181ZM31.0588 48.5V37.3H33.5121V48.5H31.0588ZM39.5604 48.5V42.9H38.3604V40.5H40.8138V41.8333H41.3737C41.676 41.3622 42.0538 40.9978 42.5071 40.74C42.9693 40.4822 43.5426 40.3533 44.2271 40.3533C44.876 40.3533 45.4271 40.4644 45.8804 40.6867C46.3426 40.9 46.716 41.2156 47.0004 41.6333H47.0538C47.6849 40.78 48.5915 40.3533 49.7738 40.3533C50.8315 40.3533 51.6671 40.66 52.2804 41.2733C52.9026 41.8867 53.2138 42.7089 53.2138 43.74V48.5H50.7604V44.22C50.7604 43.1 50.236 42.54 49.1871 42.54C48.1382 42.54 47.6138 43.1 47.6138 44.22V48.5H45.1604V44.22C45.1604 43.1 44.6271 42.54 43.5604 42.54C43.0449 42.54 42.6582 42.6778 42.4004 42.9533C42.1426 43.2289 42.0138 43.6511 42.0138 44.22V48.5H39.5604ZM58.6998 48.66C57.8198 48.66 57.0509 48.4911 56.3931 48.1533C55.7353 47.8067 55.2242 47.3222 54.8598 46.7C54.5042 46.0689 54.3265 45.3311 54.3265 44.4867C54.3265 43.6422 54.5042 42.9089 54.8598 42.2867C55.2242 41.6644 55.7353 41.1844 56.3931 40.8467C57.0509 40.5089 57.8242 40.34 58.7131 40.34C59.602 40.34 60.3665 40.5089 61.0065 40.8467C61.6553 41.1844 62.1576 41.6644 62.5131 42.2867C62.8687 42.9089 63.0465 43.6467 63.0465 44.5C63.0465 45.3444 62.8687 46.0822 62.5131 46.7133C62.1576 47.3356 61.6553 47.8156 61.0065 48.1533C60.3576 48.4911 59.5887 48.66 58.6998 48.66ZM58.6998 46.5267C59.3131 46.5267 59.7798 46.3444 60.0998 45.98C60.4287 45.6067 60.5931 45.1089 60.5931 44.4867C60.5931 43.8644 60.4287 43.3756 60.0998 43.02C59.7798 42.6556 59.3131 42.4733 58.6998 42.4733C58.0776 42.4733 57.602 42.6556 57.2731 43.02C56.9442 43.3756 56.7798 43.8644 56.7798 44.4867C56.7798 45.1089 56.9442 45.6067 57.2731 45.98C57.602 46.3444 58.0776 46.5267 58.6998 46.5267ZM64.9952 48.5V42.9H63.7952V40.5H66.2485V42.1H66.8085C67.013 41.5222 67.3463 41.0956 67.8085 40.82C68.2708 40.5356 68.7863 40.3933 69.3552 40.3933H70.0352V42.5267H69.2485C68.5908 42.5267 68.1152 42.7089 67.8219 43.0733C67.5374 43.4378 67.3952 43.9133 67.3952 44.5V48.5H64.9952ZM74.6465 48.66C73.7665 48.66 73.002 48.4911 72.3531 48.1533C71.7042 47.8067 71.202 47.3222 70.8465 46.7C70.4998 46.0689 70.3265 45.3267 70.3265 44.4733C70.3265 43.62 70.4953 42.8867 70.8331 42.2733C71.1798 41.6511 71.6687 41.1756 72.2998 40.8467C72.9398 40.5089 73.6909 40.34 74.5531 40.34C75.4065 40.34 76.1398 40.5044 76.7531 40.8333C77.3665 41.1533 77.8331 41.6156 78.1531 42.22C78.482 42.8244 78.6465 43.5489 78.6465 44.3933V45.18H72.6865C72.7842 45.6956 72.9976 46.0867 73.3265 46.3533C73.6553 46.6111 74.0909 46.74 74.6331 46.74C75.0687 46.74 75.4065 46.6733 75.6465 46.54C75.8953 46.3978 76.0731 46.1756 76.1798 45.8733H78.6331C78.4642 46.7444 78.0287 47.4289 77.3265 47.9267C76.6242 48.4156 75.7309 48.66 74.6465 48.66ZM72.7265 43.58H76.2998C76.2198 43.1356 76.0331 42.8067 75.7398 42.5933C75.4553 42.3711 75.0642 42.26 74.5665 42.26C74.0776 42.26 73.6776 42.3711 73.3665 42.5933C73.0553 42.8156 72.842 43.1444 72.7265 43.58Z" fill="#FD3567"/>
<mask id="path-6-outside-2_624_202065" maskUnits="userSpaceOnUse" x="3.03906" y="52.8135" width="66" height="13" fill="black">
<rect fill="white" x="3.03906" y="52.8135" width="66" height="13"/>
<path d="M4.10573 64.8135V54.0135H9.34573C10.5635 54.0135 11.5146 54.3246 12.1991 54.9468C12.8835 55.5601 13.2257 56.409 13.2257 57.4935C13.2257 58.569 12.8835 59.4179 12.1991 60.0401C11.5146 60.6624 10.5635 60.9735 9.34573 60.9735H6.6124V64.8135H4.10573ZM6.6124 58.7868H9.18573C9.68351 58.7868 10.0613 58.6757 10.3191 58.4535C10.5857 58.2224 10.7191 57.9024 10.7191 57.4935C10.7191 57.0757 10.5857 56.7557 10.3191 56.5335C10.0613 56.3113 9.68351 56.2001 9.18573 56.2001H6.6124V58.7868ZM14.4103 64.8135V56.8135H16.8636V64.8135H14.4103ZM15.637 56.1335C15.2725 56.1335 14.9614 56.0046 14.7036 55.7468C14.4459 55.489 14.317 55.1779 14.317 54.8135C14.317 54.449 14.4459 54.1379 14.7036 53.8801C14.9614 53.6224 15.2725 53.4935 15.637 53.4935C16.0014 53.4935 16.3125 53.6224 16.5703 53.8801C16.8281 54.1379 16.957 54.449 16.957 54.8135C16.957 55.1779 16.8281 55.489 16.5703 55.7468C16.3125 56.0046 16.0014 56.1335 15.637 56.1335ZM22.3243 64.9735C21.4887 64.9735 20.7509 64.8046 20.1109 64.4668C19.4798 64.1201 18.982 63.6357 18.6176 63.0135C18.262 62.3913 18.0843 61.6579 18.0843 60.8135C18.0843 59.969 18.262 59.2357 18.6176 58.6135C18.9732 57.9913 19.4709 57.5113 20.1109 57.1735C20.7509 56.8268 21.4887 56.6535 22.3243 56.6535C23.4087 56.6535 24.2976 56.929 24.9909 57.4801C25.6932 58.0313 26.1243 58.7779 26.2843 59.7201H23.8309C23.7243 59.4268 23.542 59.2001 23.2843 59.0401C23.0354 58.8713 22.7154 58.7868 22.3243 58.7868C21.7998 58.7868 21.3687 58.9646 21.0309 59.3201C20.702 59.6668 20.5376 60.1646 20.5376 60.8135C20.5376 61.4624 20.7065 61.9646 21.0443 62.3201C21.382 62.6668 21.8087 62.8401 22.3243 62.8401C23.1687 62.8401 23.6843 62.489 23.8709 61.7868H26.3243C26.182 62.7735 25.7643 63.5513 25.0709 64.1201C24.3776 64.689 23.462 64.9735 22.3243 64.9735ZM27.1828 64.8135V53.6135H29.6361V59.4401H29.6895L32.5961 56.8135H35.5028L32.1961 59.8001L35.7428 64.8135H32.8895L30.4628 61.2935L29.6361 61.9601V64.8135H27.1828ZM44.3326 64.9735C43.4526 64.9735 42.6837 64.8046 42.0259 64.4668C41.3682 64.1201 40.857 63.6357 40.4926 63.0135C40.137 62.3824 39.9593 61.6446 39.9593 60.8001C39.9593 59.9557 40.137 59.2224 40.4926 58.6001C40.857 57.9779 41.3682 57.4979 42.0259 57.1601C42.6837 56.8224 43.457 56.6535 44.3459 56.6535C45.2348 56.6535 45.9993 56.8224 46.6393 57.1601C47.2882 57.4979 47.7904 57.9779 48.1459 58.6001C48.5015 59.2224 48.6793 59.9601 48.6793 60.8135C48.6793 61.6579 48.5015 62.3957 48.1459 63.0268C47.7904 63.649 47.2882 64.129 46.6393 64.4668C45.9904 64.8046 45.2215 64.9735 44.3326 64.9735ZM44.3326 62.8401C44.9459 62.8401 45.4126 62.6579 45.7326 62.2935C46.0615 61.9201 46.2259 61.4224 46.2259 60.8001C46.2259 60.1779 46.0615 59.689 45.7326 59.3335C45.4126 58.969 44.9459 58.7868 44.3326 58.7868C43.7104 58.7868 43.2348 58.969 42.9059 59.3335C42.577 59.689 42.4126 60.1779 42.4126 60.8001C42.4126 61.4224 42.577 61.9201 42.9059 62.2935C43.2348 62.6579 43.7104 62.8401 44.3326 62.8401ZM50.5214 64.8135V59.2135H49.3214V56.8135H51.7747V58.1468H52.3347C52.6547 57.6846 53.0458 57.3246 53.508 57.0668C53.9791 56.8001 54.5791 56.6668 55.308 56.6668C56.4458 56.6668 57.3169 56.9735 57.9214 57.5868C58.5347 58.2001 58.8414 59.0224 58.8414 60.0535V64.8135H56.388V60.5335C56.388 59.9824 56.2414 59.5646 55.948 59.2801C55.6636 58.9957 55.2414 58.8535 54.6814 58.8535C54.1214 58.8535 53.6947 58.9957 53.4014 59.2801C53.1169 59.5646 52.9747 59.9824 52.9747 60.5335V64.8135H50.5214ZM64.2793 64.9735C63.3993 64.9735 62.6348 64.8046 61.9859 64.4668C61.337 64.1201 60.8348 63.6357 60.4793 63.0135C60.1326 62.3824 59.9593 61.6401 59.9593 60.7868C59.9593 59.9335 60.1282 59.2001 60.4659 58.5868C60.8126 57.9646 61.3015 57.489 61.9326 57.1601C62.5726 56.8224 63.3237 56.6535 64.1859 56.6535C65.0393 56.6535 65.7726 56.8179 66.3859 57.1468C66.9993 57.4668 67.4659 57.929 67.7859 58.5335C68.1148 59.1379 68.2793 59.8624 68.2793 60.7068V61.4935H62.3193C62.417 62.009 62.6304 62.4001 62.9593 62.6668C63.2882 62.9246 63.7237 63.0535 64.2659 63.0535C64.7015 63.0535 65.0393 62.9868 65.2793 62.8535C65.5282 62.7113 65.7059 62.489 65.8126 62.1868H68.2659C68.097 63.0579 67.6615 63.7424 66.9593 64.2401C66.257 64.729 65.3637 64.9735 64.2793 64.9735ZM62.3593 59.8935H65.9326C65.8526 59.449 65.6659 59.1201 65.3726 58.9068C65.0882 58.6846 64.697 58.5735 64.1993 58.5735C63.7104 58.5735 63.3104 58.6846 62.9993 58.9068C62.6882 59.129 62.4748 59.4579 62.3593 59.8935Z"/>
</mask>
<path d="M4.10573 64.8135H3.792V65.1272H4.10573V64.8135ZM4.10573 54.0135V53.6998H3.792V54.0135H4.10573ZM12.1991 54.9468L11.988 55.179L11.9897 55.1805L12.1991 54.9468ZM6.6124 60.9735V60.6598H6.29867V60.9735H6.6124ZM6.6124 64.8135V65.1272H6.92612V64.8135H6.6124ZM6.6124 58.7868H6.29867V59.1005H6.6124V58.7868ZM10.3191 58.4535L10.5239 58.6911L10.5245 58.6906L10.3191 58.4535ZM10.3191 56.5335L10.1142 56.7711L10.1182 56.7745L10.3191 56.5335ZM6.6124 56.2001V55.8864H6.29867V56.2001H6.6124ZM4.41945 64.8135V54.0135H3.792V64.8135H4.41945ZM4.10573 54.3272H9.34573V53.6998H4.10573V54.3272ZM9.34573 54.3272C10.5107 54.3272 11.3776 54.6241 11.988 55.1789L12.4101 54.7147C11.6516 54.0251 10.6163 53.6998 9.34573 53.6998V54.3272ZM11.9897 55.1805C12.5957 55.7235 12.912 56.4806 12.912 57.4935H13.5395C13.5395 56.3374 13.1713 55.3968 12.4084 54.7132L11.9897 55.1805ZM12.912 57.4935C12.912 58.4964 12.5962 59.2551 11.988 59.808L12.4101 60.2723C13.1708 59.5807 13.5395 58.6416 13.5395 57.4935H12.912ZM11.988 59.808C11.3776 60.3629 10.5107 60.6598 9.34573 60.6598V61.2872C10.6163 61.2872 11.6516 60.9618 12.4101 60.2723L11.988 59.808ZM9.34573 60.6598H6.6124V61.2872H9.34573V60.6598ZM6.29867 60.9735V64.8135H6.92612V60.9735H6.29867ZM6.6124 64.4998H4.10573V65.1272H6.6124V64.4998ZM6.6124 59.1005H9.18573V58.4731H6.6124V59.1005ZM9.18573 59.1005C9.72472 59.1005 10.1879 58.9808 10.5239 58.6911L10.1142 58.2159C9.93472 58.3706 9.64229 58.4731 9.18573 58.4731V59.1005ZM10.5245 58.6906C10.8712 58.3901 11.0328 57.9774 11.0328 57.4935H10.4053C10.4053 57.8274 10.3003 58.0546 10.1136 58.2164L10.5245 58.6906ZM11.0328 57.4935C11.0328 57.0035 10.8727 56.5865 10.5199 56.2925L10.1182 56.7745C10.2987 56.9249 10.4053 57.1479 10.4053 57.4935H11.0328ZM10.5239 56.2959C10.1879 56.0062 9.72472 55.8864 9.18573 55.8864V56.5139C9.64229 56.5139 9.93472 56.6164 10.1142 56.7711L10.5239 56.2959ZM9.18573 55.8864H6.6124V56.5139H9.18573V55.8864ZM6.29867 56.2001V58.7868H6.92612V56.2001H6.29867ZM14.4103 64.8135H14.0966V65.1272H14.4103V64.8135ZM14.4103 56.8135V56.4998H14.0966V56.8135H14.4103ZM16.8636 56.8135H17.1774V56.4998H16.8636V56.8135ZM16.8636 64.8135V65.1272H17.1774V64.8135H16.8636ZM14.7036 55.7468L14.4818 55.9686L14.4818 55.9686L14.7036 55.7468ZM14.7036 53.8801L14.9255 54.102L14.9255 54.102L14.7036 53.8801ZM16.5703 53.8801L16.3485 54.102L16.3485 54.102L16.5703 53.8801ZM16.5703 55.7468L16.7921 55.9686L16.7922 55.9686L16.5703 55.7468ZM14.724 64.8135V56.8135H14.0966V64.8135H14.724ZM14.4103 57.1272H16.8636V56.4998H14.4103V57.1272ZM16.5499 56.8135V64.8135H17.1774V56.8135H16.5499ZM16.8636 64.4998H14.4103V65.1272H16.8636V64.4998ZM15.637 55.8198C15.3558 55.8198 15.1244 55.7239 14.9255 55.525L14.4818 55.9686C14.7984 56.2852 15.1893 56.4472 15.637 56.4472V55.8198ZM14.9255 55.525C14.7265 55.326 14.6307 55.0947 14.6307 54.8135H14.0033C14.0033 55.2612 14.1652 55.6521 14.4818 55.9686L14.9255 55.525ZM14.6307 54.8135C14.6307 54.5323 14.7265 54.3009 14.9255 54.102L14.4818 53.6583C14.1652 53.9749 14.0033 54.3658 14.0033 54.8135H14.6307ZM14.9255 54.102C15.1244 53.903 15.3558 53.8072 15.637 53.8072V53.1798C15.1893 53.1798 14.7984 53.3417 14.4818 53.6583L14.9255 54.102ZM15.637 53.8072C15.9182 53.8072 16.1495 53.903 16.3485 54.102L16.7922 53.6583C16.4756 53.3417 16.0847 53.1798 15.637 53.1798V53.8072ZM16.3485 54.102C16.5474 54.3009 16.6433 54.5323 16.6433 54.8135H17.2707C17.2707 54.3658 17.1087 53.9749 16.7921 53.6583L16.3485 54.102ZM16.6433 54.8135C16.6433 55.0947 16.5474 55.326 16.3485 55.525L16.7922 55.9686C17.1087 55.6521 17.2707 55.2612 17.2707 54.8135H16.6433ZM16.3485 55.525C16.1495 55.7239 15.9182 55.8198 15.637 55.8198V56.4472C16.0847 56.4472 16.4756 56.2852 16.7921 55.9686L16.3485 55.525ZM20.1109 64.4668L19.9599 64.7418L19.9645 64.7443L20.1109 64.4668ZM18.6176 63.0135L18.3452 63.1691L18.3469 63.172L18.6176 63.0135ZM18.6176 58.6135L18.3452 58.4578L18.6176 58.6135ZM20.1109 57.1735L20.2574 57.4509L20.2604 57.4493L20.1109 57.1735ZM24.9909 57.4801L24.7957 57.7257L24.7972 57.7269L24.9909 57.4801ZM26.2843 59.7201V60.0339H26.6558L26.5936 59.6676L26.2843 59.7201ZM23.8309 59.7201L23.5361 59.8274L23.6112 60.0339H23.8309V59.7201ZM23.2843 59.0401L23.108 59.3L23.1188 59.3067L23.2843 59.0401ZM21.0309 59.3201L20.8035 59.1041L20.8033 59.1042L21.0309 59.3201ZM21.0443 62.3201L20.8168 62.5362L20.8196 62.5391L21.0443 62.3201ZM23.8709 61.7868V61.4731H23.6297L23.5677 61.7062L23.8709 61.7868ZM26.3243 61.7868L26.6348 61.8316L26.6865 61.4731H26.3243V61.7868ZM25.0709 64.1201L24.8719 63.8776L24.8719 63.8776L25.0709 64.1201ZM22.3243 64.6598C21.5318 64.6598 20.8457 64.4999 20.2574 64.1894L19.9645 64.7443C20.6562 65.1093 21.4456 65.2872 22.3243 65.2872V64.6598ZM20.262 64.1918C19.6806 63.8725 19.2242 63.4283 18.8883 62.8549L18.3469 63.172C18.7399 63.8431 19.279 64.3678 19.9599 64.7418L20.262 64.1918ZM18.89 62.8578C18.566 62.2908 18.398 61.6131 18.398 60.8135H17.7705C17.7705 61.7027 17.9581 62.4917 18.3452 63.1691L18.89 62.8578ZM18.398 60.8135C18.398 60.0138 18.566 59.3361 18.89 58.7691L18.3452 58.4578C17.9581 59.1353 17.7705 59.9242 17.7705 60.8135H18.398ZM18.89 58.7691C19.2157 58.1992 19.6695 57.7612 20.2574 57.4509L19.9645 56.896C19.2723 57.2613 18.7306 57.7833 18.3452 58.4578L18.89 58.7691ZM20.2604 57.4493C20.8481 57.131 21.5331 56.9672 22.3243 56.9672V56.3398C21.4443 56.3398 20.6538 56.5226 19.9615 56.8976L20.2604 57.4493ZM22.3243 56.9672C23.3542 56.9672 24.1695 57.228 24.7957 57.7257L25.1862 57.2346C24.4257 56.6301 23.4632 56.3398 22.3243 56.3398V56.9672ZM24.7972 57.7269C25.4336 58.2263 25.827 58.9014 25.975 59.7727L26.5936 59.6676C26.4215 58.6544 25.9528 57.8362 25.1846 57.2333L24.7972 57.7269ZM26.2843 59.4064H23.8309V60.0339H26.2843V59.4064ZM24.1258 59.6129C23.9958 59.2555 23.7691 58.9718 23.4497 58.7736L23.1188 59.3067C23.315 59.4285 23.4527 59.5981 23.5361 59.8274L24.1258 59.6129ZM23.4604 58.7805C23.146 58.5672 22.7595 58.4731 22.3243 58.4731V59.1005C22.6713 59.1005 22.9248 59.1753 23.1081 59.2997L23.4604 58.7805ZM22.3243 58.4731C21.7205 58.4731 21.2049 58.6815 20.8035 59.1041L21.2584 59.5362C21.5325 59.2477 21.8792 59.1005 22.3243 59.1005V58.4731ZM20.8033 59.1042C20.4018 59.5274 20.2239 60.1135 20.2239 60.8135H20.8513C20.8513 60.2157 21.0023 59.8062 21.2585 59.5361L20.8033 59.1042ZM20.2239 60.8135C20.2239 61.5161 20.4076 62.1055 20.8168 62.5362L21.2717 62.1041C21.0053 61.8237 20.8513 61.4087 20.8513 60.8135H20.2239ZM20.8196 62.5391C21.2206 62.9506 21.7302 63.1539 22.3243 63.1539V62.5264C21.8872 62.5264 21.5435 62.383 21.269 62.1012L20.8196 62.5391ZM22.3243 63.1539C22.7877 63.1539 23.1955 63.0577 23.5209 62.8361C23.851 62.6113 24.0648 62.2787 24.1741 61.8674L23.5677 61.7062C23.4904 61.9972 23.3531 62.1912 23.1677 62.3175C22.9774 62.4471 22.7053 62.5264 22.3243 62.5264V63.1539ZM23.8709 62.1005H26.3243V61.4731H23.8709V62.1005ZM26.0138 61.7421C25.8814 62.6605 25.4978 63.3641 24.8719 63.8776L25.2699 64.3627C26.0308 63.7384 26.4827 62.8864 26.6348 61.8316L26.0138 61.7421ZM24.8719 63.8776C24.2484 64.3892 23.4094 64.6598 22.3243 64.6598V65.2872C23.5147 65.2872 24.5068 64.9888 25.2699 64.3627L24.8719 63.8776ZM27.1828 64.8135H26.8691V65.1272H27.1828V64.8135ZM27.1828 53.6135V53.2998H26.8691V53.6135H27.1828ZM29.6361 53.6135H29.9499V53.2998H29.6361V53.6135ZM29.6361 59.4401H29.3224V59.7539H29.6361V59.4401ZM29.6895 59.4401V59.7539H29.8102L29.8998 59.6729L29.6895 59.4401ZM32.5961 56.8135V56.4998H32.4754L32.3858 56.5807L32.5961 56.8135ZM35.5028 56.8135L35.7131 57.0463L36.3182 56.4998H35.5028V56.8135ZM32.1961 59.8001L31.9859 59.5673L31.7792 59.754L31.94 59.9813L32.1961 59.8001ZM35.7428 64.8135V65.1272H36.3491L35.9989 64.6323L35.7428 64.8135ZM32.8895 64.8135L32.6312 64.9915L32.7247 65.1272H32.8895V64.8135ZM30.4628 61.2935L30.7211 61.1154L30.5291 60.837L30.2659 61.0493L30.4628 61.2935ZM29.6361 61.9601L29.4392 61.7159L29.3224 61.8101V61.9601H29.6361ZM29.6361 64.8135V65.1272H29.9499V64.8135H29.6361ZM27.4965 64.8135V53.6135H26.8691V64.8135H27.4965ZM27.1828 53.9272H29.6361V53.2998H27.1828V53.9272ZM29.3224 53.6135V59.4401H29.9499V53.6135H29.3224ZM29.6361 59.7539H29.6895V59.1264H29.6361V59.7539ZM29.8998 59.6729L32.8065 57.0462L32.3858 56.5807L29.4791 59.2074L29.8998 59.6729ZM32.5961 57.1272H35.5028V56.4998H32.5961V57.1272ZM35.2925 56.5807L31.9859 59.5673L32.4064 60.033L35.7131 57.0463L35.2925 56.5807ZM31.94 59.9813L35.4867 64.9947L35.9989 64.6323L32.4523 59.619L31.94 59.9813ZM35.7428 64.4998H32.8895V65.1272H35.7428V64.4998ZM33.1478 64.6354L30.7211 61.1154L30.2045 61.4715L32.6312 64.9915L33.1478 64.6354ZM30.2659 61.0493L29.4392 61.7159L29.8331 62.2044L30.6598 61.5377L30.2659 61.0493ZM29.3224 61.9601V64.8135H29.9499V61.9601H29.3224ZM29.6361 64.4998H27.1828V65.1272H29.6361V64.4998ZM42.0259 64.4668L41.8797 64.7444L41.8826 64.7459L42.0259 64.4668ZM40.4926 63.0135L40.2192 63.1675L40.2219 63.172L40.4926 63.0135ZM40.4926 58.6001L40.2219 58.4416L40.2202 58.4445L40.4926 58.6001ZM42.0259 57.1601L41.8826 56.8811L41.8826 56.8811L42.0259 57.1601ZM46.6393 57.1601L46.4928 57.4376L46.4944 57.4384L46.6393 57.1601ZM48.1459 58.6001L48.4183 58.4445L48.4183 58.4445L48.1459 58.6001ZM48.1459 63.0268L48.4183 63.1825L48.4193 63.1808L48.1459 63.0268ZM46.6393 64.4668L46.7841 64.7451L46.7841 64.7451L46.6393 64.4668ZM45.7326 62.2935L45.4972 62.0861L45.4969 62.0865L45.7326 62.2935ZM45.7326 59.3335L45.4968 59.5405L45.5023 59.5465L45.7326 59.3335ZM42.9059 59.3335L43.1363 59.5465L43.1388 59.5437L42.9059 59.3335ZM42.9059 62.2935L42.6705 62.5009L42.673 62.5037L42.9059 62.2935ZM44.3326 64.6598C43.493 64.6598 42.775 64.4988 42.1692 64.1877L41.8826 64.7459C42.5924 65.1104 43.4122 65.2872 44.3326 65.2872V64.6598ZM42.1722 64.1893C41.5645 63.869 41.0972 63.425 40.7633 62.8549L40.2219 63.172C40.6169 63.8464 41.1718 64.3713 41.8797 64.7443L42.1722 64.1893ZM40.7659 62.8595C40.441 62.2827 40.273 61.5997 40.273 60.8001H39.6455C39.6455 61.6895 39.8331 62.4821 40.2193 63.1675L40.7659 62.8595ZM40.273 60.8001C40.273 60.0005 40.441 59.3228 40.765 58.7558L40.2202 58.4445C39.8331 59.122 39.6455 59.9109 39.6455 60.8001H40.273ZM40.7633 58.7587C41.0968 58.1893 41.5631 57.7505 42.1692 57.4392L41.8826 56.8811C41.1732 57.2454 40.6173 57.7665 40.2219 58.4416L40.7633 58.7587ZM42.1692 57.4392C42.7746 57.1284 43.4969 56.9672 44.3459 56.9672V56.3398C43.4172 56.3398 42.5928 56.5164 41.8826 56.8811L42.1692 57.4392ZM44.3459 56.9672C45.1953 56.9672 45.9071 57.1285 46.4928 57.4376L46.7857 56.8827C46.0914 56.5162 45.2744 56.3398 44.3459 56.3398V56.9672ZM46.4944 57.4384C47.0911 57.749 47.5485 58.187 47.8735 58.7558L48.4183 58.4445C48.0323 57.7689 47.4852 57.2468 46.7841 56.8819L46.4944 57.4384ZM47.8735 58.7558C48.1973 59.3223 48.3655 60.0043 48.3655 60.8135H48.993C48.993 59.916 48.8057 59.1224 48.4183 58.4445L47.8735 58.7558ZM48.3655 60.8135C48.3655 61.613 48.1976 62.296 47.8726 62.8728L48.4193 63.1808C48.8054 62.4954 48.993 61.7029 48.993 60.8135H48.3655ZM47.8735 62.8712C47.5485 63.44 47.0911 63.8779 46.4944 64.1885L46.7841 64.7451C47.4852 64.3801 48.0323 63.8581 48.4183 63.1825L47.8735 62.8712ZM46.4944 64.1885C45.8989 64.4985 45.1818 64.6598 44.3326 64.6598V65.2872C45.2612 65.2872 46.0819 65.1106 46.7841 64.7451L46.4944 64.1885ZM44.3326 63.1539C45.0105 63.1539 45.5737 62.9499 45.9684 62.5005L45.4969 62.0865C45.2515 62.3659 44.8813 62.5264 44.3326 62.5264V63.1539ZM45.968 62.5009C46.3591 62.0569 46.5397 61.4789 46.5397 60.8001H45.9122C45.9122 61.3658 45.7639 61.7834 45.4972 62.0861L45.968 62.5009ZM46.5397 60.8001C46.5397 60.1222 46.3594 59.549 45.9629 59.1204L45.5023 59.5465C45.7636 59.829 45.9122 60.2336 45.9122 60.8001H46.5397ZM45.9684 59.1265C45.5737 58.677 45.0105 58.4731 44.3326 58.4731V59.1005C44.8813 59.1005 45.2515 59.261 45.4969 59.5405L45.9684 59.1265ZM44.3326 58.4731C43.647 58.4731 43.0765 58.6762 42.673 59.1233L43.1388 59.5437C43.3931 59.2619 43.7738 59.1005 44.3326 59.1005V58.4731ZM42.6756 59.1204C42.2792 59.549 42.0989 60.1222 42.0989 60.8001H42.7263C42.7263 60.2336 42.8749 59.829 43.1362 59.5465L42.6756 59.1204ZM42.0989 60.8001C42.0989 61.4789 42.2794 62.0569 42.6705 62.5009L43.1413 62.0861C42.8747 61.7834 42.7263 61.3658 42.7263 60.8001H42.0989ZM42.673 62.5037C43.0765 62.9508 43.647 63.1539 44.3326 63.1539V62.5264C43.7738 62.5264 43.3931 62.3651 43.1388 62.0833L42.673 62.5037ZM50.5214 64.8135H50.2076V65.1272H50.5214V64.8135ZM50.5214 59.2135H50.8351V58.8998H50.5214V59.2135ZM49.3214 59.2135H49.0076V59.5272H49.3214V59.2135ZM49.3214 56.8135V56.4998H49.0076V56.8135H49.3214ZM51.7747 56.8135H52.0884V56.4998H51.7747V56.8135ZM51.7747 58.1468H51.461V58.4605H51.7747V58.1468ZM52.3347 58.1468V58.4605H52.4991L52.5926 58.3254L52.3347 58.1468ZM53.508 57.0668L53.6608 57.3408L53.6626 57.3398L53.508 57.0668ZM57.9214 57.5868L57.6979 57.807L57.6995 57.8086L57.9214 57.5868ZM58.8414 64.8135V65.1272H59.1551V64.8135H58.8414ZM56.388 64.8135H56.0743V65.1272H56.388V64.8135ZM55.948 59.2801L55.7262 59.502L55.7296 59.5054L55.948 59.2801ZM53.4014 59.2801L53.1829 59.0549L53.1795 59.0583L53.4014 59.2801ZM52.9747 64.8135V65.1272H53.2884V64.8135H52.9747ZM50.8351 64.8135V59.2135H50.2076V64.8135H50.8351ZM50.5214 58.8998H49.3214V59.5272H50.5214V58.8998ZM49.6351 59.2135V56.8135H49.0076V59.2135H49.6351ZM49.3214 57.1272H51.7747V56.4998H49.3214V57.1272ZM51.461 56.8135V58.1468H52.0884V56.8135H51.461ZM51.7747 58.4605H52.3347V57.8331H51.7747V58.4605ZM52.5926 58.3254C52.8871 57.9001 53.2431 57.5738 53.6608 57.3408L53.3552 56.7928C52.8485 57.0754 52.4223 57.4691 52.0767 57.9682L52.5926 58.3254ZM53.6626 57.3398C54.073 57.1075 54.6152 56.9805 55.308 56.9805V56.3531C54.543 56.3531 53.8853 56.4928 53.3535 56.7938L53.6626 57.3398ZM55.308 56.9805C56.3898 56.9805 57.1696 57.2709 57.6979 57.807L58.1448 57.3666C57.4643 56.6761 56.5018 56.3531 55.308 56.3531V56.9805ZM57.6995 57.8086C58.2431 58.3522 58.5276 59.0887 58.5276 60.0535H59.1551C59.1551 58.956 58.8263 58.0481 58.1432 57.365L57.6995 57.8086ZM58.5276 60.0535V64.8135H59.1551V60.0535H58.5276ZM58.8414 64.4998H56.388V65.1272H58.8414V64.4998ZM56.7017 64.8135V60.5335H56.0743V64.8135H56.7017ZM56.7017 60.5335C56.7017 59.9281 56.5396 59.4168 56.1664 59.0549L55.7296 59.5054C55.9431 59.7124 56.0743 60.0366 56.0743 60.5335H56.7017ZM56.1699 59.0583C55.8067 58.6951 55.2914 58.5398 54.6814 58.5398V59.1672C55.1913 59.1672 55.5205 59.2963 55.7262 59.502L56.1699 59.0583ZM54.6814 58.5398C54.0706 58.5398 53.5537 58.6954 53.183 59.0549L53.6198 59.5054C53.8357 59.296 54.1721 59.1672 54.6814 59.1672V58.5398ZM53.1795 59.0583C52.8172 59.4206 52.661 59.9307 52.661 60.5335H53.2884C53.2884 60.0341 53.4166 59.7085 53.6232 59.502L53.1795 59.0583ZM52.661 60.5335V64.8135H53.2884V60.5335H52.661ZM52.9747 64.4998H50.5214V65.1272H52.9747V64.4998ZM61.9859 64.4668L61.8381 64.7435L61.8411 64.7451L61.9859 64.4668ZM60.4793 63.0135L60.2043 63.1645L60.2069 63.1691L60.4793 63.0135ZM60.4659 58.5868L60.1919 58.4341L60.1911 58.4355L60.4659 58.5868ZM61.9326 57.1601L62.0776 57.4384L62.079 57.4376L61.9326 57.1601ZM66.3859 57.1468L66.2377 57.4233L66.2408 57.425L66.3859 57.1468ZM67.7859 58.5335L67.5087 58.6803L67.5104 58.6834L67.7859 58.5335ZM68.2793 61.4935V61.8072H68.593V61.4935H68.2793ZM62.3193 61.4935V61.1798H61.9405L62.011 61.5519L62.3193 61.4935ZM62.9593 62.6668L62.7617 62.9105L62.7657 62.9137L62.9593 62.6668ZM65.2793 62.8535L65.4316 63.1277L65.4349 63.1259L65.2793 62.8535ZM65.8126 62.1868V61.8731H65.5906L65.5168 62.0824L65.8126 62.1868ZM68.2659 62.1868L68.5739 62.2465L68.6463 61.8731H68.2659V62.1868ZM66.9593 64.2401L67.1385 64.4976L67.1407 64.4961L66.9593 64.2401ZM62.3593 59.8935L62.056 59.813L61.9515 60.2072H62.3593V59.8935ZM65.9326 59.8935V60.2072H66.3078L66.2414 59.8379L65.9326 59.8935ZM65.3726 58.9068L65.1793 59.1542L65.1881 59.1605L65.3726 58.9068ZM64.2793 64.6598C63.4396 64.6598 62.7267 64.4987 62.1308 64.1885L61.8411 64.7451C62.5429 65.1104 63.359 65.2872 64.2793 65.2872V64.6598ZM62.1338 64.1901C61.5355 63.8705 61.0771 63.4274 60.7517 62.8578L60.2069 63.1691C60.5925 63.844 61.1386 64.3698 61.8381 64.7435L62.1338 64.1901ZM60.7542 62.8624C60.4373 62.2855 60.273 61.5971 60.273 60.7868H59.6455C59.6455 61.6832 59.8279 62.4792 60.2043 63.1645L60.7542 62.8624ZM60.273 60.7868C60.273 59.9749 60.4335 59.296 60.7407 58.7382L60.1911 58.4355C59.8228 59.1043 59.6455 59.892 59.6455 60.7868H60.273ZM60.74 58.7395C61.0569 58.1708 61.5009 57.7389 62.0776 57.4384L61.7876 56.8819C61.1021 57.2392 60.5684 57.7584 60.1919 58.4341L60.74 58.7395ZM62.079 57.4376C62.666 57.1278 63.365 56.9672 64.1859 56.9672V56.3398C63.2824 56.3398 62.4792 56.5169 61.7862 56.8827L62.079 57.4376ZM64.1859 56.9672C64.9991 56.9672 65.6791 57.1238 66.2377 57.4233L66.5342 56.8703C65.8661 56.5121 65.0794 56.3398 64.1859 56.3398V56.9672ZM66.2408 57.425C66.7985 57.7159 67.2188 58.1327 67.5087 58.6803L68.0632 58.3867C67.7131 57.7254 67.2 57.2177 66.5311 56.8687L66.2408 57.425ZM67.5104 58.6834C67.8091 59.2325 67.9655 59.903 67.9655 60.7068H68.593C68.593 59.8218 68.4205 59.0433 68.0615 58.3835L67.5104 58.6834ZM67.9655 60.7068V61.4935H68.593V60.7068H67.9655ZM68.2793 61.1798H62.3193V61.8072H68.2793V61.1798ZM62.011 61.5519C62.1192 62.1223 62.3624 62.5867 62.7617 62.9105L63.1569 62.4231C62.8984 62.2136 62.7149 61.8957 62.6275 61.435L62.011 61.5519ZM62.7657 62.9137C63.1644 63.2262 63.6746 63.3672 64.2659 63.3672V62.7398C63.7728 62.7398 63.4119 62.623 63.1528 62.4199L62.7657 62.9137ZM64.2659 63.3672C64.7266 63.3672 65.1254 63.2979 65.4316 63.1277L65.1269 62.5792C64.9532 62.6758 64.6764 62.7398 64.2659 62.7398V63.3672ZM65.4349 63.1259C65.757 62.9418 65.9799 62.6555 66.1084 62.2912L65.5168 62.0824C65.432 62.3226 65.2993 62.4807 65.1236 62.5811L65.4349 63.1259ZM65.8126 62.5005H68.2659V61.8731H65.8126V62.5005ZM67.9579 62.1271C67.8039 62.9217 67.412 63.5347 66.7778 63.9842L67.1407 64.4961C67.911 63.95 68.3902 63.1942 68.5739 62.2465L67.9579 62.1271ZM66.78 63.9827C66.1429 64.4262 65.3168 64.6598 64.2793 64.6598V65.2872C65.4106 65.2872 66.3712 65.0318 67.1385 64.4976L66.78 63.9827ZM62.3593 60.2072H65.9326V59.5798H62.3593V60.2072ZM66.2414 59.8379C66.1507 59.3344 65.931 58.925 65.5571 58.6531L65.1881 59.1605C65.4009 59.3153 65.5545 59.5637 65.6238 59.9491L66.2414 59.8379ZM65.5657 58.6596C65.2086 58.3805 64.7409 58.2598 64.1993 58.2598V58.8872C64.6532 58.8872 64.9678 58.9886 65.1795 59.154L65.5657 58.6596ZM64.1993 58.2598C63.6633 58.2598 63.1944 58.3819 62.8169 58.6515L63.1816 59.1621C63.4264 58.9873 63.7575 58.8872 64.1993 58.8872V58.2598ZM62.8169 58.6515C62.4362 58.9235 62.1868 59.3201 62.056 59.813L62.6625 59.9739C62.7628 59.5957 62.9402 59.3346 63.1816 59.1621L62.8169 58.6515Z" fill="#FD3567" mask="url(#path-6-outside-2_624_202065)"/>
</g>
</svg>
