<svg width="33" height="33" viewBox="0 0 33 33" fill="none" xmlns="http://www.w3.org/2000/svg">
<g clip-path="url(#clip0_350_54021)">
<path fill-rule="evenodd" clip-rule="evenodd" d="M16.5132 3.49674C11.0721 3.49674 6.67985 7.86888 6.67985 13.2392C6.67985 16.2703 8.07572 18.98 10.2747 20.7704C10.5128 20.9643 10.6767 21.2343 10.7387 21.535C10.9881 22.7445 11.3383 24.1403 11.5884 25.0987C11.6409 25.3 11.7774 25.3908 11.9068 25.4037C12.7806 25.4911 14.2571 25.5877 16.5132 25.5877C18.7693 25.5877 20.2458 25.4911 21.1196 25.4037C21.249 25.3908 21.3855 25.3001 21.438 25.0987C21.6881 24.1403 22.0383 22.7445 22.2877 21.535C22.3497 21.2343 22.5136 20.9643 22.7517 20.7704C24.9507 18.98 26.3465 16.2703 26.3465 13.2392C26.3465 7.86888 21.9543 3.49674 16.5132 3.49674ZM4.01318 13.2392C4.01318 6.37559 9.61992 0.830078 16.5132 0.830078C23.4065 0.830078 29.0132 6.37559 29.0132 13.2392C29.0132 16.9377 27.3822 20.2565 24.8034 22.5267C24.5524 23.6833 24.2421 24.9141 24.0183 25.772C23.7878 26.6552 23.1845 27.4059 22.3543 27.7926L22.2527 28.7315C22.0989 30.1509 21.0809 31.4395 19.5212 31.6442C18.7447 31.7461 17.7349 31.8299 16.5131 31.8299C15.2283 31.8299 14.2315 31.7373 13.4986 31.6264C12.1405 31.4209 11.2479 30.3423 11.0211 29.1343C10.9506 28.7587 10.8717 28.3225 10.7907 27.8448C9.89952 27.4763 9.24938 26.6968 9.00812 25.772C8.78425 24.9141 8.47398 23.6833 8.22298 22.5267C5.64421 20.2565 4.01318 16.9377 4.01318 13.2392ZM22.3465 13.2389C22.3465 10.0173 19.7349 7.40561 16.5131 7.40561C15.7768 7.40561 15.1798 6.80864 15.1798 6.07226C15.1798 5.33588 15.7768 4.73893 16.5131 4.73893C21.2076 4.73893 25.0132 8.54454 25.0132 13.2389C25.0132 13.9753 24.4163 14.5723 23.6799 14.5723C22.9435 14.5723 22.3465 13.9753 22.3465 13.2389Z" fill="#BC244A"/>
</g>
<defs>
<clipPath id="clip0_350_54021">
<rect width="32" height="32" fill="white" transform="translate(0.5 0.5)"/>
</clipPath>
</defs>
</svg>
