<svg width="33" height="33" viewBox="0 0 33 33" fill="none" xmlns="http://www.w3.org/2000/svg">
<g clip-path="url(#clip0_530_441)">
<path fill-rule="evenodd" clip-rule="evenodd" d="M16.5127 3.49638C11.0716 3.49638 6.67936 7.86851 6.67936 13.2388C6.67936 16.27 8.07523 18.9796 10.2742 20.77C10.5123 20.9639 10.6762 21.234 10.7382 21.5346C10.9876 22.7441 11.3378 24.14 11.5879 25.0984C11.6404 25.2996 11.7769 25.3904 11.9063 25.4034C12.7801 25.4908 14.2566 25.5874 16.5127 25.5874C18.7688 25.5874 20.2453 25.4908 21.1191 25.4034C21.2485 25.3904 21.385 25.2997 21.4375 25.0984C21.6876 24.14 22.0378 22.7441 22.2872 21.5346C22.3492 21.234 22.5131 20.9639 22.7512 20.77C24.9502 18.9796 26.346 16.27 26.346 13.2388C26.346 7.86851 21.9538 3.49638 16.5127 3.49638ZM4.0127 13.2388C4.0127 6.37522 9.61943 0.829712 16.5127 0.829712C23.406 0.829712 29.0127 6.37522 29.0127 13.2388C29.0127 16.9373 27.3817 20.2562 24.8029 22.5264C24.5519 23.6829 24.2416 24.9138 24.0178 25.7716C23.7873 26.6548 23.184 27.4055 22.3538 27.7922L22.2522 28.7311C22.0984 30.1505 21.0804 31.4391 19.5207 31.6438C18.7442 31.7458 17.7344 31.8296 16.5126 31.8296C15.2278 31.8296 14.231 31.7369 13.4981 31.626C12.14 31.4206 11.2474 30.3419 11.0206 29.134C10.9501 28.7584 10.8712 28.3221 10.7902 27.8444C9.89903 27.4759 9.2489 26.6964 9.00763 25.7716C8.78376 24.9138 8.4735 23.6829 8.2225 22.5264C5.64372 20.2562 4.0127 16.9373 4.0127 13.2388ZM22.346 13.2386C22.346 10.0169 19.7344 7.40524 16.5126 7.40524C15.7763 7.40524 15.1793 6.80828 15.1793 6.0719C15.1793 5.33552 15.7763 4.73856 16.5126 4.73856C21.2071 4.73856 25.0127 8.54417 25.0127 13.2386C25.0127 13.975 24.4158 14.5719 23.6794 14.5719C22.943 14.5719 22.346 13.975 22.346 13.2386Z" fill="#FD3567"/>
</g>
<defs>
<clipPath id="clip0_530_441">
<rect width="32" height="32" fill="white" transform="translate(0.5 0.5)"/>
</clipPath>
</defs>
</svg>
