<svg width="64" height="64" viewBox="0 0 64 64" fill="none" xmlns="http://www.w3.org/2000/svg">
<mask id="mask0_592_22567" style="mask-type:alpha" maskUnits="userSpaceOnUse" x="0" y="0" width="64" height="64">
<circle cx="32" cy="32" r="32" fill="#D9D9D9"/>
</mask>
<g mask="url(#mask0_592_22567)">
<path d="M-7.93333 15V4.2H-5.42667V12.8133H0.0133333V15H-7.93333ZM1.16813 15V7H3.62146V15H1.16813ZM2.39479 6.32C2.03035 6.32 1.71924 6.19111 1.46146 5.93333C1.20368 5.67556 1.07479 5.36444 1.07479 5C1.07479 4.63556 1.20368 4.32444 1.46146 4.06667C1.71924 3.80889 2.03035 3.68 2.39479 3.68C2.75924 3.68 3.07035 3.80889 3.32812 4.06667C3.5859 4.32444 3.71479 4.63556 3.71479 5C3.71479 5.36444 3.5859 5.67556 3.32812 5.93333C3.07035 6.19111 2.75924 6.32 2.39479 6.32ZM9.25542 18.36C8.01986 18.36 7.01542 18.1111 6.24208 17.6133C5.47764 17.1244 5.02431 16.44 4.88208 15.56H7.46875C7.67319 16.1467 8.23764 16.44 9.16208 16.44C9.81097 16.44 10.3043 16.2933 10.6421 16C10.9888 15.7067 11.1621 15.2889 11.1621 14.7467V13.7467H11.0954C10.8465 14.1644 10.5176 14.48 10.1088 14.6933C9.70875 14.8978 9.21986 15 8.64208 15C7.89542 15 7.24208 14.8356 6.68208 14.5067C6.13097 14.1689 5.69986 13.6933 5.38875 13.08C5.08653 12.4667 4.93542 11.7467 4.93542 10.92C4.93542 9.67556 5.27764 8.68444 5.96208 7.94667C6.65542 7.20889 7.61097 6.84 8.82875 6.84C9.50431 6.84 10.0821 6.97333 10.5621 7.24C11.051 7.49778 11.4376 7.86222 11.7221 8.33333H12.2821V7H14.7354V9.4H13.5354V14.7467C13.5354 15.9022 13.1665 16.7911 12.4288 17.4133C11.691 18.0444 10.6332 18.36 9.25542 18.36ZM9.25542 12.8667C9.83319 12.8667 10.2821 12.7111 10.6021 12.4C10.9221 12.0889 11.0821 11.6578 11.0821 11.1067V10.7067C11.0821 10.1644 10.9176 9.74222 10.5888 9.44C10.2688 9.12889 9.82431 8.97333 9.25542 8.97333C8.65986 8.97333 8.19764 9.14667 7.86875 9.49333C7.54875 9.83111 7.38875 10.3111 7.38875 10.9333C7.38875 11.5556 7.54875 12.0356 7.86875 12.3733C8.19764 12.7022 8.65986 12.8667 9.25542 12.8667ZM15.8 15V3.8H18.2533V8.09333H18.3067C18.5644 7.68444 18.9022 7.37778 19.32 7.17333C19.7467 6.96 20.2578 6.85333 20.8533 6.85333C21.8578 6.85333 22.6533 7.16 23.24 7.77333C23.8267 8.38667 24.12 9.20889 24.12 10.24V15H21.6667V10.72C21.6667 10.1689 21.52 9.75111 21.2267 9.46667C20.9422 9.18222 20.52 9.04 19.96 9.04C19.4 9.04 18.9733 9.18222 18.68 9.46667C18.3956 9.75111 18.2533 10.1689 18.2533 10.72V15H15.8ZM28.3927 15C27.7705 15 27.286 14.8444 26.9394 14.5333C26.6016 14.2133 26.4327 13.7289 26.4327 13.08V8.92H25.0994V7H26.4594V4.6H28.8594V7H30.6194V8.92H28.886V13.08H30.806V15H28.3927ZM35.5783 15.16C34.3783 15.16 33.4317 14.9067 32.7383 14.4C32.0539 13.8933 31.685 13.1867 31.6317 12.28H33.9917C34.0628 12.6356 34.2317 12.8978 34.4983 13.0667C34.7739 13.2356 35.1694 13.32 35.685 13.32C36.485 13.32 36.885 13.1111 36.885 12.6933C36.885 12.5244 36.8228 12.3911 36.6983 12.2933C36.5828 12.1867 36.3872 12.1067 36.1117 12.0533L34.325 11.7067C32.6894 11.3867 31.8717 10.6222 31.8717 9.41333C31.8717 8.63111 32.1872 8.00889 32.8183 7.54667C33.4494 7.07556 34.3206 6.84 35.4317 6.84C36.5428 6.84 37.4183 7.08 38.0583 7.56C38.6983 8.04 39.045 8.71556 39.0983 9.58667H36.7383C36.6494 9.24 36.4894 8.99111 36.2583 8.84C36.0361 8.68 35.7072 8.6 35.2717 8.6C34.9161 8.6 34.6406 8.64889 34.445 8.74667C34.2583 8.84444 34.165 8.99111 34.165 9.18667C34.165 9.32889 34.2228 9.44889 34.3383 9.54667C34.4539 9.64444 34.6272 9.71556 34.8583 9.76L36.6983 10.12C37.5517 10.2889 38.1783 10.5644 38.5783 10.9467C38.9783 11.3289 39.1783 11.8444 39.1783 12.4933C39.1783 13.3289 38.8672 13.9822 38.245 14.4533C37.6317 14.9244 36.7428 15.16 35.5783 15.16ZM48.0123 15.16C47.1323 15.16 46.3634 14.9911 45.7056 14.6533C45.0478 14.3067 44.5367 13.8222 44.1723 13.2C43.8167 12.5689 43.639 11.8311 43.639 10.9867C43.639 10.1422 43.8167 9.40889 44.1723 8.78667C44.5367 8.16444 45.0478 7.68444 45.7056 7.34667C46.3634 7.00889 47.1367 6.84 48.0256 6.84C48.9145 6.84 49.679 7.00889 50.319 7.34667C50.9678 7.68444 51.4701 8.16444 51.8256 8.78667C52.1812 9.40889 52.359 10.1467 52.359 11C52.359 11.8444 52.1812 12.5822 51.8256 13.2133C51.4701 13.8356 50.9678 14.3156 50.319 14.6533C49.6701 14.9911 48.9012 15.16 48.0123 15.16ZM48.0123 13.0267C48.6256 13.0267 49.0923 12.8444 49.4123 12.48C49.7412 12.1067 49.9056 11.6089 49.9056 10.9867C49.9056 10.3644 49.7412 9.87556 49.4123 9.52C49.0923 9.15556 48.6256 8.97333 48.0123 8.97333C47.3901 8.97333 46.9145 9.15556 46.5856 9.52C46.2567 9.87556 46.0923 10.3644 46.0923 10.9867C46.0923 11.6089 46.2567 12.1067 46.5856 12.48C46.9145 12.8444 47.3901 13.0267 48.0123 13.0267ZM54.201 15V9.4H53.001V7H55.4544V8.33333H56.0144C56.3344 7.87111 56.7255 7.51111 57.1877 7.25333C57.6588 6.98667 58.2588 6.85333 58.9877 6.85333C60.1255 6.85333 60.9966 7.16 61.601 7.77333C62.2144 8.38667 62.521 9.20889 62.521 10.24V15H60.0677V10.72C60.0677 10.1689 59.921 9.75111 59.6277 9.46667C59.3433 9.18222 58.921 9.04 58.361 9.04C57.801 9.04 57.3744 9.18222 57.081 9.46667C56.7966 9.75111 56.6544 10.1689 56.6544 10.72V15H54.201Z" fill="#FD3567"/>
<mask id="path-3-outside-1_592_22567" maskUnits="userSpaceOnUse" x="10" y="20" width="68" height="15" fill="black">
<rect fill="white" x="10" y="20" width="68" height="15"/>
<path d="M11 31V20.875H13.35V28.95H18.45V31H11ZM19.5326 31V23.5H21.8326V31H19.5326ZM20.6826 22.8625C20.341 22.8625 20.0493 22.7417 19.8076 22.5C19.566 22.2583 19.4451 21.9667 19.4451 21.625C19.4451 21.2833 19.566 20.9917 19.8076 20.75C20.0493 20.5083 20.341 20.3875 20.6826 20.3875C21.0243 20.3875 21.316 20.5083 21.5576 20.75C21.7993 20.9917 21.9201 21.2833 21.9201 21.625C21.9201 21.9667 21.7993 22.2583 21.5576 22.5C21.316 22.7417 21.0243 22.8625 20.6826 22.8625ZM27.1145 34.15C25.9561 34.15 25.0145 33.9167 24.2895 33.45C23.5728 32.9917 23.1478 32.35 23.0145 31.525H25.4395C25.6311 32.075 26.1603 32.35 27.027 32.35C27.6353 32.35 28.0978 32.2125 28.4145 31.9375C28.7395 31.6625 28.902 31.2708 28.902 30.7625V29.825H28.8395C28.6061 30.2167 28.2978 30.5125 27.9145 30.7125C27.5395 30.9042 27.0811 31 26.5395 31C25.8395 31 25.227 30.8458 24.702 30.5375C24.1853 30.2208 23.7811 29.775 23.4895 29.2C23.2061 28.625 23.0645 27.95 23.0645 27.175C23.0645 26.0083 23.3853 25.0792 24.027 24.3875C24.677 23.6958 25.5728 23.35 26.7145 23.35C27.3478 23.35 27.8895 23.475 28.3395 23.725C28.7978 23.9667 29.1603 24.3083 29.427 24.75H29.952V23.5H32.252V25.75H31.127V30.7625C31.127 31.8458 30.7811 32.6792 30.0895 33.2625C29.3978 33.8542 28.4061 34.15 27.1145 34.15ZM27.1145 29C27.6561 29 28.077 28.8542 28.377 28.5625C28.677 28.2708 28.827 27.8667 28.827 27.35V26.975C28.827 26.4667 28.6728 26.0708 28.3645 25.7875C28.0645 25.4958 27.6478 25.35 27.1145 25.35C26.5561 25.35 26.1228 25.5125 25.8145 25.8375C25.5145 26.1542 25.3645 26.6042 25.3645 27.1875C25.3645 27.7708 25.5145 28.2208 25.8145 28.5375C26.1228 28.8458 26.5561 29 27.1145 29ZM33.25 31V20.5H35.55V24.525H35.6C35.8417 24.1417 36.1583 23.8542 36.55 23.6625C36.95 23.4625 37.4292 23.3625 37.9875 23.3625C38.9292 23.3625 39.675 23.65 40.225 24.225C40.775 24.8 41.05 25.5708 41.05 26.5375V31H38.75V26.9875C38.75 26.4708 38.6125 26.0792 38.3375 25.8125C38.0708 25.5458 37.675 25.4125 37.15 25.4125C36.625 25.4125 36.225 25.5458 35.95 25.8125C35.6833 26.0792 35.55 26.4708 35.55 26.9875V31H33.25ZM45.0557 31C44.4723 31 44.0182 30.8542 43.6932 30.5625C43.3765 30.2625 43.2182 29.8083 43.2182 29.2V25.3H41.9682V23.5H43.2432V21.25H45.4932V23.5H47.1432V25.3H45.5182V29.2H47.3182V31H45.0557ZM51.7922 31.15C50.6672 31.15 49.7797 30.9125 49.1297 30.4375C48.488 29.9625 48.1422 29.3 48.0922 28.45H50.3047C50.3714 28.7833 50.5297 29.0292 50.7797 29.1875C51.038 29.3458 51.4089 29.425 51.8922 29.425C52.6422 29.425 53.0172 29.2292 53.0172 28.8375C53.0172 28.6792 52.9589 28.5542 52.8422 28.4625C52.7339 28.3625 52.5505 28.2875 52.2922 28.2375L50.6172 27.9125C49.0839 27.6125 48.3172 26.8958 48.3172 25.7625C48.3172 25.0292 48.613 24.4458 49.2047 24.0125C49.7964 23.5708 50.613 23.35 51.6547 23.35C52.6964 23.35 53.5172 23.575 54.1172 24.025C54.7172 24.475 55.0422 25.1083 55.0922 25.925H52.8797C52.7964 25.6 52.6464 25.3667 52.4297 25.225C52.2214 25.075 51.913 25 51.5047 25C51.1714 25 50.913 25.0458 50.7297 25.1375C50.5547 25.2292 50.4672 25.3667 50.4672 25.55C50.4672 25.6833 50.5214 25.7958 50.6297 25.8875C50.738 25.9792 50.9005 26.0458 51.1172 26.0875L52.8422 26.425C53.6422 26.5833 54.2297 26.8417 54.6047 27.2C54.9797 27.5583 55.1672 28.0417 55.1672 28.65C55.1672 29.4333 54.8755 30.0458 54.2922 30.4875C53.7172 30.9292 52.8839 31.15 51.7922 31.15ZM63.449 31.15C62.624 31.15 61.9032 30.9917 61.2865 30.675C60.6699 30.35 60.1907 29.8958 59.849 29.3125C59.5157 28.7208 59.349 28.0292 59.349 27.2375C59.349 26.4458 59.5157 25.7583 59.849 25.175C60.1907 24.5917 60.6699 24.1417 61.2865 23.825C61.9032 23.5083 62.6282 23.35 63.4615 23.35C64.2949 23.35 65.0115 23.5083 65.6115 23.825C66.2199 24.1417 66.6907 24.5917 67.024 25.175C67.3574 25.7583 67.524 26.45 67.524 27.25C67.524 28.0417 67.3574 28.7333 67.024 29.325C66.6907 29.9083 66.2199 30.3583 65.6115 30.675C65.0032 30.9917 64.2824 31.15 63.449 31.15ZM63.449 29.15C64.024 29.15 64.4615 28.9792 64.7615 28.6375C65.0699 28.2875 65.224 27.8208 65.224 27.2375C65.224 26.6542 65.0699 26.1958 64.7615 25.8625C64.4615 25.5208 64.024 25.35 63.449 25.35C62.8657 25.35 62.4199 25.5208 62.1115 25.8625C61.8032 26.1958 61.649 26.6542 61.649 27.2375C61.649 27.8208 61.8032 28.2875 62.1115 28.6375C62.4199 28.9792 62.8657 29.15 63.449 29.15ZM69.251 31V25.75H68.126V23.5H70.426V24.75H70.951C71.251 24.3167 71.6176 23.9792 72.051 23.7375C72.4926 23.4875 73.0551 23.3625 73.7385 23.3625C74.8051 23.3625 75.6218 23.65 76.1885 24.225C76.7635 24.8 77.051 25.5708 77.051 26.5375V31H74.751V26.9875C74.751 26.4708 74.6135 26.0792 74.3385 25.8125C74.0718 25.5458 73.676 25.4125 73.151 25.4125C72.626 25.4125 72.226 25.5458 71.951 25.8125C71.6843 26.0792 71.551 26.4708 71.551 26.9875V31H69.251Z"/>
</mask>
<path d="M11 31H10.6863V31.3137H11V31ZM11 20.875V20.5613H10.6863V20.875H11ZM13.35 20.875H13.6637V20.5613H13.35V20.875ZM13.35 28.95H13.0363V29.2637H13.35V28.95ZM18.45 28.95H18.7637V28.6363H18.45V28.95ZM18.45 31V31.3137H18.7637V31H18.45ZM11.3137 31V20.875H10.6863V31H11.3137ZM11 21.1887H13.35V20.5613H11V21.1887ZM13.0363 20.875V28.95H13.6637V20.875H13.0363ZM13.35 29.2637H18.45V28.6363H13.35V29.2637ZM18.1363 28.95V31H18.7637V28.95H18.1363ZM18.45 30.6863H11V31.3137H18.45V30.6863ZM19.5326 31H19.2189V31.3137H19.5326V31ZM19.5326 23.5V23.1863H19.2189V23.5H19.5326ZM21.8326 23.5H22.1463V23.1863H21.8326V23.5ZM21.8326 31V31.3137H22.1463V31H21.8326ZM19.8076 22.5L19.5858 22.7218L19.5858 22.7218L19.8076 22.5ZM19.8076 20.75L20.0295 20.9718L20.0295 20.9718L19.8076 20.75ZM21.5576 20.75L21.3358 20.9718L21.3358 20.9718L21.5576 20.75ZM21.5576 22.5L21.7795 22.7218L21.7795 22.7218L21.5576 22.5ZM19.8463 31V23.5H19.2189V31H19.8463ZM19.5326 23.8137H21.8326V23.1863H19.5326V23.8137ZM21.5189 23.5V31H22.1463V23.5H21.5189ZM21.8326 30.6863H19.5326V31.3137H21.8326V30.6863ZM20.6826 22.5488C20.4242 22.5488 20.2123 22.461 20.0295 22.2782L19.5858 22.7218C19.8863 23.0223 20.2577 23.1762 20.6826 23.1762V22.5488ZM20.0295 22.2782C19.8466 22.0953 19.7588 21.8834 19.7588 21.625H19.1314C19.1314 22.0499 19.2853 22.4214 19.5858 22.7218L20.0295 22.2782ZM19.7588 21.625C19.7588 21.3666 19.8466 21.1547 20.0295 20.9718L19.5858 20.5282C19.2853 20.8286 19.1314 21.2001 19.1314 21.625H19.7588ZM20.0295 20.9718C20.2123 20.789 20.4242 20.7012 20.6826 20.7012V20.0738C20.2577 20.0738 19.8863 20.2277 19.5858 20.5282L20.0295 20.9718ZM20.6826 20.7012C20.9411 20.7012 21.1529 20.789 21.3358 20.9718L21.7795 20.5282C21.479 20.2277 21.1075 20.0738 20.6826 20.0738V20.7012ZM21.3358 20.9718C21.5186 21.1547 21.6064 21.3666 21.6064 21.625H22.2338C22.2338 21.2001 22.0799 20.8286 21.7795 20.5282L21.3358 20.9718ZM21.6064 21.625C21.6064 21.8834 21.5186 22.0953 21.3358 22.2782L21.7795 22.7218C22.0799 22.4214 22.2338 22.0499 22.2338 21.625H21.6064ZM21.3358 22.2782C21.1529 22.461 20.9411 22.5488 20.6826 22.5488V23.1762C21.1075 23.1762 21.479 23.0223 21.7795 22.7218L21.3358 22.2782ZM24.2895 33.45L24.4593 33.1862L24.4585 33.1857L24.2895 33.45ZM23.0145 31.525V31.2113H22.646L22.7047 31.5751L23.0145 31.525ZM25.4395 31.525L25.7357 31.4218L25.6624 31.2113H25.4395V31.525ZM28.4145 31.9375L28.2118 31.698L28.2087 31.7006L28.4145 31.9375ZM28.902 29.825H29.2157V29.5113H28.902V29.825ZM28.8395 29.825V29.5113H28.6612L28.5699 29.6644L28.8395 29.825ZM27.9145 30.7125L28.0572 30.9919L28.0596 30.9906L27.9145 30.7125ZM24.702 30.5375L24.538 30.805L24.5431 30.808L24.702 30.5375ZM23.4895 29.2L23.208 29.3387L23.2097 29.3419L23.4895 29.2ZM24.027 24.3875L23.7983 24.1727L23.797 24.1741L24.027 24.3875ZM28.3395 23.725L28.1871 23.9993L28.1931 24.0025L28.3395 23.725ZM29.427 24.75L29.1584 24.9122L29.2499 25.0637H29.427V24.75ZM29.952 24.75V25.0637H30.2657V24.75H29.952ZM29.952 23.5V23.1863H29.6382V23.5H29.952ZM32.252 23.5H32.5657V23.1863H32.252V23.5ZM32.252 25.75V26.0637H32.5657V25.75H32.252ZM31.127 25.75V25.4363H30.8132V25.75H31.127ZM30.0895 33.2625L29.8872 33.0227L29.8855 33.0241L30.0895 33.2625ZM28.3645 25.7875L28.1457 26.0125L28.1522 26.0185L28.3645 25.7875ZM25.8145 25.8375L25.5869 25.6216L25.5867 25.6217L25.8145 25.8375ZM25.8145 28.5375L25.5866 28.7533L25.5926 28.7593L25.8145 28.5375ZM27.1145 33.8363C25.9962 33.8363 25.119 33.6109 24.4593 33.1862L24.1197 33.7138C24.9099 34.2225 25.916 34.4637 27.1145 34.4637V33.8363ZM24.4585 33.1857C23.8155 32.7745 23.443 32.21 23.3242 31.4749L22.7047 31.5751C22.8526 32.49 23.33 33.2088 24.1204 33.7143L24.4585 33.1857ZM23.0145 31.8387H25.4395V31.2113H23.0145V31.8387ZM25.1432 31.6282C25.2661 31.9808 25.5017 32.2487 25.8354 32.4221C26.1603 32.591 26.5645 32.6637 27.027 32.6637V32.0363C26.6228 32.0363 26.329 31.9715 26.1247 31.8654C25.9293 31.7638 25.8045 31.6192 25.7357 31.4218L25.1432 31.6282ZM27.027 32.6637C27.6775 32.6637 28.2254 32.5172 28.6202 32.1744L28.2087 31.7006C27.9701 31.9078 27.5931 32.0363 27.027 32.0363V32.6637ZM28.6171 32.177C29.0263 31.8307 29.2157 31.3434 29.2157 30.7625H28.5882C28.5882 31.1983 28.4526 31.4943 28.2118 31.698L28.6171 32.177ZM29.2157 30.7625V29.825H28.5882V30.7625H29.2157ZM28.902 29.5113H28.8395V30.1387H28.902V29.5113ZM28.5699 29.6644C28.3647 30.009 28.0982 30.2627 27.7693 30.4344L28.0596 30.9906C28.4973 30.7623 28.8476 30.4244 29.109 29.9856L28.5699 29.6644ZM27.7717 30.4331C27.4517 30.5967 27.0452 30.6863 26.5395 30.6863V31.3137C27.117 31.3137 27.6272 31.2116 28.0572 30.9919L27.7717 30.4331ZM26.5395 30.6863C25.8868 30.6863 25.3308 30.543 24.8608 30.267L24.5431 30.808C25.1231 31.1487 25.7921 31.3137 26.5395 31.3137V30.6863ZM24.8659 30.27C24.4019 29.9856 24.0364 29.5848 23.7692 29.0581L23.2097 29.3419C23.5258 29.9652 23.9687 30.456 24.538 30.805L24.8659 30.27ZM23.7709 29.0613C23.5128 28.5376 23.3782 27.9118 23.3782 27.175H22.7507C22.7507 27.9882 22.8995 28.7124 23.208 29.3387L23.7709 29.0613ZM23.3782 27.175C23.3782 26.0679 23.6811 25.2216 24.2569 24.6009L23.797 24.1741C23.0895 24.9368 22.7507 25.9488 22.7507 27.175H23.3782ZM24.2556 24.6023C24.8344 23.9864 25.6404 23.6637 26.7145 23.6637V23.0363C25.5052 23.0363 24.5195 23.4053 23.7983 24.1727L24.2556 24.6023ZM26.7145 23.6637C27.3066 23.6637 27.7933 23.7805 28.1871 23.9992L28.4918 23.4508C27.9856 23.1695 27.3889 23.0363 26.7145 23.0363V23.6637ZM28.1931 24.0025C28.6012 24.2177 28.9213 24.5196 29.1584 24.9122L29.6955 24.5878C29.3992 24.0971 28.9944 23.7157 28.4858 23.4475L28.1931 24.0025ZM29.427 25.0637H29.952V24.4363H29.427V25.0637ZM30.2657 24.75V23.5H29.6382V24.75H30.2657ZM29.952 23.8137H32.252V23.1863H29.952V23.8137ZM31.9382 23.5V25.75H32.5657V23.5H31.9382ZM32.252 25.4363H31.127V26.0637H32.252V25.4363ZM30.8132 25.75V30.7625H31.4407V25.75H30.8132ZM30.8132 30.7625C30.8132 31.7735 30.4941 32.5108 29.8872 33.0227L30.2917 33.5023C31.0681 32.8475 31.4407 31.9182 31.4407 30.7625H30.8132ZM29.8855 33.0241C29.2704 33.5502 28.3623 33.8363 27.1145 33.8363V34.4637C28.45 34.4637 29.5251 34.1581 30.2934 33.5009L29.8855 33.0241ZM27.1145 29.3137C27.7128 29.3137 28.2213 29.1514 28.5956 28.7874L28.1583 28.3376C27.9326 28.557 27.5995 28.6863 27.1145 28.6863V29.3137ZM28.5956 28.7874C28.9701 28.4234 29.1407 27.9302 29.1407 27.35H28.5132C28.5132 27.8031 28.3838 28.1183 28.1583 28.3376L28.5956 28.7874ZM29.1407 27.35V26.975H28.5132V27.35H29.1407ZM29.1407 26.975C29.1407 26.3992 28.9633 25.9117 28.5767 25.5565L28.1522 26.0185C28.3823 26.23 28.5132 26.5342 28.5132 26.975H29.1407ZM28.5831 25.5626C28.2097 25.1995 27.706 25.0363 27.1145 25.0363V25.6637C27.5896 25.6637 27.9192 25.7922 28.1458 26.0124L28.5831 25.5626ZM27.1145 25.0363C26.4927 25.0363 25.9684 25.2194 25.5869 25.6216L26.042 26.0534C26.2772 25.8056 26.6196 25.6637 27.1145 25.6637V25.0363ZM25.5867 25.6217C25.215 26.0141 25.0507 26.5516 25.0507 27.1875H25.6782C25.6782 26.6567 25.8139 26.2942 26.0422 26.0533L25.5867 25.6217ZM25.0507 27.1875C25.0507 27.8234 25.215 28.3609 25.5867 28.7533L26.0422 28.3217C25.8139 28.0808 25.6782 27.7183 25.6782 27.1875H25.0507ZM25.5926 28.7593C25.9751 29.1418 26.4974 29.3137 27.1145 29.3137V28.6863C26.6149 28.6863 26.2705 28.5499 26.0363 28.3157L25.5926 28.7593ZM33.25 31H32.9363V31.3137H33.25V31ZM33.25 20.5V20.1863H32.9363V20.5H33.25ZM35.55 20.5H35.8637V20.1863H35.55V20.5ZM35.55 24.525H35.2363V24.8387H35.55V24.525ZM35.6 24.525V24.8387H35.7731L35.8654 24.6923L35.6 24.525ZM36.55 23.6625L36.6879 23.9443L36.6903 23.9431L36.55 23.6625ZM40.225 24.225L39.9983 24.4419L40.225 24.225ZM41.05 31V31.3137H41.3637V31H41.05ZM38.75 31H38.4363V31.3137H38.75V31ZM38.3375 25.8125L38.1156 26.0344L38.1191 26.0377L38.3375 25.8125ZM35.95 25.8125L35.7316 25.5872L35.7282 25.5907L35.95 25.8125ZM35.55 31V31.3137H35.8637V31H35.55ZM33.5637 31V20.5H32.9363V31H33.5637ZM33.25 20.8137H35.55V20.1863H33.25V20.8137ZM35.2363 20.5V24.525H35.8637V20.5H35.2363ZM35.55 24.8387H35.6V24.2113H35.55V24.8387ZM35.8654 24.6923C36.0773 24.3562 36.3506 24.1093 36.6879 23.9443L36.4121 23.3807C35.966 23.599 35.6061 23.9271 35.3346 24.3577L35.8654 24.6923ZM36.6903 23.9431C37.0373 23.7696 37.466 23.6762 37.9875 23.6762V23.0488C37.3923 23.0488 36.8627 23.1554 36.4097 23.3819L36.6903 23.9431ZM37.9875 23.6762C38.8605 23.6762 39.5183 23.94 39.9983 24.4419L40.4517 24.0081C39.8317 23.36 38.9978 23.0488 37.9875 23.0488V23.6762ZM39.9983 24.4419C40.4809 24.9464 40.7363 25.6332 40.7363 26.5375H41.3637C41.3637 25.5084 41.0691 24.6536 40.4517 24.0081L39.9983 24.4419ZM40.7363 26.5375V31H41.3637V26.5375H40.7363ZM41.05 30.6863H38.75V31.3137H41.05V30.6863ZM39.0637 31V26.9875H38.4363V31H39.0637ZM39.0637 26.9875C39.0637 26.4166 38.9108 25.9314 38.5559 25.5873L38.1191 26.0377C38.3142 26.2269 38.4363 26.5251 38.4363 26.9875H39.0637ZM38.5593 25.5907C38.2139 25.2452 37.725 25.0988 37.15 25.0988V25.7262C37.625 25.7262 37.9277 25.8464 38.1157 26.0343L38.5593 25.5907ZM37.15 25.0988C36.5742 25.0988 36.084 25.2455 35.7316 25.5873L36.1684 26.0377C36.366 25.8461 36.6758 25.7262 37.15 25.7262V25.0988ZM35.7282 25.5907C35.3836 25.9352 35.2363 26.4191 35.2363 26.9875H35.8637C35.8637 26.5225 35.9831 26.2231 36.1718 26.0343L35.7282 25.5907ZM35.2363 26.9875V31H35.8637V26.9875H35.2363ZM35.55 30.6863H33.25V31.3137H35.55V30.6863ZM43.6932 30.5625L43.4773 30.7903L43.4836 30.796L43.6932 30.5625ZM43.2182 25.3H43.5319V24.9863H43.2182V25.3ZM41.9682 25.3H41.6544V25.6137H41.9682V25.3ZM41.9682 23.5V23.1863H41.6544V23.5H41.9682ZM43.2432 23.5V23.8137H43.5569V23.5H43.2432ZM43.2432 21.25V20.9363H42.9294V21.25H43.2432ZM45.4932 21.25H45.8069V20.9363H45.4932V21.25ZM45.4932 23.5H45.1794V23.8137H45.4932V23.5ZM47.1432 23.5H47.4569V23.1863H47.1432V23.5ZM47.1432 25.3V25.6137H47.4569V25.3H47.1432ZM45.5182 25.3V24.9863H45.2044V25.3H45.5182ZM45.5182 29.2H45.2044V29.5137H45.5182V29.2ZM47.3182 29.2H47.6319V28.8863H47.3182V29.2ZM47.3182 31V31.3137H47.6319V31H47.3182ZM45.0557 30.6863C44.5233 30.6863 44.1531 30.5538 43.9027 30.329L43.4836 30.796C43.8832 31.1546 44.4214 31.3137 45.0557 31.3137V30.6863ZM43.9089 30.3348C43.6762 30.1143 43.5319 29.757 43.5319 29.2H42.9044C42.9044 29.8596 43.0767 30.4107 43.4774 30.7902L43.9089 30.3348ZM43.5319 29.2V25.3H42.9044V29.2H43.5319ZM43.2182 24.9863H41.9682V25.6137H43.2182V24.9863ZM42.2819 25.3V23.5H41.6544V25.3H42.2819ZM41.9682 23.8137H43.2432V23.1863H41.9682V23.8137ZM43.5569 23.5V21.25H42.9294V23.5H43.5569ZM43.2432 21.5637H45.4932V20.9363H43.2432V21.5637ZM45.1794 21.25V23.5H45.8069V21.25H45.1794ZM45.4932 23.8137H47.1432V23.1863H45.4932V23.8137ZM46.8294 23.5V25.3H47.4569V23.5H46.8294ZM47.1432 24.9863H45.5182V25.6137H47.1432V24.9863ZM45.2044 25.3V29.2H45.8319V25.3H45.2044ZM45.5182 29.5137H47.3182V28.8863H45.5182V29.5137ZM47.0044 29.2V31H47.6319V29.2H47.0044ZM47.3182 30.6863H45.0557V31.3137H47.3182V30.6863ZM49.1297 30.4375L48.943 30.6897L48.9446 30.6908L49.1297 30.4375ZM48.0922 28.45V28.1363H47.7595L47.779 28.4684L48.0922 28.45ZM50.3047 28.45L50.6123 28.3885L50.5619 28.1363H50.3047V28.45ZM50.7797 29.1875L50.6118 29.4526L50.6157 29.455L50.7797 29.1875ZM52.8422 28.4625L52.6294 28.693L52.6386 28.7015L52.6484 28.7092L52.8422 28.4625ZM52.2922 28.2375L52.2324 28.5455L52.2326 28.5455L52.2922 28.2375ZM50.6172 27.9125L50.5569 28.2204L50.5574 28.2205L50.6172 27.9125ZM49.2047 24.0125L49.3901 24.2656L49.3924 24.2639L49.2047 24.0125ZM55.0922 25.925V26.2387H55.4257L55.4053 25.9058L55.0922 25.925ZM52.8797 25.925L52.5758 26.0029L52.6363 26.2387H52.8797V25.925ZM52.4297 25.225L52.2462 25.4799L52.258 25.4876L52.4297 25.225ZM50.7297 25.1375L50.5894 24.8568L50.5841 24.8596L50.7297 25.1375ZM51.1172 26.0875L51.1774 25.7796L51.1764 25.7794L51.1172 26.0875ZM52.8422 26.425L52.9031 26.1172L52.9024 26.1171L52.8422 26.425ZM54.2922 30.4875L54.1028 30.2374L54.1011 30.2387L54.2922 30.4875ZM51.7922 30.8363C50.708 30.8363 49.8935 30.6071 49.3148 30.1842L48.9446 30.6908C49.6659 31.2179 50.6264 31.4637 51.7922 31.4637V30.8363ZM49.3163 30.1853C48.7549 29.7697 48.4503 29.1958 48.4054 28.4316L47.779 28.4684C47.834 29.4042 48.2211 30.1553 48.943 30.6897L49.3163 30.1853ZM48.0922 28.7637H50.3047V28.1363H48.0922V28.7637ZM49.9971 28.5115C50.0778 28.9153 50.2784 29.2414 50.6118 29.4525L50.9475 28.9225C50.781 28.817 50.6649 28.6514 50.6123 28.3885L49.9971 28.5115ZM50.6157 29.455C50.9446 29.6565 51.3823 29.7387 51.8922 29.7387V29.1113C51.4354 29.1113 51.1314 29.0351 50.9436 28.92L50.6157 29.455ZM51.8922 29.7387C52.2843 29.7387 52.6264 29.6893 52.8812 29.5562C53.0132 29.4873 53.1292 29.3919 53.2113 29.2633C53.2943 29.1334 53.3309 28.9876 53.3309 28.8375H52.7035C52.7035 28.8832 52.6932 28.9088 52.6824 28.9257C52.6708 28.944 52.6462 28.971 52.5907 29C52.4705 29.0628 52.2501 29.1113 51.8922 29.1113V29.7387ZM53.3309 28.8375C53.3309 28.5904 53.2341 28.3714 53.036 28.2158L52.6484 28.7092C52.6836 28.7369 52.7035 28.768 52.7035 28.8375H53.3309ZM53.055 28.232C52.8818 28.0722 52.6285 27.983 52.3518 27.9295L52.2326 28.5455C52.4725 28.592 52.5859 28.6528 52.6294 28.693L53.055 28.232ZM52.3519 27.9295L50.6769 27.6045L50.5574 28.2205L52.2324 28.5455L52.3519 27.9295ZM50.6774 27.6046C49.9421 27.4607 49.4307 27.2239 49.1064 26.9208C48.792 26.6269 48.6309 26.25 48.6309 25.7625H48.0035C48.0035 26.4083 48.2257 26.9564 48.6779 27.3792C49.1203 27.7927 49.759 28.0643 50.5569 28.2204L50.6774 27.6046ZM48.6309 25.7625C48.6309 25.1292 48.8791 24.6399 49.3901 24.2656L49.0193 23.7594C48.347 24.2518 48.0035 24.9292 48.0035 25.7625H48.6309ZM49.3924 24.2639C49.9116 23.8763 50.6536 23.6637 51.6547 23.6637V23.0363C50.5724 23.0363 49.6811 23.2653 49.017 23.7611L49.3924 24.2639ZM51.6547 23.6637C52.6543 23.6637 53.4008 23.8799 53.929 24.276L54.3054 23.774C53.6336 23.2701 52.7384 23.0363 51.6547 23.0363V23.6637ZM53.929 24.276C54.4481 24.6653 54.7341 25.2099 54.779 25.9442L55.4053 25.9058C55.3503 25.0068 54.9863 24.2847 54.3054 23.774L53.929 24.276ZM55.0922 25.6113H52.8797V26.2387H55.0922V25.6113ZM53.1836 25.8471C53.0867 25.4693 52.9012 25.1585 52.6014 24.9624L52.258 25.4876C52.3915 25.5749 52.506 25.7307 52.5758 26.0029L53.1836 25.8471ZM52.613 24.9704C52.3281 24.7653 51.9429 24.6863 51.5047 24.6863V25.3137C51.8831 25.3137 52.1146 25.3847 52.2464 25.4796L52.613 24.9704ZM51.5047 24.6863C51.1497 24.6863 50.8353 24.7339 50.5894 24.8569L50.87 25.4181C50.9907 25.3577 51.193 25.3137 51.5047 25.3137V24.6863ZM50.5841 24.8596C50.4583 24.9255 50.347 25.017 50.2681 25.1409C50.1885 25.2661 50.1535 25.4063 50.1535 25.55H50.7809C50.7809 25.5103 50.7897 25.4901 50.7975 25.4778C50.8061 25.4642 50.8261 25.4412 50.8753 25.4154L50.5841 24.8596ZM50.1535 25.55C50.1535 25.7822 50.2534 25.9801 50.427 26.127L50.8323 25.648C50.7893 25.6116 50.7809 25.5845 50.7809 25.55H50.1535ZM50.427 26.127C50.5932 26.2676 50.8151 26.3489 51.0579 26.3956L51.1764 25.7794C50.9859 25.7428 50.8828 25.6907 50.8323 25.648L50.427 26.127ZM51.0569 26.3954L52.7819 26.7329L52.9024 26.1171L51.1774 25.7796L51.0569 26.3954ZM52.7813 26.7328C53.5534 26.8856 54.0743 27.1271 54.3879 27.4268L54.8214 26.9732C54.3851 26.5563 53.7309 26.2811 52.9031 26.1172L52.7813 26.7328ZM54.3879 27.4268C54.6903 27.7157 54.8535 28.1113 54.8535 28.65H55.4809C55.4809 27.9721 55.2691 27.401 54.8214 26.9732L54.3879 27.4268ZM54.8535 28.65C54.8535 29.3431 54.6016 29.8597 54.1028 30.2374L54.4816 30.7376C55.1494 30.232 55.4809 29.5235 55.4809 28.65H54.8535ZM54.1011 30.2387C53.6024 30.6217 52.848 30.8363 51.7922 30.8363V31.4637C52.9197 31.4637 53.8319 31.2366 54.4833 30.7363L54.1011 30.2387ZM61.2865 30.675L61.1402 30.9526L61.1432 30.9541L61.2865 30.675ZM59.849 29.3125L59.5757 29.4665L59.5783 29.4711L59.849 29.3125ZM59.849 25.175L59.5783 25.0164L59.5766 25.0193L59.849 25.175ZM61.2865 23.825L61.1432 23.5459L61.1432 23.5459L61.2865 23.825ZM65.6115 23.825L65.4651 24.1025L65.4667 24.1033L65.6115 23.825ZM67.024 25.175L67.2964 25.0193L67.2964 25.0193L67.024 25.175ZM67.024 29.325L67.2964 29.4807L67.2974 29.479L67.024 29.325ZM65.6115 30.675L65.7564 30.9533L65.7564 30.9533L65.6115 30.675ZM64.7615 28.6375L64.5261 28.4301L64.5258 28.4305L64.7615 28.6375ZM64.7615 25.8625L64.5257 26.0696L64.5312 26.0755L64.7615 25.8625ZM62.1115 25.8625L62.3418 26.0755L62.3444 26.0727L62.1115 25.8625ZM62.1115 28.6375L61.8761 28.8449L61.8786 28.8477L62.1115 28.6375ZM63.449 30.8363C62.6644 30.8363 61.9945 30.6859 61.4298 30.3959L61.1432 30.9541C61.8119 31.2975 62.5836 31.4637 63.449 31.4637V30.8363ZM61.4328 30.3975C60.8662 30.0988 60.4309 29.6852 60.1197 29.1539L59.5783 29.4711C59.9505 30.1065 60.4735 30.6012 61.1403 30.9525L61.4328 30.3975ZM60.1224 29.1585C59.8196 28.6211 59.6627 27.9842 59.6627 27.2375H59.0353C59.0353 28.0741 59.2118 28.8205 59.5757 29.4665L60.1224 29.1585ZM59.6627 27.2375C59.6627 26.4906 59.8196 25.8587 60.1214 25.3307L59.5766 25.0193C59.2117 25.6579 59.0353 26.401 59.0353 27.2375H59.6627ZM60.1197 25.3336C60.4305 24.8031 60.8648 24.3942 61.4298 24.1041L61.1432 23.5459C60.4749 23.8891 59.9509 24.3803 59.5783 25.0164L60.1197 25.3336ZM61.4298 24.1041C61.9941 23.8143 62.668 23.6637 63.4615 23.6637V23.0363C62.5883 23.0363 61.8123 23.2023 61.1432 23.5459L61.4298 24.1041ZM63.4615 23.6637C64.2553 23.6637 64.9194 23.8145 65.4651 24.1025L65.758 23.5475C65.1036 23.2022 64.3344 23.0363 63.4615 23.0363V23.6637ZM65.4667 24.1033C66.0228 24.3928 66.4488 24.8007 66.7516 25.3307L67.2964 25.0193C66.9326 24.3826 66.4169 23.8906 65.7564 23.5467L65.4667 24.1033ZM66.7516 25.3307C67.0531 25.8583 67.2103 26.4942 67.2103 27.25H67.8377C67.8377 26.4058 67.6616 25.6584 67.2964 25.0193L66.7516 25.3307ZM67.2103 27.25C67.2103 27.9967 67.0534 28.6336 66.7507 29.171L67.2974 29.479C67.6613 28.833 67.8377 28.0866 67.8377 27.25H67.2103ZM66.7516 29.1693C66.4488 29.6993 66.0228 30.1072 65.4667 30.3967L65.7564 30.9533C66.4169 30.6094 66.9326 30.1174 67.2964 29.4807L66.7516 29.1693ZM65.4667 30.3967C64.9117 30.6856 64.2426 30.8363 63.449 30.8363V31.4637C64.3221 31.4637 65.0947 31.2977 65.7564 30.9533L65.4667 30.3967ZM63.449 29.4637C64.0886 29.4637 64.6226 29.2712 64.9973 28.8445L64.5258 28.4305C64.3004 28.6872 63.9594 28.8363 63.449 28.8363V29.4637ZM64.9969 28.8449C65.3675 28.4243 65.5377 27.8774 65.5377 27.2375H64.9103C64.9103 27.7643 64.7723 28.1507 64.5261 28.4301L64.9969 28.8449ZM65.5377 27.2375C65.5377 26.5984 65.3677 26.0559 64.9918 25.6495L64.5312 26.0755C64.772 26.3358 64.9103 26.7099 64.9103 27.2375H65.5377ZM64.9973 25.6555C64.6226 25.2288 64.0886 25.0363 63.449 25.0363V25.6637C63.9594 25.6637 64.3004 25.8128 64.5258 26.0695L64.9973 25.6555ZM63.449 25.0363C62.8023 25.0363 62.2616 25.228 61.8786 25.6523L62.3444 26.0727C62.5782 25.8137 62.9291 25.6637 63.449 25.6637V25.0363ZM61.8812 25.6495C61.5053 26.0559 61.3353 26.5984 61.3353 27.2375H61.9627C61.9627 26.7099 62.1011 26.3358 62.3418 26.0755L61.8812 25.6495ZM61.3353 27.2375C61.3353 27.8774 61.5056 28.4243 61.8761 28.8449L62.3469 28.4301C62.1008 28.1507 61.9627 27.7643 61.9627 27.2375H61.3353ZM61.8786 28.8477C62.2616 29.272 62.8023 29.4637 63.449 29.4637V28.8363C62.9291 28.8363 62.5782 28.6863 62.3444 28.4273L61.8786 28.8477ZM69.251 31H68.9373V31.3137H69.251V31ZM69.251 25.75H69.5647V25.4363H69.251V25.75ZM68.126 25.75H67.8123V26.0637H68.126V25.75ZM68.126 23.5V23.1863H67.8123V23.5H68.126ZM70.426 23.5H70.7397V23.1863H70.426V23.5ZM70.426 24.75H70.1123V25.0637H70.426V24.75ZM70.951 24.75V25.0637H71.1154L71.2089 24.9286L70.951 24.75ZM72.051 23.7375L72.2038 24.0115L72.2055 24.0105L72.051 23.7375ZM76.1885 24.225L75.965 24.4452L75.9666 24.4468L76.1885 24.225ZM77.051 31V31.3137H77.3647V31H77.051ZM74.751 31H74.4373V31.3137H74.751V31ZM74.3385 25.8125L74.1166 26.0344L74.1201 26.0377L74.3385 25.8125ZM71.951 25.8125L71.7326 25.5872L71.7291 25.5907L71.951 25.8125ZM71.551 31V31.3137H71.8647V31H71.551ZM69.5647 31V25.75H68.9373V31H69.5647ZM69.251 25.4363H68.126V26.0637H69.251V25.4363ZM68.4397 25.75V23.5H67.8123V25.75H68.4397ZM68.126 23.8137H70.426V23.1863H68.126V23.8137ZM70.1123 23.5V24.75H70.7397V23.5H70.1123ZM70.426 25.0637H70.951V24.4363H70.426V25.0637ZM71.2089 24.9286C71.4834 24.5322 71.8149 24.2284 72.2038 24.0115L71.8982 23.4635C71.4204 23.73 71.0186 24.1012 70.693 24.5714L71.2089 24.9286ZM72.2055 24.0105C72.5865 23.7949 73.0913 23.6762 73.7385 23.6762V23.0488C73.019 23.0488 72.3988 23.1801 71.8964 23.4645L72.2055 24.0105ZM73.7385 23.6762C74.7492 23.6762 75.4745 23.9474 75.965 24.4452L76.4119 24.0048C75.7692 23.3526 74.8611 23.0488 73.7385 23.0488V23.6762ZM75.9666 24.4468C76.4719 24.9521 76.7373 25.6372 76.7373 26.5375H77.3647C77.3647 25.5045 77.0551 24.6479 76.4103 24.0032L75.9666 24.4468ZM76.7373 26.5375V31H77.3647V26.5375H76.7373ZM77.051 30.6863H74.751V31.3137H77.051V30.6863ZM75.0647 31V26.9875H74.4373V31H75.0647ZM75.0647 26.9875C75.0647 26.4166 74.9117 25.9314 74.5569 25.5873L74.1201 26.0377C74.3152 26.2269 74.4373 26.5251 74.4373 26.9875H75.0647ZM74.5603 25.5907C74.2149 25.2452 73.726 25.0988 73.151 25.0988V25.7262C73.626 25.7262 73.9287 25.8464 74.1166 26.0343L74.5603 25.5907ZM73.151 25.0988C72.5752 25.0988 72.085 25.2455 71.7326 25.5873L72.1694 26.0377C72.367 25.8461 72.6768 25.7262 73.151 25.7262V25.0988ZM71.7291 25.5907C71.3846 25.9352 71.2373 26.4191 71.2373 26.9875H71.8647C71.8647 26.5225 71.984 26.2231 72.1728 26.0343L71.7291 25.5907ZM71.2373 26.9875V31H71.8647V26.9875H71.2373ZM71.551 30.6863H69.251V31.3137H71.551V30.6863Z" fill="#FD3567" mask="url(#path-3-outside-1_592_22567)"/>
<path d="M-7.93333 48V37.2H-5.42667V45.8133H0.0133333V48H-7.93333ZM1.16813 48V40H3.62146V48H1.16813ZM2.39479 39.32C2.03035 39.32 1.71924 39.1911 1.46146 38.9333C1.20368 38.6756 1.07479 38.3644 1.07479 38C1.07479 37.6356 1.20368 37.3244 1.46146 37.0667C1.71924 36.8089 2.03035 36.68 2.39479 36.68C2.75924 36.68 3.07035 36.8089 3.32812 37.0667C3.5859 37.3244 3.71479 37.6356 3.71479 38C3.71479 38.3644 3.5859 38.6756 3.32812 38.9333C3.07035 39.1911 2.75924 39.32 2.39479 39.32ZM9.25542 51.36C8.01986 51.36 7.01542 51.1111 6.24208 50.6133C5.47764 50.1244 5.02431 49.44 4.88208 48.56H7.46875C7.67319 49.1467 8.23764 49.44 9.16208 49.44C9.81097 49.44 10.3043 49.2933 10.6421 49C10.9888 48.7067 11.1621 48.2889 11.1621 47.7467V46.7467H11.0954C10.8465 47.1644 10.5176 47.48 10.1088 47.6933C9.70875 47.8978 9.21986 48 8.64208 48C7.89542 48 7.24208 47.8356 6.68208 47.5067C6.13097 47.1689 5.69986 46.6933 5.38875 46.08C5.08653 45.4667 4.93542 44.7467 4.93542 43.92C4.93542 42.6756 5.27764 41.6844 5.96208 40.9467C6.65542 40.2089 7.61097 39.84 8.82875 39.84C9.50431 39.84 10.0821 39.9733 10.5621 40.24C11.051 40.4978 11.4376 40.8622 11.7221 41.3333H12.2821V40H14.7354V42.4H13.5354V47.7467C13.5354 48.9022 13.1665 49.7911 12.4288 50.4133C11.691 51.0444 10.6332 51.36 9.25542 51.36ZM9.25542 45.8667C9.83319 45.8667 10.2821 45.7111 10.6021 45.4C10.9221 45.0889 11.0821 44.6578 11.0821 44.1067V43.7067C11.0821 43.1644 10.9176 42.7422 10.5888 42.44C10.2688 42.1289 9.82431 41.9733 9.25542 41.9733C8.65986 41.9733 8.19764 42.1467 7.86875 42.4933C7.54875 42.8311 7.38875 43.3111 7.38875 43.9333C7.38875 44.5556 7.54875 45.0356 7.86875 45.3733C8.19764 45.7022 8.65986 45.8667 9.25542 45.8667ZM15.8 48V36.8H18.2533V41.0933H18.3067C18.5644 40.6844 18.9022 40.3778 19.32 40.1733C19.7467 39.96 20.2578 39.8533 20.8533 39.8533C21.8578 39.8533 22.6533 40.16 23.24 40.7733C23.8267 41.3867 24.12 42.2089 24.12 43.24V48H21.6667V43.72C21.6667 43.1689 21.52 42.7511 21.2267 42.4667C20.9422 42.1822 20.52 42.04 19.96 42.04C19.4 42.04 18.9733 42.1822 18.68 42.4667C18.3956 42.7511 18.2533 43.1689 18.2533 43.72V48H15.8ZM28.3927 48C27.7705 48 27.286 47.8444 26.9394 47.5333C26.6016 47.2133 26.4327 46.7289 26.4327 46.08V41.92H25.0994V40H26.4594V37.6H28.8594V40H30.6194V41.92H28.886V46.08H30.806V48H28.3927ZM35.5783 48.16C34.3783 48.16 33.4317 47.9067 32.7383 47.4C32.0539 46.8933 31.685 46.1867 31.6317 45.28H33.9917C34.0628 45.6356 34.2317 45.8978 34.4983 46.0667C34.7739 46.2356 35.1694 46.32 35.685 46.32C36.485 46.32 36.885 46.1111 36.885 45.6933C36.885 45.5244 36.8228 45.3911 36.6983 45.2933C36.5828 45.1867 36.3872 45.1067 36.1117 45.0533L34.325 44.7067C32.6894 44.3867 31.8717 43.6222 31.8717 42.4133C31.8717 41.6311 32.1872 41.0089 32.8183 40.5467C33.4494 40.0756 34.3206 39.84 35.4317 39.84C36.5428 39.84 37.4183 40.08 38.0583 40.56C38.6983 41.04 39.045 41.7156 39.0983 42.5867H36.7383C36.6494 42.24 36.4894 41.9911 36.2583 41.84C36.0361 41.68 35.7072 41.6 35.2717 41.6C34.9161 41.6 34.6406 41.6489 34.445 41.7467C34.2583 41.8444 34.165 41.9911 34.165 42.1867C34.165 42.3289 34.2228 42.4489 34.3383 42.5467C34.4539 42.6444 34.6272 42.7156 34.8583 42.76L36.6983 43.12C37.5517 43.2889 38.1783 43.5644 38.5783 43.9467C38.9783 44.3289 39.1783 44.8444 39.1783 45.4933C39.1783 46.3289 38.8672 46.9822 38.245 47.4533C37.6317 47.9244 36.7428 48.16 35.5783 48.16ZM48.0123 48.16C47.1323 48.16 46.3634 47.9911 45.7056 47.6533C45.0478 47.3067 44.5367 46.8222 44.1723 46.2C43.8167 45.5689 43.639 44.8311 43.639 43.9867C43.639 43.1422 43.8167 42.4089 44.1723 41.7867C44.5367 41.1644 45.0478 40.6844 45.7056 40.3467C46.3634 40.0089 47.1367 39.84 48.0256 39.84C48.9145 39.84 49.679 40.0089 50.319 40.3467C50.9678 40.6844 51.4701 41.1644 51.8256 41.7867C52.1812 42.4089 52.359 43.1467 52.359 44C52.359 44.8444 52.1812 45.5822 51.8256 46.2133C51.4701 46.8356 50.9678 47.3156 50.319 47.6533C49.6701 47.9911 48.9012 48.16 48.0123 48.16ZM48.0123 46.0267C48.6256 46.0267 49.0923 45.8444 49.4123 45.48C49.7412 45.1067 49.9056 44.6089 49.9056 43.9867C49.9056 43.3644 49.7412 42.8756 49.4123 42.52C49.0923 42.1556 48.6256 41.9733 48.0123 41.9733C47.3901 41.9733 46.9145 42.1556 46.5856 42.52C46.2567 42.8756 46.0923 43.3644 46.0923 43.9867C46.0923 44.6089 46.2567 45.1067 46.5856 45.48C46.9145 45.8444 47.3901 46.0267 48.0123 46.0267ZM54.201 48V42.4H53.001V40H55.4544V41.3333H56.0144C56.3344 40.8711 56.7255 40.5111 57.1877 40.2533C57.6588 39.9867 58.2588 39.8533 58.9877 39.8533C60.1255 39.8533 60.9966 40.16 61.601 40.7733C62.2144 41.3867 62.521 42.2089 62.521 43.24V48H60.0677V43.72C60.0677 43.1689 59.921 42.7511 59.6277 42.4667C59.3433 42.1822 58.921 42.04 58.361 42.04C57.801 42.04 57.3744 42.1822 57.081 42.4667C56.7966 42.7511 56.6544 43.1689 56.6544 43.72V48H54.201Z" fill="#FD3567"/>
<mask id="path-6-outside-2_592_22567" maskUnits="userSpaceOnUse" x="10.0391" y="52.3137" width="72" height="16" fill="black">
<rect fill="white" x="10.0391" y="52.3137" width="72" height="16"/>
<path d="M11.1057 64.3137V53.5137H13.6124V62.127H19.0524V64.3137H11.1057ZM20.2072 64.3137V56.3137H22.6605V64.3137H20.2072ZM21.4339 55.6337C21.0694 55.6337 20.7583 55.5048 20.5005 55.247C20.2427 54.9892 20.1139 54.6781 20.1139 54.3137C20.1139 53.9492 20.2427 53.6381 20.5005 53.3803C20.7583 53.1225 21.0694 52.9937 21.4339 52.9937C21.7983 52.9937 22.1094 53.1225 22.3672 53.3803C22.625 53.6381 22.7539 53.9492 22.7539 54.3137C22.7539 54.6781 22.625 54.9892 22.3672 55.247C22.1094 55.5048 21.7983 55.6337 21.4339 55.6337ZM28.2945 67.6737C27.0589 67.6737 26.0545 67.4248 25.2811 66.927C24.5167 66.4381 24.0634 65.7537 23.9211 64.8737H26.5078C26.7123 65.4603 27.2767 65.7537 28.2011 65.7537C28.85 65.7537 29.3434 65.607 29.6811 65.3137C30.0278 65.0203 30.2011 64.6025 30.2011 64.0603V63.0603H30.1345C29.8856 63.4781 29.5567 63.7937 29.1478 64.007C28.7478 64.2114 28.2589 64.3137 27.6811 64.3137C26.9345 64.3137 26.2811 64.1492 25.7211 63.8203C25.17 63.4825 24.7389 63.007 24.4278 62.3937C24.1256 61.7803 23.9745 61.0603 23.9745 60.2337C23.9745 58.9892 24.3167 57.9981 25.0011 57.2603C25.6945 56.5225 26.65 56.1537 27.8678 56.1537C28.5434 56.1537 29.1211 56.287 29.6011 56.5537C30.09 56.8114 30.4767 57.1759 30.7611 57.647H31.3211V56.3137H33.7745V58.7137H32.5745V64.0603C32.5745 65.2159 32.2056 66.1048 31.4678 66.727C30.73 67.3581 29.6723 67.6737 28.2945 67.6737ZM28.2945 62.1803C28.8723 62.1803 29.3211 62.0248 29.6411 61.7137C29.9611 61.4025 30.1211 60.9714 30.1211 60.4203V60.0203C30.1211 59.4781 29.9567 59.0559 29.6278 58.7537C29.3078 58.4425 28.8634 58.287 28.2945 58.287C27.6989 58.287 27.2367 58.4603 26.9078 58.807C26.5878 59.1448 26.4278 59.6248 26.4278 60.247C26.4278 60.8692 26.5878 61.3492 26.9078 61.687C27.2367 62.0159 27.6989 62.1803 28.2945 62.1803ZM34.8391 64.3137V53.1137H37.2924V57.407H37.3457C37.6035 56.9981 37.9413 56.6914 38.3591 56.487C38.7857 56.2737 39.2968 56.167 39.8924 56.167C40.8968 56.167 41.6924 56.4737 42.2791 57.087C42.8657 57.7003 43.1591 58.5225 43.1591 59.5537V64.3137H40.7057V60.0337C40.7057 59.4825 40.5591 59.0648 40.2657 58.7803C39.9813 58.4959 39.5591 58.3537 38.9991 58.3537C38.4391 58.3537 38.0124 58.4959 37.7191 58.7803C37.4346 59.0648 37.2924 59.4825 37.2924 60.0337V64.3137H34.8391ZM47.4318 64.3137C46.8095 64.3137 46.3251 64.1581 45.9784 63.847C45.6407 63.527 45.4718 63.0425 45.4718 62.3937V58.2337H44.1384V56.3137H45.4984V53.9137H47.8984V56.3137H49.6584V58.2337H47.9251V62.3937H49.8451V64.3137H47.4318ZM54.6174 64.4737C53.4174 64.4737 52.4707 64.2203 51.7774 63.7137C51.093 63.207 50.7241 62.5003 50.6707 61.5937H53.0307C53.1018 61.9492 53.2707 62.2114 53.5374 62.3803C53.813 62.5492 54.2085 62.6337 54.7241 62.6337C55.5241 62.6337 55.9241 62.4248 55.9241 62.007C55.9241 61.8381 55.8618 61.7048 55.7374 61.607C55.6218 61.5003 55.4263 61.4203 55.1507 61.367L53.3641 61.0203C51.7285 60.7003 50.9107 59.9359 50.9107 58.727C50.9107 57.9448 51.2263 57.3225 51.8574 56.8603C52.4885 56.3892 53.3596 56.1537 54.4707 56.1537C55.5818 56.1537 56.4574 56.3937 57.0974 56.8737C57.7374 57.3537 58.0841 58.0292 58.1374 58.9003H55.7774C55.6885 58.5537 55.5285 58.3048 55.2974 58.1537C55.0752 57.9937 54.7463 57.9137 54.3107 57.9137C53.9552 57.9137 53.6796 57.9625 53.4841 58.0603C53.2974 58.1581 53.2041 58.3048 53.2041 58.5003C53.2041 58.6425 53.2618 58.7625 53.3774 58.8603C53.493 58.9581 53.6663 59.0292 53.8974 59.0737L55.7374 59.4337C56.5907 59.6025 57.2174 59.8781 57.6174 60.2603C58.0174 60.6425 58.2174 61.1581 58.2174 61.807C58.2174 62.6425 57.9063 63.2959 57.2841 63.767C56.6707 64.2381 55.7818 64.4737 54.6174 64.4737ZM67.0514 64.4737C66.1714 64.4737 65.4025 64.3048 64.7447 63.967C64.0869 63.6203 63.5758 63.1359 63.2114 62.5137C62.8558 61.8825 62.678 61.1448 62.678 60.3003C62.678 59.4559 62.8558 58.7225 63.2114 58.1003C63.5758 57.4781 64.0869 56.9981 64.7447 56.6603C65.4025 56.3225 66.1758 56.1537 67.0647 56.1537C67.9536 56.1537 68.718 56.3225 69.358 56.6603C70.0069 56.9981 70.5091 57.4781 70.8647 58.1003C71.2202 58.7225 71.398 59.4603 71.398 60.3137C71.398 61.1581 71.2202 61.8959 70.8647 62.527C70.5091 63.1492 70.0069 63.6292 69.358 63.967C68.7091 64.3048 67.9402 64.4737 67.0514 64.4737ZM67.0514 62.3403C67.6647 62.3403 68.1314 62.1581 68.4514 61.7937C68.7802 61.4203 68.9447 60.9225 68.9447 60.3003C68.9447 59.6781 68.7802 59.1892 68.4514 58.8337C68.1314 58.4692 67.6647 58.287 67.0514 58.287C66.4291 58.287 65.9536 58.4692 65.6247 58.8337C65.2958 59.1892 65.1314 59.6781 65.1314 60.3003C65.1314 60.9225 65.2958 61.4203 65.6247 61.7937C65.9536 62.1581 66.4291 62.3403 67.0514 62.3403ZM73.2401 64.3137V58.7137H72.0401V56.3137H74.4934V57.647H75.0534C75.3734 57.1848 75.7645 56.8248 76.2268 56.567C76.6979 56.3003 77.2979 56.167 78.0268 56.167C79.1645 56.167 80.0357 56.4737 80.6401 57.087C81.2534 57.7003 81.5601 58.5225 81.5601 59.5537V64.3137H79.1068V60.0337C79.1068 59.4825 78.9601 59.0648 78.6668 58.7803C78.3823 58.4959 77.9601 58.3537 77.4001 58.3537C76.8401 58.3537 76.4134 58.4959 76.1201 58.7803C75.8357 59.0648 75.6934 59.4825 75.6934 60.0337V64.3137H73.2401Z"/>
</mask>
<path d="M11.1057 64.3137H10.792V64.6274H11.1057V64.3137ZM11.1057 53.5137V53.1999H10.792V53.5137H11.1057ZM13.6124 53.5137H13.9261V53.1999H13.6124V53.5137ZM13.6124 62.127H13.2987V62.4407H13.6124V62.127ZM19.0524 62.127H19.3661V61.8133H19.0524V62.127ZM19.0524 64.3137V64.6274H19.3661V64.3137H19.0524ZM11.4195 64.3137V53.5137H10.792V64.3137H11.4195ZM11.1057 53.8274H13.6124V53.1999H11.1057V53.8274ZM13.2987 53.5137V62.127H13.9261V53.5137H13.2987ZM13.6124 62.4407H19.0524V61.8133H13.6124V62.4407ZM18.7387 62.127V64.3137H19.3661V62.127H18.7387ZM19.0524 63.9999H11.1057V64.6274H19.0524V63.9999ZM20.2072 64.3137H19.8935V64.6274H20.2072V64.3137ZM20.2072 56.3137V55.9999H19.8935V56.3137H20.2072ZM22.6605 56.3137H22.9742V55.9999H22.6605V56.3137ZM22.6605 64.3137V64.6274H22.9742V64.3137H22.6605ZM20.5005 55.247L20.2787 55.4688L20.2787 55.4688L20.5005 55.247ZM20.5005 53.3803L20.7224 53.6022L20.7224 53.6022L20.5005 53.3803ZM22.3672 53.3803L22.1453 53.6022L22.1454 53.6022L22.3672 53.3803ZM22.3672 55.247L22.589 55.4688L22.589 55.4688L22.3672 55.247ZM20.5209 64.3137V56.3137H19.8935V64.3137H20.5209ZM20.2072 56.6274H22.6605V55.9999H20.2072V56.6274ZM22.3468 56.3137V64.3137H22.9742V56.3137H22.3468ZM22.6605 63.9999H20.2072V64.6274H22.6605V63.9999ZM21.4339 55.3199C21.1526 55.3199 20.9213 55.2241 20.7224 55.0252L20.2787 55.4688C20.5953 55.7854 20.9862 55.9474 21.4339 55.9474V55.3199ZM20.7224 55.0252C20.5234 54.8262 20.4276 54.5949 20.4276 54.3137H19.8001C19.8001 54.7613 19.9621 55.1522 20.2787 55.4688L20.7224 55.0252ZM20.4276 54.3137C20.4276 54.0324 20.5234 53.8011 20.7224 53.6022L20.2787 53.1585C19.9621 53.4751 19.8001 53.866 19.8001 54.3137H20.4276ZM20.7224 53.6022C20.9213 53.4032 21.1526 53.3074 21.4339 53.3074V52.6799C20.9862 52.6799 20.5953 52.8419 20.2787 53.1585L20.7224 53.6022ZM21.4339 53.3074C21.7151 53.3074 21.9464 53.4032 22.1453 53.6022L22.589 53.1585C22.2724 52.8419 21.8815 52.6799 21.4339 52.6799V53.3074ZM22.1454 53.6022C22.3443 53.8011 22.4401 54.0324 22.4401 54.3137H23.0676C23.0676 53.866 22.9056 53.4751 22.589 53.1585L22.1454 53.6022ZM22.4401 54.3137C22.4401 54.5949 22.3443 54.8262 22.1453 55.0252L22.589 55.4688C22.9056 55.1522 23.0676 54.7613 23.0676 54.3137H22.4401ZM22.1454 55.0252C21.9464 55.2241 21.7151 55.3199 21.4339 55.3199V55.9474C21.8815 55.9474 22.2724 55.7854 22.589 55.4688L22.1454 55.0252ZM25.2811 66.927L25.4509 66.6632L25.4502 66.6627L25.2811 66.927ZM23.9211 64.8737V64.5599H23.5526L23.6114 64.9237L23.9211 64.8737ZM26.5078 64.8737L26.8041 64.7704L26.7307 64.5599H26.5078V64.8737ZM29.6811 65.3137L29.4785 65.0741L29.4754 65.0768L29.6811 65.3137ZM30.2011 63.0603H30.5149V62.7466H30.2011V63.0603ZM30.1345 63.0603V62.7466H29.9562L29.865 62.8998L30.1345 63.0603ZM29.1478 64.007L29.2906 64.2864L29.2929 64.2851L29.1478 64.007ZM25.7211 63.8203L25.5572 64.0879L25.5623 64.0908L25.7211 63.8203ZM24.4278 62.3937L24.1464 62.5323L24.148 62.5356L24.4278 62.3937ZM25.0011 57.2603L24.7725 57.0455L24.7712 57.047L25.0011 57.2603ZM29.6011 56.5537L29.4488 56.828L29.4548 56.8312L29.6011 56.5537ZM30.7611 57.647L30.4926 57.8091L30.5841 57.9607H30.7611V57.647ZM31.3211 57.647V57.9607H31.6349V57.647H31.3211ZM31.3211 56.3137V55.9999H31.0074V56.3137H31.3211ZM33.7745 56.3137H34.0882V55.9999H33.7745V56.3137ZM33.7745 58.7137V59.0274H34.0882V58.7137H33.7745ZM32.5745 58.7137V58.3999H32.2608V58.7137H32.5745ZM31.4678 66.727L31.2655 66.4872L31.2639 66.4886L31.4678 66.727ZM29.6278 58.7537L29.409 58.9787L29.4155 58.9847L29.6278 58.7537ZM26.9078 58.807L26.6802 58.5911L26.6801 58.5912L26.9078 58.807ZM26.9078 61.687L26.68 61.9028L26.686 61.9088L26.9078 61.687ZM28.2945 67.3599C27.099 67.3599 26.159 67.119 25.4509 66.6632L25.1113 67.1908C25.9499 67.7306 27.0188 67.9874 28.2945 67.9874V67.3599ZM25.4502 66.6627C24.7594 66.2209 24.3585 65.6136 24.2309 64.8236L23.6114 64.9237C23.7682 65.8937 24.274 66.6553 25.1121 67.1913L25.4502 66.6627ZM23.9211 65.1874H26.5078V64.5599H23.9211V65.1874ZM26.2116 64.9769C26.3408 65.3478 26.5885 65.6294 26.9398 65.812C27.2824 65.9901 27.7098 66.0674 28.2011 66.0674V65.4399C27.7681 65.4399 27.451 65.3706 27.2291 65.2553C27.0161 65.1445 26.8793 64.9862 26.8041 64.7704L26.2116 64.9769ZM28.2011 66.0674C28.8922 66.0674 29.471 65.9116 29.8869 65.5505L29.4754 65.0768C29.2157 65.3023 28.8079 65.4399 28.2011 65.4399V66.0674ZM29.8838 65.5532C30.3147 65.1885 30.5149 64.6751 30.5149 64.0603H29.8874C29.8874 64.53 29.7409 64.8521 29.4785 65.0742L29.8838 65.5532ZM30.5149 64.0603V63.0603H29.8874V64.0603H30.5149ZM30.2011 62.7466H30.1345V63.3741H30.2011V62.7466ZM29.865 62.8998C29.6441 63.2704 29.3572 63.5439 29.0027 63.7288L29.2929 64.2851C29.7562 64.0434 30.127 63.6858 30.404 63.2209L29.865 62.8998ZM29.005 63.7276C28.6601 63.904 28.2231 63.9999 27.6811 63.9999V64.6274C28.2948 64.6274 28.8356 64.5189 29.2906 64.2863L29.005 63.7276ZM27.6811 63.9999C26.9818 63.9999 26.385 63.8464 25.88 63.5498L25.5623 64.0908C26.1773 64.452 26.8871 64.6274 27.6811 64.6274V63.9999ZM25.8851 63.5528C25.3867 63.2474 24.9942 62.8168 24.7076 62.2517L24.148 62.5356C24.4836 63.1972 24.9534 63.7177 25.5572 64.0878L25.8851 63.5528ZM24.7092 62.255C24.4322 61.6929 24.2882 61.0222 24.2882 60.2337H23.6608C23.6608 61.0985 23.8189 61.8678 24.1464 62.5323L24.7092 62.255ZM24.2882 60.2337C24.2882 59.0487 24.6125 58.1405 25.2311 57.4737L24.7712 57.047C24.0209 57.8557 23.6608 58.9297 23.6608 60.2337H24.2882ZM25.2298 57.4752C25.852 56.8131 26.7177 56.4674 27.8678 56.4674V55.8399C26.5824 55.8399 25.537 56.232 24.7725 57.0455L25.2298 57.4752ZM27.8678 56.4674C28.5022 56.4674 29.025 56.5925 29.4488 56.8279L29.7535 56.2794C29.2173 55.9815 28.5845 55.8399 27.8678 55.8399V56.4674ZM29.4548 56.8312C29.8935 57.0625 30.2378 57.3871 30.4926 57.8091L31.0297 57.4848C30.7156 56.9647 30.2866 56.5604 29.7475 56.2761L29.4548 56.8312ZM30.7611 57.9607H31.3211V57.3333H30.7611V57.9607ZM31.6349 57.647V56.3137H31.0074V57.647H31.6349ZM31.3211 56.6274H33.7745V55.9999H31.3211V56.6274ZM33.4608 56.3137V58.7137H34.0882V56.3137H33.4608ZM33.7745 58.3999H32.5745V59.0274H33.7745V58.3999ZM32.2608 58.7137V64.0603H32.8882V58.7137H32.2608ZM32.2608 64.0603C32.2608 65.1435 31.9186 65.9364 31.2656 66.4872L31.6701 66.9668C32.4926 66.2731 32.8882 65.2882 32.8882 64.0603H32.2608ZM31.2639 66.4886C30.6027 67.0542 29.6284 67.3599 28.2945 67.3599V67.9874C29.7161 67.9874 30.8574 67.662 31.6717 66.9654L31.2639 66.4886ZM28.2945 62.4941C28.9289 62.4941 29.4655 62.322 29.8598 61.9386L29.4225 61.4887C29.1768 61.7276 28.8156 61.8666 28.2945 61.8666V62.4941ZM29.8598 61.9386C30.2543 61.5551 30.4349 61.035 30.4349 60.4203H29.8074C29.8074 60.9079 29.668 61.25 29.4225 61.4887L29.8598 61.9386ZM30.4349 60.4203V60.0203H29.8074V60.4203H30.4349ZM30.4349 60.0203C30.4349 59.4106 30.2472 58.8968 29.8401 58.5227L29.4155 58.9847C29.6662 59.215 29.8074 59.5456 29.8074 60.0203H30.4349ZM29.8465 58.5287C29.4531 58.1462 28.9216 57.9733 28.2945 57.9733V58.6007C28.8051 58.6007 29.1626 58.7389 29.4091 58.9786L29.8465 58.5287ZM28.2945 57.9733C27.6355 57.9733 27.0823 58.1673 26.6802 58.5911L27.1354 59.0229C27.3911 58.7534 27.7624 58.6007 28.2945 58.6007V57.9733ZM26.6801 58.5912C26.2884 59.0047 26.1141 59.5722 26.1141 60.247H26.7415C26.7415 59.6773 26.8873 59.2848 27.1356 59.0228L26.6801 58.5912ZM26.1141 60.247C26.1141 60.9218 26.2884 61.4893 26.6801 61.9028L27.1356 61.4712C26.8873 61.2091 26.7415 60.8167 26.7415 60.247H26.1141ZM26.686 61.9088C27.089 62.3118 27.6402 62.4941 28.2945 62.4941V61.8666C27.7577 61.8666 27.3844 61.7199 27.1297 61.4652L26.686 61.9088ZM34.8391 64.3137H34.5253V64.6274H34.8391V64.3137ZM34.8391 53.1137V52.7999H34.5253V53.1137H34.8391ZM37.2924 53.1137H37.6061V52.7999H37.2924V53.1137ZM37.2924 57.407H36.9787V57.7207H37.2924V57.407ZM37.3457 57.407V57.7207H37.5188L37.6111 57.5743L37.3457 57.407ZM38.3591 56.487L38.497 56.7688L38.4994 56.7676L38.3591 56.487ZM42.2791 57.087L42.0524 57.3038L42.2791 57.087ZM43.1591 64.3137V64.6274H43.4728V64.3137H43.1591ZM40.7057 64.3137H40.392V64.6274H40.7057V64.3137ZM40.2657 58.7803L40.0439 59.0022L40.0473 59.0056L40.2657 58.7803ZM37.7191 58.7803L37.5006 58.5551L37.4972 58.5585L37.7191 58.7803ZM37.2924 64.3137V64.6274H37.6061V64.3137H37.2924ZM35.1528 64.3137V53.1137H34.5253V64.3137H35.1528ZM34.8391 53.4274H37.2924V52.7999H34.8391V53.4274ZM36.9787 53.1137V57.407H37.6061V53.1137H36.9787ZM37.2924 57.7207H37.3457V57.0933H37.2924V57.7207ZM37.6111 57.5743C37.8391 57.2126 38.1336 56.9466 38.497 56.7688L38.2212 56.2052C37.749 56.4363 37.3679 56.7836 37.0803 57.2397L37.6111 57.5743ZM38.4994 56.7676C38.873 56.5808 39.3337 56.4807 39.8924 56.4807V55.8533C39.26 55.8533 38.6985 55.9665 38.2188 56.2064L38.4994 56.7676ZM39.8924 56.4807C40.8282 56.4807 41.5357 56.7637 42.0524 57.3038L42.5058 56.8701C41.8491 56.1836 40.9655 55.8533 39.8924 55.8533V56.4807ZM42.0524 57.3038C42.5716 57.8467 42.8453 58.585 42.8453 59.5537H43.4728C43.4728 58.4601 43.1598 57.5539 42.5058 56.8701L42.0524 57.3038ZM42.8453 59.5537V64.3137H43.4728V59.5537H42.8453ZM43.1591 63.9999H40.7057V64.6274H43.1591V63.9999ZM41.0195 64.3137V60.0337H40.392V64.3137H41.0195ZM41.0195 60.0337C41.0195 59.4283 40.8573 58.917 40.4841 58.5551L40.0473 59.0056C40.2608 59.2125 40.392 59.5368 40.392 60.0337H41.0195ZM40.4876 58.5585C40.1244 58.1953 39.6091 58.0399 38.9991 58.0399V58.6674C39.509 58.6674 39.8382 58.7965 40.0439 59.0022L40.4876 58.5585ZM38.9991 58.0399C38.3883 58.0399 37.8714 58.1956 37.5007 58.5551L37.9375 59.0055C38.1534 58.7962 38.4898 58.6674 38.9991 58.6674V58.0399ZM37.4972 58.5585C37.1349 58.9208 36.9787 59.4308 36.9787 60.0337H37.6061C37.6061 59.5343 37.7343 59.2087 37.9409 59.0022L37.4972 58.5585ZM36.9787 60.0337V64.3137H37.6061V60.0337H36.9787ZM37.2924 63.9999H34.8391V64.6274H37.2924V63.9999ZM45.9784 63.847L45.7626 64.0748L45.7689 64.0805L45.9784 63.847ZM45.4718 58.2337H45.7855V57.9199H45.4718V58.2337ZM44.1384 58.2337H43.8247V58.5474H44.1384V58.2337ZM44.1384 56.3137V55.9999H43.8247V56.3137H44.1384ZM45.4984 56.3137V56.6274H45.8122V56.3137H45.4984ZM45.4984 53.9137V53.5999H45.1847V53.9137H45.4984ZM47.8984 53.9137H48.2122V53.5999H47.8984V53.9137ZM47.8984 56.3137H47.5847V56.6274H47.8984V56.3137ZM49.6584 56.3137H49.9722V55.9999H49.6584V56.3137ZM49.6584 58.2337V58.5474H49.9722V58.2337H49.6584ZM47.9251 58.2337V57.9199H47.6114V58.2337H47.9251ZM47.9251 62.3937H47.6114V62.7074H47.9251V62.3937ZM49.8451 62.3937H50.1588V62.0799H49.8451V62.3937ZM49.8451 64.3137V64.6274H50.1588V64.3137H49.8451ZM47.4318 63.9999C46.8605 63.9999 46.4601 63.8577 46.188 63.6135L45.7689 64.0805C46.1901 64.4585 46.7586 64.6274 47.4318 64.6274V63.9999ZM46.1942 63.6192C45.9404 63.3788 45.7855 62.9912 45.7855 62.3937H45.158C45.158 63.0939 45.3409 63.6752 45.7627 64.0747L46.1942 63.6192ZM45.7855 62.3937V58.2337H45.158V62.3937H45.7855ZM45.4718 57.9199H44.1384V58.5474H45.4718V57.9199ZM44.4522 58.2337V56.3137H43.8247V58.2337H44.4522ZM44.1384 56.6274H45.4984V55.9999H44.1384V56.6274ZM45.8122 56.3137V53.9137H45.1847V56.3137H45.8122ZM45.4984 54.2274H47.8984V53.5999H45.4984V54.2274ZM47.5847 53.9137V56.3137H48.2122V53.9137H47.5847ZM47.8984 56.6274H49.6584V55.9999H47.8984V56.6274ZM49.3447 56.3137V58.2337H49.9722V56.3137H49.3447ZM49.6584 57.9199H47.9251V58.5474H49.6584V57.9199ZM47.6114 58.2337V62.3937H48.2388V58.2337H47.6114ZM47.9251 62.7074H49.8451V62.0799H47.9251V62.7074ZM49.5314 62.3937V64.3137H50.1588V62.3937H49.5314ZM49.8451 63.9999H47.4318V64.6274H49.8451V63.9999ZM51.7774 63.7137L51.5907 63.9658L51.5923 63.967L51.7774 63.7137ZM50.6707 61.5937V61.2799H50.338L50.3575 61.6121L50.6707 61.5937ZM53.0307 61.5937L53.3384 61.5321L53.2879 61.2799H53.0307V61.5937ZM53.5374 62.3803L53.3695 62.6454L53.3735 62.6478L53.5374 62.3803ZM55.7374 61.607L55.5246 61.8375L55.5338 61.846L55.5436 61.8537L55.7374 61.607ZM55.1507 61.367L55.091 61.675L55.0911 61.675L55.1507 61.367ZM53.3641 61.0203L53.3038 61.3282L53.3043 61.3283L53.3641 61.0203ZM51.8574 56.8603L52.0428 57.1134L52.0451 57.1117L51.8574 56.8603ZM58.1374 58.9003V59.2141H58.4709L58.4505 58.8812L58.1374 58.9003ZM55.7774 58.9003L55.4735 58.9782L55.534 59.2141H55.7774V58.9003ZM55.2974 58.1537L55.1139 58.4085L55.1257 58.4162L55.2974 58.1537ZM53.4841 58.0603L53.3437 57.7797L53.3385 57.7824L53.4841 58.0603ZM53.8974 59.0737L53.9576 58.7658L53.9566 58.7656L53.8974 59.0737ZM55.7374 59.4337L55.7983 59.1259L55.7976 59.1258L55.7374 59.4337ZM57.2841 63.767L57.0947 63.5169L57.093 63.5182L57.2841 63.767ZM54.6174 64.1599C53.4582 64.1599 52.5845 63.9149 51.9625 63.4604L51.5923 63.967C52.357 64.5258 53.3766 64.7874 54.6174 64.7874V64.1599ZM51.9641 63.4615C51.3598 63.0142 51.0322 62.3961 50.9839 61.5752L50.3575 61.6121C50.4159 62.6045 50.8261 63.3998 51.5907 63.9658L51.9641 63.4615ZM50.6707 61.9074H53.0307V61.2799H50.6707V61.9074ZM52.7231 61.6552C52.8083 62.0812 53.0194 62.4236 53.3695 62.6454L53.7053 62.1153C53.522 61.9992 53.3954 61.8173 53.3384 61.5321L52.7231 61.6552ZM53.3735 62.6478C53.7195 62.8599 54.1819 62.9474 54.7241 62.9474V62.3199C54.2351 62.3199 53.9064 62.2385 53.7013 62.1128L53.3735 62.6478ZM54.7241 62.9474C55.1412 62.9474 55.502 62.8946 55.7693 62.7551C55.9075 62.6829 56.0283 62.5835 56.1135 62.45C56.1996 62.3151 56.2378 62.1636 56.2378 62.007H55.6103C55.6103 62.0593 55.5986 62.0905 55.5846 62.1124C55.5698 62.1355 55.5406 62.1667 55.4788 62.1989C55.3461 62.2682 55.107 62.3199 54.7241 62.3199V62.9474ZM56.2378 62.007C56.2378 61.7493 56.137 61.522 55.9312 61.3603L55.5436 61.8537C55.5866 61.8875 55.6103 61.9269 55.6103 62.007H56.2378ZM55.9502 61.3765C55.7698 61.21 55.5043 61.1159 55.2103 61.059L55.0911 61.675C55.3483 61.7248 55.4739 61.7907 55.5246 61.8375L55.9502 61.3765ZM55.2105 61.059L53.4238 60.7123L53.3043 61.3283L55.091 61.675L55.2105 61.059ZM53.4243 60.7124C52.6379 60.5586 52.0881 60.3048 51.7383 59.9778C51.3983 59.66 51.2245 59.2523 51.2245 58.727H50.597C50.597 59.4106 50.832 59.9895 51.3098 60.4362C51.7778 60.8736 52.4547 61.1621 53.3038 61.3282L53.4243 60.7124ZM51.2245 58.727C51.2245 58.0448 51.4923 57.5166 52.0428 57.1134L51.672 56.6072C50.9602 57.1285 50.597 57.8448 50.597 58.727H51.2245ZM52.0451 57.1117C52.6037 56.6947 53.4002 56.4674 54.4707 56.4674V55.8399C53.319 55.8399 52.3733 56.0837 51.6697 56.6089L52.0451 57.1117ZM54.4707 56.4674C55.5398 56.4674 56.341 56.6985 56.9092 57.1246L57.2856 56.6227C56.5738 56.0888 55.6239 55.8399 54.4707 55.8399V56.4674ZM56.9092 57.1246C57.4683 57.544 57.776 58.1308 57.8243 58.9195L58.4505 58.8812C58.3922 57.9276 58.0065 57.1633 57.2856 56.6227L56.9092 57.1246ZM58.1374 58.5866H55.7774V59.2141H58.1374V58.5866ZM56.0813 58.8224C55.9789 58.423 55.7833 58.0966 55.4691 57.8911L55.1257 58.4162C55.2737 58.513 55.3981 58.6843 55.4735 58.9782L56.0813 58.8224ZM55.4807 57.8991C55.1819 57.6839 54.7762 57.5999 54.3107 57.5999V58.2274C54.7164 58.2274 54.9684 58.3034 55.1141 58.4083L55.4807 57.8991ZM54.3107 57.5999C53.9335 57.5999 53.6019 57.6506 53.3438 57.7797L53.6244 58.3409C53.7573 58.2744 53.9768 58.2274 54.3107 58.2274V57.5999ZM53.3385 57.7824C53.2068 57.8514 53.0912 57.9467 53.0094 58.0752C52.9268 58.205 52.8903 58.3506 52.8903 58.5003H53.5178C53.5178 58.4545 53.528 58.429 53.5387 58.4121C53.5503 58.3939 53.5746 58.3671 53.6296 58.3382L53.3385 57.7824ZM52.8903 58.5003C52.8903 58.7414 52.9939 58.9468 53.1747 59.0998L53.58 58.6208C53.5298 58.5783 53.5178 58.5437 53.5178 58.5003H52.8903ZM53.1747 59.0998C53.3481 59.2465 53.5809 59.3323 53.8381 59.3817L53.9566 58.7656C53.7517 58.7262 53.6378 58.6697 53.58 58.6208L53.1747 59.0998ZM53.8372 59.3815L55.6772 59.7415L55.7976 59.1258L53.9576 58.7658L53.8372 59.3815ZM55.6765 59.7414C56.502 59.9048 57.062 60.1635 57.4007 60.4871L57.8341 60.0335C57.3728 59.5927 56.6795 59.3003 55.7983 59.1259L55.6765 59.7414ZM57.4007 60.4871C57.728 60.7999 57.9037 61.2277 57.9037 61.807H58.5311C58.5311 61.0885 58.3068 60.4852 57.8341 60.0335L57.4007 60.4871ZM57.9037 61.807C57.9037 62.5524 57.6324 63.1098 57.0947 63.5169L57.4734 64.0171C58.1802 63.482 58.5311 62.7327 58.5311 61.807H57.9037ZM57.093 63.5182C56.556 63.9307 55.746 64.1599 54.6174 64.1599V64.7874C55.8177 64.7874 56.7855 64.5456 57.4752 64.0158L57.093 63.5182ZM64.7447 63.967L64.5984 64.2445L64.6014 64.2461L64.7447 63.967ZM63.2114 62.5137L62.938 62.6677L62.9406 62.6722L63.2114 62.5137ZM63.2114 58.1003L62.9406 57.9418L62.939 57.9447L63.2114 58.1003ZM64.7447 56.6603L64.6014 56.3812L64.6014 56.3812L64.7447 56.6603ZM69.358 56.6603L69.2116 56.9378L69.2132 56.9386L69.358 56.6603ZM70.8647 58.1003L71.1371 57.9447L71.1371 57.9447L70.8647 58.1003ZM70.8647 62.527L71.1371 62.6826L71.138 62.681L70.8647 62.527ZM69.358 63.967L69.5029 64.2453L69.5029 64.2453L69.358 63.967ZM68.4514 61.7937L68.2159 61.5863L68.2156 61.5867L68.4514 61.7937ZM68.4514 58.8337L68.2155 59.0407L68.221 59.0467L68.4514 58.8337ZM65.6247 58.8337L65.855 59.0467L65.8576 59.0438L65.6247 58.8337ZM65.6247 61.7937L65.3893 62.0011L65.3918 62.0038L65.6247 61.7937ZM67.0514 64.1599C66.2118 64.1599 65.4938 63.999 64.888 63.6879L64.6014 64.2461C65.3112 64.6106 66.1309 64.7874 67.0514 64.7874V64.1599ZM64.891 63.6895C64.2832 63.3692 63.816 62.9252 63.4821 62.3551L62.9406 62.6722C63.3356 63.3466 63.8906 63.8715 64.5984 64.2445L64.891 63.6895ZM63.4847 62.3597C63.1597 61.7828 62.9917 61.0998 62.9917 60.3003H62.3643C62.3643 61.1897 62.5519 61.9823 62.938 62.6676L63.4847 62.3597ZM62.9917 60.3003C62.9917 59.5007 63.1598 58.823 63.4837 58.256L62.939 57.9447C62.5518 58.6221 62.3643 59.4111 62.3643 60.3003H62.9917ZM63.4821 58.2589C63.8156 57.6895 64.2819 57.2507 64.888 56.9394L64.6014 56.3812C63.892 56.7455 63.336 57.2667 62.9406 57.9418L63.4821 58.2589ZM64.888 56.9394C65.4933 56.6286 66.2157 56.4674 67.0647 56.4674V55.8399C66.1359 55.8399 65.3116 56.0165 64.6014 56.3812L64.888 56.9394ZM67.0647 56.4674C67.914 56.4674 68.6259 56.6287 69.2116 56.9378L69.5045 56.3829C68.8101 56.0164 67.9931 55.8399 67.0647 55.8399V56.4674ZM69.2132 56.9386C69.8098 57.2492 70.2673 57.6872 70.5923 58.256L71.1371 57.9447C70.751 57.269 70.204 56.747 69.5029 56.382L69.2132 56.9386ZM70.5923 58.256C70.916 58.8225 71.0843 59.5045 71.0843 60.3137H71.7117C71.7117 59.4162 71.5245 58.6226 71.1371 57.9447L70.5923 58.256ZM71.0843 60.3137C71.0843 61.1132 70.9163 61.7962 70.5914 62.373L71.138 62.681C71.5242 61.9956 71.7117 61.203 71.7117 60.3137H71.0843ZM70.5923 62.3713C70.2673 62.9402 69.8098 63.3781 69.2132 63.6887L69.5029 64.2453C70.204 63.8803 70.751 63.3583 71.1371 62.6826L70.5923 62.3713ZM69.2132 63.6887C68.6176 63.9987 67.9005 64.1599 67.0514 64.1599V64.7874C67.98 64.7874 68.8006 64.6108 69.5029 64.2453L69.2132 63.6887ZM67.0514 62.6541C67.7293 62.6541 68.2925 62.4501 68.6871 62.0007L68.2156 61.5867C67.9702 61.8661 67.6001 62.0266 67.0514 62.0266V62.6541ZM68.6868 62.001C69.0778 61.5571 69.2584 60.9791 69.2584 60.3003H68.631C68.631 60.866 68.4826 61.2835 68.2159 61.5863L68.6868 62.001ZM69.2584 60.3003C69.2584 59.6224 69.0781 59.0492 68.6817 58.6206L68.221 59.0467C68.4824 59.3292 68.631 59.7338 68.631 60.3003H69.2584ZM68.6871 58.6267C68.2925 58.1772 67.7293 57.9733 67.0514 57.9733V58.6007C67.6001 58.6007 67.9702 58.7612 68.2156 59.0407L68.6871 58.6267ZM67.0514 57.9733C66.3657 57.9733 65.7953 58.1764 65.3918 58.6235L65.8576 59.0438C66.1119 58.7621 66.4925 58.6007 67.0514 58.6007V57.9733ZM65.3944 58.6206C64.9979 59.0492 64.8176 59.6224 64.8176 60.3003H65.4451C65.4451 59.7338 65.5937 59.3292 65.855 59.0467L65.3944 58.6206ZM64.8176 60.3003C64.8176 60.9791 64.9982 61.5571 65.3893 62.001L65.8601 61.5863C65.5934 61.2835 65.4451 60.866 65.4451 60.3003H64.8176ZM65.3918 62.0038C65.7953 62.451 66.3657 62.6541 67.0514 62.6541V62.0266C66.4925 62.0266 66.1119 61.8653 65.8576 61.5835L65.3918 62.0038ZM73.2401 64.3137H72.9264V64.6274H73.2401V64.3137ZM73.2401 58.7137H73.5538V58.3999H73.2401V58.7137ZM72.0401 58.7137H71.7264V59.0274H72.0401V58.7137ZM72.0401 56.3137V55.9999H71.7264V56.3137H72.0401ZM74.4934 56.3137H74.8072V55.9999H74.4934V56.3137ZM74.4934 57.647H74.1797V57.9607H74.4934V57.647ZM75.0534 57.647V57.9607H75.2178L75.3114 57.8256L75.0534 57.647ZM76.2268 56.567L76.3796 56.841L76.3813 56.84L76.2268 56.567ZM80.6401 57.087L80.4166 57.3072L80.4183 57.3088L80.6401 57.087ZM81.5601 64.3137V64.6274H81.8738V64.3137H81.5601ZM79.1068 64.3137H78.793V64.6274H79.1068V64.3137ZM78.6668 58.7803L78.4449 59.0022L78.4484 59.0056L78.6668 58.7803ZM76.1201 58.7803L75.9017 58.5551L75.8983 58.5585L76.1201 58.7803ZM75.6934 64.3137V64.6274H76.0072V64.3137H75.6934ZM73.5538 64.3137V58.7137H72.9264V64.3137H73.5538ZM73.2401 58.3999H72.0401V59.0274H73.2401V58.3999ZM72.3538 58.7137V56.3137H71.7264V58.7137H72.3538ZM72.0401 56.6274H74.4934V55.9999H72.0401V56.6274ZM74.1797 56.3137V57.647H74.8072V56.3137H74.1797ZM74.4934 57.9607H75.0534V57.3333H74.4934V57.9607ZM75.3114 57.8256C75.6058 57.4003 75.9618 57.074 76.3796 56.841L76.074 56.293C75.5673 56.5756 75.141 56.9693 74.7955 57.4684L75.3114 57.8256ZM76.3813 56.84C76.7917 56.6077 77.334 56.4807 78.0268 56.4807V55.8533C77.2618 55.8533 76.604 55.993 76.0722 56.294L76.3813 56.84ZM78.0268 56.4807C79.1086 56.4807 79.8883 56.7711 80.4167 57.3072L80.8636 56.8668C80.183 56.1762 79.2205 55.8533 78.0268 55.8533V56.4807ZM80.4183 57.3088C80.9618 57.8524 81.2464 58.5889 81.2464 59.5537H81.8738C81.8738 58.4562 81.545 57.5483 80.8619 56.8652L80.4183 57.3088ZM81.2464 59.5537V64.3137H81.8738V59.5537H81.2464ZM81.5601 63.9999H79.1068V64.6274H81.5601V63.9999ZM79.4205 64.3137V60.0337H78.793V64.3137H79.4205ZM79.4205 60.0337C79.4205 59.4283 79.2584 58.917 78.8852 58.5551L78.4484 59.0056C78.6618 59.2125 78.793 59.5368 78.793 60.0337H79.4205ZM78.8886 58.5585C78.5254 58.1953 78.0101 58.0399 77.4001 58.0399V58.6674C77.9101 58.6674 78.2392 58.7965 78.4449 59.0022L78.8886 58.5585ZM77.4001 58.0399C76.7893 58.0399 76.2725 58.1956 75.9017 58.5551L76.3385 59.0056C76.5544 58.7962 76.8909 58.6674 77.4001 58.6674V58.0399ZM75.8983 58.5585C75.5359 58.9208 75.3797 59.4308 75.3797 60.0337H76.0072C76.0072 59.5343 76.1354 59.2087 76.3419 59.0022L75.8983 58.5585ZM75.3797 60.0337V64.3137H76.0072V60.0337H75.3797ZM75.6934 63.9999H73.2401V64.6274H75.6934V63.9999Z" fill="#FD3567" mask="url(#path-6-outside-2_592_22567)"/>
</g>
</svg>
