<svg width="33" height="33" viewBox="0 0 33 33" fill="none" xmlns="http://www.w3.org/2000/svg">
<g clip-path="url(#clip0_305_686)">
<path fill-rule="evenodd" clip-rule="evenodd" d="M16.5131 3.49643C11.072 3.49643 6.67973 7.86856 6.67973 13.2389C6.67973 16.27 8.0756 18.9797 10.2745 20.7701C10.5127 20.964 10.6765 21.234 10.7385 21.5347C10.988 22.7442 11.3381 24.14 11.5883 25.0984C11.6408 25.2997 11.7773 25.3905 11.9067 25.4034C12.7805 25.4908 14.257 25.5874 16.5131 25.5874C18.7691 25.5874 20.2457 25.4908 21.1195 25.4034C21.2489 25.3905 21.3853 25.2997 21.4379 25.0984C21.688 24.14 22.0381 22.7442 22.2876 21.5347C22.3496 21.234 22.5135 20.964 22.7516 20.7701C24.9505 18.9797 26.3464 16.27 26.3464 13.2389C26.3464 7.86856 21.9541 3.49643 16.5131 3.49643ZM4.01306 13.2389C4.01306 6.37527 9.6198 0.829762 16.5131 0.829762C23.4063 0.829762 29.0131 6.37527 29.0131 13.2389C29.0131 16.9374 27.3821 20.2562 24.8033 22.5264C24.5523 23.6829 24.242 24.9138 24.0181 25.7717C23.7877 26.6549 23.1844 27.4055 22.3542 27.7923L22.2525 28.7311C22.0987 30.1505 21.0807 31.4391 19.5211 31.6439C18.7445 31.7458 17.7347 31.8296 16.513 31.8296C15.2282 31.8296 14.2313 31.7369 13.4985 31.6261C12.1404 31.4206 11.2477 30.3419 11.0209 29.134C10.9505 28.7584 10.8716 28.3221 10.7906 27.8445C9.89939 27.4759 9.24926 26.6965 9.008 25.7717C8.78413 24.9138 8.47386 23.6829 8.22286 22.5264C5.64409 20.2562 4.01306 16.9374 4.01306 13.2389ZM22.3464 13.2386C22.3464 10.017 19.7347 7.40529 16.513 7.40529C15.7767 7.40529 15.1797 6.80833 15.1797 6.07195C15.1797 5.33557 15.7767 4.73861 16.513 4.73861C21.2075 4.73861 25.0131 8.54422 25.0131 13.2386C25.0131 13.975 24.4161 14.572 23.6797 14.572C22.9433 14.572 22.3464 13.975 22.3464 13.2386Z" fill="#F7F7F7"/>
</g>
<defs>
<clipPath id="clip0_305_686">
<rect width="32" height="32" fill="white" transform="translate(0.5 0.500008)"/>
</clipPath>
</defs>
</svg>
