<svg width="32" height="33" viewBox="0 0 32 33" fill="none" xmlns="http://www.w3.org/2000/svg">
<path fill-rule="evenodd" clip-rule="evenodd" d="M3.61563 1.36661C5.35537 1.28711 9.05422 1.17383 16.0104 1.17383C22.9666 1.17383 26.6655 1.28711 28.4052 1.36661C29.4428 1.41403 30.492 2.05229 30.6199 3.28607C30.6548 3.62193 30.6771 4.0251 30.6771 4.50716C30.6771 4.98922 30.6548 5.39239 30.6199 5.72825C30.5032 6.85413 29.6192 7.48409 28.6771 7.62169V14.84C28.6771 18.5821 28.5848 21.3197 28.4992 23.0528C28.9313 23.344 29.255 23.799 29.3128 24.438C29.3322 24.6533 29.3438 24.8974 29.3438 25.1738C29.3438 25.4502 29.3322 25.6944 29.3128 25.9097C29.2042 27.1088 28.1595 27.6605 27.2183 27.6961C25.7587 27.7513 22.7782 27.8282 17.3438 27.8392V30.5071C17.3438 31.2435 16.7468 31.8405 16.0104 31.8405C15.274 31.8405 14.6771 31.2435 14.6771 30.5071V27.8392C9.24268 27.8282 6.2621 27.7513 4.80254 27.6961C3.86138 27.6605 2.81661 27.1088 2.70808 25.9097C2.6886 25.6944 2.67708 25.4502 2.67708 25.1738C2.67708 24.8974 2.6886 24.6533 2.70808 24.438C2.76591 23.799 3.08952 23.344 3.52164 23.0528C3.4361 21.3197 3.34375 18.5821 3.34375 14.84V7.62169C2.40158 7.48409 1.51771 6.85412 1.40093 5.72824C1.3661 5.39239 1.34375 4.98922 1.34375 4.50716C1.34375 4.0251 1.3661 3.62193 1.40093 3.28608C1.5289 2.05229 2.57806 1.41403 3.61563 1.36661ZM16.0104 7.84049C20.6815 7.84049 23.8838 7.78943 26.0104 7.73176V14.84C26.0104 18.3176 25.9298 20.9069 25.8508 22.6082C23.9647 22.5577 20.8642 22.5072 16.0104 22.5072C11.1566 22.5072 8.05615 22.5577 6.17008 22.6082C6.09112 20.9069 6.01042 18.3176 6.01042 14.84V7.73176C8.13702 7.78943 11.3394 7.84049 16.0104 7.84049Z" fill="#BC244A"/>
</svg>
