<svg width="32" height="33" viewBox="0 0 32 33" fill="none" xmlns="http://www.w3.org/2000/svg">
<path fill-rule="evenodd" clip-rule="evenodd" d="M3.61563 1.36625C5.35537 1.28675 9.05422 1.17346 16.0104 1.17346C22.9666 1.17346 26.6655 1.28675 28.4052 1.36625C29.4428 1.41366 30.492 2.05192 30.6199 3.28571C30.6548 3.62156 30.6771 4.02473 30.6771 4.50679C30.6771 4.98885 30.6548 5.39203 30.6199 5.72788C30.5032 6.85376 29.6192 7.48373 28.6771 7.62133V14.8396C28.6771 18.5817 28.5848 21.3193 28.4992 23.0524C28.9313 23.3436 29.255 23.7987 29.3128 24.4376C29.3322 24.6529 29.3438 24.8971 29.3438 25.1735C29.3438 25.4499 29.3322 25.694 29.3128 25.9093C29.2042 27.1085 28.1595 27.6601 27.2183 27.6957C25.7587 27.7509 22.7782 27.8279 17.3438 27.8388V30.5068C17.3438 31.2432 16.7468 31.8401 16.0104 31.8401C15.274 31.8401 14.6771 31.2432 14.6771 30.5068V27.8388C9.24268 27.8279 6.2621 27.7509 4.80254 27.6957C3.86138 27.6601 2.81661 27.1085 2.70808 25.9093C2.6886 25.694 2.67708 25.4499 2.67708 25.1735C2.67708 24.8971 2.6886 24.6529 2.70808 24.4376C2.76591 23.7987 3.08952 23.3436 3.52164 23.0524C3.4361 21.3193 3.34375 18.5817 3.34375 14.8396V7.62133C2.40158 7.48373 1.51771 6.85375 1.40093 5.72787C1.3661 5.39202 1.34375 4.98885 1.34375 4.50679C1.34375 4.02473 1.3661 3.62157 1.40093 3.28571C1.5289 2.05193 2.57806 1.41366 3.61563 1.36625ZM16.0104 7.84013C20.6815 7.84013 23.8838 7.78906 26.0104 7.73139V14.8396C26.0104 18.3172 25.9298 20.9065 25.8508 22.6078C23.9647 22.5573 20.8642 22.5068 16.0104 22.5068C11.1566 22.5068 8.05615 22.5573 6.17008 22.6078C6.09112 20.9065 6.01042 18.3172 6.01042 14.8396V7.73139C8.13702 7.78906 11.3394 7.84013 16.0104 7.84013Z" fill="#750037"/>
</svg>
