<svg width="32" height="33" viewBox="0 0 32 33" fill="none" xmlns="http://www.w3.org/2000/svg">
<path fill-rule="evenodd" clip-rule="evenodd" d="M3.61563 1.36613C5.35537 1.28663 9.05422 1.17334 16.0104 1.17334C22.9666 1.17334 26.6655 1.28663 28.4052 1.36613C29.4428 1.41354 30.492 2.0518 30.6199 3.28559C30.6548 3.62144 30.6771 4.02461 30.6771 4.50667C30.6771 4.98873 30.6548 5.3919 30.6199 5.72776C30.5032 6.85364 29.6192 7.4836 28.6771 7.6212V14.8395C28.6771 18.5816 28.5848 21.3192 28.4992 23.0523C28.9313 23.3435 29.255 23.7985 29.3128 24.4375C29.3322 24.6528 29.3438 24.8969 29.3438 25.1733C29.3438 25.4497 29.3322 25.6939 29.3128 25.9092C29.2042 27.1083 28.1595 27.66 27.2183 27.6956C25.7587 27.7508 22.7782 27.8277 17.3438 27.8387V30.5067C17.3438 31.2431 16.7468 31.84 16.0104 31.84C15.274 31.84 14.6771 31.2431 14.6771 30.5067V27.8387C9.24268 27.8277 6.2621 27.7508 4.80254 27.6956C3.86138 27.66 2.81661 27.1083 2.70808 25.9092C2.6886 25.6939 2.67708 25.4497 2.67708 25.1733C2.67708 24.8969 2.6886 24.6528 2.70808 24.4375C2.76591 23.7985 3.08952 23.3435 3.52164 23.0523C3.4361 21.3192 3.34375 18.5816 3.34375 14.8395V7.6212C2.40158 7.4836 1.51771 6.85363 1.40093 5.72775C1.3661 5.3919 1.34375 4.98873 1.34375 4.50667C1.34375 4.02461 1.3661 3.62145 1.40093 3.28559C1.5289 2.05181 2.57806 1.41354 3.61563 1.36613ZM16.0104 7.84C20.6815 7.84 23.8838 7.78894 26.0104 7.73127V14.8395C26.0104 18.3171 25.9298 20.9064 25.8508 22.6077C23.9647 22.5572 20.8642 22.5067 16.0104 22.5067C11.1566 22.5067 8.05615 22.5572 6.17008 22.6077C6.09112 20.9064 6.01042 18.3171 6.01042 14.8395V7.73127C8.13702 7.78894 11.3394 7.84 16.0104 7.84Z" fill="#F7F7F7"/>
</svg>
