<svg width="33" height="33" viewBox="0 0 33 33" fill="none" xmlns="http://www.w3.org/2000/svg">
<path fill-rule="evenodd" clip-rule="evenodd" d="M4.11563 1.36613C5.85537 1.28663 9.55422 1.17334 16.5104 1.17334C23.4666 1.17334 27.1655 1.28663 28.9052 1.36613C29.9428 1.41354 30.992 2.0518 31.1199 3.28559C31.1548 3.62144 31.1771 4.02461 31.1771 4.50667C31.1771 4.98873 31.1548 5.3919 31.1199 5.72776C31.0032 6.85364 30.1192 7.4836 29.1771 7.6212V14.8395C29.1771 18.5816 29.0848 21.3192 28.9992 23.0523C29.4313 23.3435 29.7549 23.7985 29.8127 24.4375C29.8322 24.6528 29.8438 24.8969 29.8438 25.1733C29.8438 25.4497 29.8322 25.6939 29.8127 25.9092C29.7042 27.1083 28.6595 27.66 27.7183 27.6956C26.2587 27.7508 23.2782 27.8277 17.8438 27.8387V30.5067C17.8438 31.2431 17.2468 31.84 16.5104 31.84C15.774 31.84 15.1771 31.2431 15.1771 30.5067V27.8387C9.74268 27.8277 6.7621 27.7508 5.30254 27.6956C4.36138 27.66 3.31661 27.1083 3.20808 25.9092C3.1886 25.6939 3.17708 25.4497 3.17708 25.1733C3.17708 24.8969 3.1886 24.6528 3.20808 24.4375C3.26591 23.7985 3.58952 23.3435 4.02164 23.0523C3.9361 21.3192 3.84375 18.5816 3.84375 14.8395V7.6212C2.90158 7.4836 2.01771 6.85363 1.90093 5.72775C1.8661 5.3919 1.84375 4.98873 1.84375 4.50667C1.84375 4.02461 1.8661 3.62145 1.90093 3.28559C2.0289 2.05181 3.07806 1.41354 4.11563 1.36613ZM16.5104 7.84C21.1815 7.84 24.3838 7.78894 26.5104 7.73127V14.8395C26.5104 18.3171 26.4298 20.9064 26.3508 22.6077C24.4647 22.5572 21.3642 22.5067 16.5104 22.5067C11.6566 22.5067 8.55615 22.5572 6.67008 22.6077C6.59112 20.9064 6.51042 18.3171 6.51042 14.8395V7.73127C8.63702 7.78894 11.8394 7.84 16.5104 7.84Z" fill="#F7F7F7"/>
</svg>
