<svg width="34" height="33" viewBox="0 0 34 33" fill="none" xmlns="http://www.w3.org/2000/svg">
<path d="M8.927 9.396L2.367 15.956C2.2868 16.0328 2.22297 16.1251 2.17936 16.2272C2.13576 16.3293 2.11328 16.4392 2.11328 16.5503C2.11328 16.6613 2.13576 16.7712 2.17936 16.8734C2.22297 16.9755 2.2868 17.0678 2.367 17.1446L8.927 23.7046" stroke="#F7F7F7" stroke-width="3" stroke-linecap="round" stroke-linejoin="round"/>
<path d="M25.0156 9.396L31.5756 15.956C31.6558 16.0328 31.7197 16.1251 31.7633 16.2272C31.8069 16.3293 31.8293 16.4392 31.8293 16.5503C31.8293 16.6613 31.8069 16.7712 31.7633 16.8734C31.7197 16.9755 31.6558 17.0678 31.5756 17.1446L25.0156 23.7046" stroke="#F7F7F7" stroke-width="3" stroke-linecap="round" stroke-linejoin="round"/>
<path d="M16.986 19.434C18.564 19.434 19.8432 18.1548 19.8432 16.5769C19.8432 14.9989 18.564 13.7197 16.986 13.7197C15.4081 13.7197 14.1289 14.9989 14.1289 16.5769C14.1289 18.1548 15.4081 19.434 16.986 19.434Z" stroke="#F7F7F7" stroke-width="3" stroke-linecap="round" stroke-linejoin="round"/>
</svg>
