<svg width="56" height="56" viewBox="0 0 56 56" fill="none" xmlns="http://www.w3.org/2000/svg">
<g clip-path="url(#clip0_290_717)">
<path fill-rule="evenodd" clip-rule="evenodd" d="M27.9805 -0.00634766L34.9805 6.99365V9.32698H30.8971V15.7436H40.2305V25.077H46.6471V20.9936H48.9805L55.9805 27.9936L48.9805 34.9936H46.6471V30.9103H40.2305V40.2436H30.8971V46.6603H34.9805V48.9936L27.9805 55.9936L20.9805 48.9936V46.6603H25.0638V40.2436H15.7305V30.9103H9.3138V34.9936H6.98047L-0.0195312 27.9936L6.98047 20.9936H9.3138V25.077H15.7305V15.7436H25.0638V9.32698H20.9805V6.99365L27.9805 -0.00634766ZM21.5638 21.577V34.4103H34.3971V21.577H21.5638Z" fill="#F7F7F7"/>
</g>
<defs>
<clipPath id="clip0_290_717">
<rect width="56" height="56" fill="white"/>
</clipPath>
</defs>
</svg>
