<svg width="40" height="40" viewBox="0 0 40 40" fill="none" xmlns="http://www.w3.org/2000/svg">
<g clip-path="url(#clip0_191_31814)">
<path fill-rule="evenodd" clip-rule="evenodd" d="M4.51954 1.08284C6.69421 0.983466 11.3178 0.841858 20.013 0.841858C28.7083 0.841858 33.3319 0.983466 35.5065 1.08284C36.8034 1.14211 38.1149 1.93993 38.2749 3.48216C38.3184 3.90198 38.3464 4.40595 38.3464 5.00852C38.3464 5.6111 38.3184 6.11506 38.2749 6.53488C38.1289 7.94223 37.024 8.72969 35.8464 8.90169V17.9245C35.8464 22.6022 35.7309 26.0242 35.624 28.1905C36.1641 28.5545 36.5687 29.1233 36.6409 29.922C36.6653 30.1912 36.6797 30.4963 36.6797 30.8418C36.6797 31.1873 36.6653 31.4925 36.6409 31.7617C36.5053 33.2606 35.1994 33.9502 34.0229 33.9947C32.1984 34.0637 28.4727 34.1598 21.6797 34.1735V37.5085C21.6797 38.429 20.9335 39.1752 20.013 39.1752C19.0925 39.1752 18.3464 38.429 18.3464 37.5085V34.1735C11.5534 34.1598 7.82762 34.0637 6.00317 33.9947C4.82672 33.9502 3.52076 33.2606 3.3851 31.7617C3.36075 31.4925 3.34635 31.1873 3.34635 30.8418C3.34635 30.4963 3.36075 30.1912 3.3851 29.922C3.45739 29.1233 3.8619 28.5545 4.40205 28.1905C4.29513 26.0242 4.17969 22.6022 4.17969 17.9245V8.90169C3.00198 8.72969 1.89714 7.94222 1.75116 6.53487C1.70762 6.11506 1.67969 5.6111 1.67969 5.00852C1.67969 4.40595 1.70762 3.90199 1.75116 3.48217C1.91113 1.93994 3.22257 1.14211 4.51954 1.08284ZM20.013 9.17519C25.8519 9.17519 29.8548 9.11135 32.513 9.03927V17.9245C32.513 22.2715 32.4122 25.5082 32.3134 27.6348C29.9559 27.5717 26.0803 27.5085 20.013 27.5085C13.9458 27.5085 10.0702 27.5717 7.7126 27.6348C7.6139 25.5082 7.51302 22.2715 7.51302 17.9245V9.03927C10.1713 9.11135 14.1742 9.17519 20.013 9.17519Z" fill="#F7F7F7"/>
</g>
<defs>
<clipPath id="clip0_191_31814">
<rect width="40" height="40" fill="white"/>
</clipPath>
</defs>
</svg>
