<svg width="40" height="40" viewBox="0 0 40 40" fill="none" xmlns="http://www.w3.org/2000/svg">
<g clip-path="url(#clip0_191_31820)">
<path d="M28.4798 10.8794C30.6141 9.0197 33.7401 9.3531 35.4212 11.6307C35.6729 11.9717 35.9763 12.3704 36.3692 12.8619C38.8623 15.9806 38.8623 20.4964 36.3555 23.6041C34.5046 25.8982 32.5643 28.2131 30.3952 30.3823C28.226 32.5514 25.9111 34.4917 23.617 36.3425C20.5094 38.8494 15.9935 38.8494 12.8748 36.3563C12.3224 35.9145 11.8886 35.5877 11.5227 35.3205C9.31529 33.708 8.94095 30.6877 10.7287 28.6194C11.5425 27.678 12.4052 26.765 13.2559 25.8694C14.4309 24.6324 16.4479 24.4947 17.7351 25.6145C17.961 25.8111 18.2483 26.0708 18.6455 26.4432C22.2129 24.3234 24.375 22.135 26.4561 18.6326C26.0769 18.2282 25.8143 17.9374 25.616 17.7091C24.4984 16.4226 24.6351 14.4116 25.8801 13.248C26.732 12.4518 27.5958 11.6496 28.4798 10.8794Z" fill="#F7F7F7"/>
<path fill-rule="evenodd" clip-rule="evenodd" d="M6.51202 4.27938C10.114 1.31557 14.4984 -0.0772305 18.8225 0.022919C20.0057 0.0503215 20.9426 1.03167 20.9152 2.21482C20.8878 3.39796 19.9064 4.3349 18.7233 4.30747C15.3874 4.23021 12.014 5.30224 9.23508 7.58878C6.56379 9.78678 4.88845 12.7394 4.25914 15.885C4.02696 17.0455 2.89802 17.798 1.73755 17.5659C0.577073 17.3337 -0.175468 16.2047 0.0567002 15.0443C0.872733 10.9654 3.05025 7.12778 6.51202 4.27938ZM12.2074 11.0536C14.0326 9.55172 16.2569 8.84524 18.4481 8.89598C19.6312 8.92338 20.5682 9.90472 20.5408 11.0879C20.5134 12.271 19.532 13.208 18.3489 13.1806C17.1459 13.1527 15.9326 13.5384 14.9304 14.363C13.9669 15.1558 13.3644 16.2177 13.1375 17.3517C12.9053 18.5122 11.7764 19.2647 10.6159 19.0325C9.45542 18.8004 8.70288 17.6714 8.93505 16.511C9.34862 14.4437 10.4533 12.4968 12.2074 11.0536ZM36.8494 10.5776C34.5449 7.4559 30.2143 6.99964 27.2981 9.54055C26.3883 10.3333 25.5043 11.1544 24.6522 11.9508C22.7443 13.734 22.494 16.8022 24.2177 18.8393C22.7264 21.1 21.131 22.706 18.8356 24.221C16.7952 22.5053 13.7381 22.7671 11.9525 24.6471C11.1036 25.5409 10.2139 26.4819 9.36911 27.4592C6.88482 30.3332 7.42768 34.5543 10.4607 36.77C10.8074 37.0232 11.2205 37.3343 11.7512 37.7586C15.5211 40.7723 20.9668 40.7752 24.7296 37.7397C27.0371 35.8783 29.4114 33.8903 31.6491 31.6523C33.8871 29.4146 35.8751 27.0403 37.7366 24.7328C40.772 20.97 40.7691 15.5243 37.7554 11.7544C37.3774 11.2816 37.088 10.9011 36.8494 10.5776ZM29.6443 12.2332C30.9969 11.0547 32.9177 11.2652 33.976 12.6987C34.2406 13.0572 34.5577 13.4741 34.9657 13.9844C36.9383 16.452 36.9354 20.0378 34.9569 22.4904C33.1171 24.7711 31.2243 27.0266 29.1237 29.1272C27.0234 31.2275 24.7679 33.1203 22.4872 34.96C20.0346 36.9386 16.4488 36.9415 13.9813 34.9689C13.407 34.5097 12.9525 34.1672 12.5674 33.886C11.1856 32.8766 10.9798 31.0572 12.071 29.7949C12.854 28.8889 13.6896 28.0042 14.542 27.1067C15.0879 26.532 16.0199 26.5043 16.5544 26.9693C16.7586 27.1469 17.0287 27.3908 17.4155 27.7534C17.9957 28.2973 18.8655 28.392 19.5491 27.9858C23.3757 25.712 25.7508 23.3083 27.9826 19.5523C28.3888 18.8687 28.2941 17.9989 27.7502 17.4188C27.381 17.0249 27.1345 16.7516 26.9554 16.5455C26.4894 16.009 26.5238 15.09 27.0908 14.5601C27.9425 13.7641 28.786 12.9809 29.6443 12.2332Z" fill="#F7F7F7"/>
</g>
<defs>
<clipPath id="clip0_191_31820">
<rect width="40" height="40" fill="white"/>
</clipPath>
</defs>
</svg>
