<svg width="40" height="40" viewBox="0 0 40 40" fill="none" xmlns="http://www.w3.org/2000/svg">
<g clip-path="url(#clip0_191_31817)">
<path fill-rule="evenodd" clip-rule="evenodd" d="M20.0106 -0.00201416C14.7062 -0.00201416 9.61916 2.10512 5.86843 5.85585C2.11769 9.60658 0.0105591 14.6936 0.0105591 19.998C0.0105591 25.3023 2.11769 30.3893 5.86843 34.1401C9.61916 37.8908 14.7062 39.998 20.0106 39.998C25.3149 39.998 30.4019 37.8908 34.1527 34.1401C37.9034 30.3893 40.0106 25.3023 40.0106 19.998C40.0106 14.6936 37.9034 9.60658 34.1527 5.85585C30.4019 2.10512 25.3149 -0.00201416 20.0106 -0.00201416ZM8.81471 8.80213C11.784 5.8328 15.8113 4.16465 20.0106 4.16465C24.2099 4.16465 28.2371 5.8328 31.2064 8.80213C34.1757 11.7714 35.8439 15.7987 35.8439 19.998C35.8439 23.1323 34.9146 26.171 33.2084 28.7453C31.5662 28.1358 29.3874 27.6041 26.6769 27.5121V34.3596C25.8714 34.7335 25.0352 35.0393 24.1771 35.2733V27.9218L23.5951 27.423L22.5104 28.6885C23.5951 27.423 23.5957 27.4235 23.5951 27.423L23.5924 27.4208L23.5896 27.4183L23.5827 27.4125L23.5654 27.398C23.5521 27.387 23.5354 27.3733 23.5152 27.3571C23.4752 27.325 23.4214 27.2828 23.3541 27.2323C23.2196 27.1313 23.0304 26.9968 22.7866 26.84C22.2992 26.5266 21.5927 26.1248 20.6669 25.728C18.8112 24.9326 16.0886 24.1646 12.5104 24.1646C9.40204 24.1646 6.94086 24.7441 5.13324 25.4165C4.50663 23.6961 4.17723 21.864 4.17723 19.998C4.17723 15.7987 5.84538 11.7714 8.81471 8.80213ZM7.51056 15.8313C7.51056 12.6096 10.1222 9.99798 13.3439 9.99798C16.5656 9.99798 19.1772 12.6096 19.1772 15.8313C19.1772 19.053 16.5656 21.6646 13.3439 21.6646C10.1222 21.6646 7.51056 19.053 7.51056 15.8313ZM26.6772 13.3313C23.4556 13.3313 20.8439 15.943 20.8439 19.1646C20.8439 22.3863 23.4556 24.998 26.6772 24.998C29.8989 24.998 32.5106 22.3863 32.5106 19.1646C32.5106 15.943 29.8989 13.3313 26.6772 13.3313Z" fill="#F7F7F7"/>
</g>
<defs>
<clipPath id="clip0_191_31817">
<rect width="40" height="40" fill="white"/>
</clipPath>
</defs>
</svg>
